<svg width="343" height="331" viewBox="0 0 343 331" fill="none" xmlns="http://www.w3.org/2000/svg">
<path d="M275.772 42.8644C275.772 42.8644 238.872 12.7159 190.88 26.0685C142.888 39.4212 122.784 80.812 95.2694 109.231C80.8536 124.115 59.5671 129.597 42.4301 141.061C-12.3134 177.7 -4.22087 260.069 38.003 291.138C78.8146 321.136 133.114 316.923 179.138 303.078C263.284 277.753 364.623 200.494 320.868 101.559C310.629 78.7392 295.184 58.6368 275.772 42.8644Z" fill="#7D18F7"/>
<path opacity="0.7" d="M275.772 42.8644C275.772 42.8644 238.872 12.7159 190.88 26.0685C142.888 39.4212 122.784 80.812 95.2694 109.231C80.8536 124.115 59.5671 129.597 42.4301 141.061C-12.3134 177.7 -4.22087 260.069 38.003 291.138C78.8146 321.136 133.114 316.923 179.138 303.078C263.284 277.753 364.623 200.494 320.868 101.559C310.629 78.7392 295.184 58.6368 275.772 42.8644Z" fill="white"/>
<path d="M167.61 330.926C260.179 330.926 335.22 324.948 335.22 317.574C335.22 310.199 260.179 304.221 167.61 304.221C75.0416 304.221 0 310.199 0 317.574C0 324.948 75.0416 330.926 167.61 330.926Z" fill="#7D18F7"/>
<path opacity="0.5" d="M167.61 330.926C260.179 330.926 335.22 324.948 335.22 317.574C335.22 310.199 260.179 304.221 167.61 304.221C75.0416 304.221 0 310.199 0 317.574C0 324.948 75.0416 330.926 167.61 330.926Z" fill="white"/>
<path d="M301.961 39.0564H128.551C124.788 39.0564 121.736 42.1076 121.736 45.8716V136.262C121.736 140.026 124.788 143.077 128.551 143.077H301.961C305.725 143.077 308.776 140.026 308.776 136.262V45.8716C308.776 42.1076 305.725 39.0564 301.961 39.0564Z" fill="#263238"/>
<path d="M307.499 42.9519H134.09C130.326 42.9519 127.274 46.0032 127.274 49.7671V140.157C127.274 143.921 130.326 146.972 134.09 146.972H307.499C311.263 146.972 314.314 143.921 314.314 140.157V49.7671C314.314 46.0032 311.263 42.9519 307.499 42.9519Z" fill="white" stroke="#263238" stroke-miterlimit="10"/>
<path d="M144.769 116.729H296.931" stroke="#263238" stroke-miterlimit="10"/>
<path d="M149.719 55.6063C149.719 56.7847 149.37 57.9367 148.715 58.9165C148.06 59.8964 147.13 60.66 146.041 61.111C144.952 61.562 143.754 61.68 142.599 61.4501C141.443 61.2202 140.381 60.6527 139.548 59.8194C138.715 58.9861 138.147 57.9245 137.917 56.7687C137.687 55.6129 137.805 54.4148 138.256 53.3261C138.707 52.2374 139.471 51.3068 140.451 50.6521C141.431 49.9974 142.583 49.6479 143.761 49.6479C144.544 49.6479 145.318 49.8021 146.041 50.1015C146.764 50.4009 147.421 50.8398 147.974 51.3931C148.527 51.9464 148.966 52.6032 149.266 53.3261C149.565 54.049 149.719 54.8238 149.719 55.6063Z" fill="#7D18F7" stroke="#263238" stroke-miterlimit="10"/>
<path d="M139.817 51.1396L147.751 60.0176" stroke="#263238" stroke-miterlimit="10"/>
<path d="M148.291 51.219L140.19 59.9383" stroke="#263238" stroke-miterlimit="10"/>
<path d="M284.65 138.253H253.454C252.575 138.254 251.705 138.082 250.893 137.746C250.081 137.41 249.344 136.918 248.722 136.297C248.101 135.675 247.608 134.938 247.273 134.126C246.937 133.314 246.765 132.444 246.766 131.565C246.766 130.687 246.939 129.817 247.275 129.005C247.611 128.194 248.104 127.457 248.725 126.836C249.346 126.215 250.083 125.722 250.894 125.386C251.706 125.05 252.576 124.877 253.454 124.877H284.65C286.423 124.879 288.123 125.584 289.377 126.838C290.63 128.092 291.336 129.792 291.338 131.565C291.338 133.339 290.633 135.04 289.379 136.294C288.125 137.549 286.424 138.253 284.65 138.253Z" fill="#7D18F7" stroke="#263238" stroke-miterlimit="10"/>
<path d="M253.771 131.795V129.002H254.478V131.771C254.478 132.858 254.977 133.358 255.858 133.358C256.739 133.358 257.254 132.866 257.254 131.771V129.002H257.929V131.795C257.929 132.346 257.71 132.875 257.32 133.265C256.93 133.655 256.401 133.874 255.85 133.874C255.299 133.874 254.77 133.655 254.38 133.265C253.99 132.875 253.771 132.346 253.771 131.795Z" fill="#263238"/>
<path d="M264.038 130.716C264.038 131.787 263.244 132.43 261.991 132.43H260.777V133.921H260.071V129.002H262.023C263.268 129.002 264.038 129.653 264.038 130.716ZM263.34 130.716C263.34 130.018 262.863 129.613 261.967 129.613H260.777V131.819H261.967C262.863 131.819 263.34 131.422 263.34 130.716Z" fill="#263238"/>
<path d="M265.775 129.002H267.846C268.186 128.975 268.527 129.018 268.849 129.13C269.171 129.241 269.467 129.417 269.717 129.649C269.968 129.88 270.167 130.16 270.304 130.472C270.441 130.784 270.511 131.121 270.511 131.462C270.511 131.802 270.441 132.139 270.304 132.452C270.167 132.764 269.968 133.044 269.717 133.275C269.467 133.506 269.171 133.683 268.849 133.794C268.527 133.905 268.186 133.949 267.846 133.921H265.775V129.002ZM267.799 133.31C268.056 133.334 268.315 133.304 268.56 133.222C268.805 133.14 269.03 133.008 269.221 132.834C269.411 132.66 269.564 132.448 269.668 132.212C269.773 131.975 269.826 131.72 269.826 131.462C269.826 131.204 269.773 130.948 269.668 130.712C269.564 130.476 269.411 130.264 269.221 130.09C269.03 129.916 268.805 129.784 268.56 129.701C268.315 129.619 268.056 129.589 267.799 129.613H266.474V133.31H267.799Z" fill="#263238"/>
<path d="M275.336 132.691H272.718L272.178 133.921H271.456L273.685 129.002H274.376L276.613 133.921H275.875L275.336 132.691ZM275.09 132.128L274.027 129.748L272.963 132.128H275.09Z" fill="#263238"/>
<path d="M278.771 129.613H277.097V129.002H281.159V129.613H279.477V133.921H278.779L278.771 129.613Z" fill="#263238"/>
<path d="M286.189 133.31V133.921H282.65V129.002H286.117V129.613H283.349V131.121H285.824V131.723H283.357V133.31H286.189Z" fill="#263238"/>
<g opacity="0.26">
<path d="M193.276 84.3347L191.047 90.9912H190.047L188.238 85.6597L186.421 90.9753H185.406L183.176 84.3188H184.16L185.953 89.7297L187.833 84.3188H188.706L190.539 89.7615L192.38 84.3188L193.276 84.3347Z" fill="#263238"/>
<path d="M200.186 88.0875V90.9913H199.274V88.1986C199.274 87.2068 198.782 86.7229 197.917 86.7229C197.698 86.7085 197.477 86.7427 197.272 86.823C197.067 86.9034 196.883 87.0278 196.731 87.1876C196.58 87.3474 196.465 87.5386 196.396 87.7476C196.327 87.9566 196.304 88.1783 196.33 88.3969V90.9913H195.378V83.9302H196.291V86.6673C196.505 86.4056 196.777 86.1976 197.085 86.0598C197.394 85.922 197.73 85.8584 198.068 85.874C198.362 85.8459 198.658 85.8848 198.934 85.9876C199.21 86.0904 199.46 86.2544 199.664 86.4674C199.867 86.6804 200.02 86.9369 200.111 87.2175C200.201 87.498 200.227 87.7955 200.186 88.0875Z" fill="#263238"/>
<path d="M206.835 87.9525V90.9912H205.97V90.3247C205.777 90.5753 205.524 90.7729 205.234 90.8992C204.944 91.0254 204.627 91.0762 204.312 91.0467C203.169 91.0467 202.447 90.4437 202.447 89.5631C202.447 88.6824 202.971 88.0874 204.478 88.0874H205.922V87.9128C205.922 87.1195 205.478 86.691 204.574 86.691C203.998 86.6896 203.439 86.8825 202.987 87.2385L202.606 86.5482C203.21 86.1074 203.945 85.8812 204.693 85.9056C206.057 85.9056 206.835 86.572 206.835 87.9525ZM205.922 89.452V88.7459H204.51C203.606 88.7459 203.352 89.1029 203.352 89.5393C203.352 89.9756 203.772 90.3327 204.462 90.3327C204.767 90.3561 205.072 90.2839 205.333 90.126C205.595 89.9682 205.801 89.7325 205.922 89.452Z" fill="#263238"/>
<path d="M212.317 90.6976C212.001 90.9382 211.612 91.0616 211.215 91.0467C211 91.0706 210.784 91.0461 210.58 90.9748C210.377 90.9035 210.192 90.7874 210.04 90.635C209.887 90.4826 209.771 90.2978 209.7 90.0944C209.628 89.891 209.604 89.6741 209.628 89.4599V86.691H208.771V85.9452H209.66V84.8662H210.572V85.969H212.016V86.7148H210.532V89.452C210.516 89.562 210.525 89.6742 210.559 89.7802C210.592 89.8862 210.65 89.9833 210.726 90.0641C210.802 90.145 210.896 90.2076 211 90.2472C211.103 90.2868 211.215 90.3025 211.326 90.2929C211.584 90.2991 211.837 90.215 212.04 90.0549L212.317 90.6976Z" fill="#263238"/>
<path d="M221.885 87.9525V90.9912H221.021V90.3247C220.829 90.5765 220.576 90.7749 220.285 90.9013C219.995 91.0277 219.678 91.0777 219.363 91.0467C218.22 91.0467 217.498 90.4437 217.498 89.5631C217.498 88.6824 218.022 88.0874 219.529 88.0874H220.973V87.9128C220.973 87.1195 220.529 86.691 219.624 86.691C219.049 86.6896 218.49 86.8825 218.038 87.2385L217.657 86.5482C218.261 86.1074 218.996 85.8812 219.743 85.9056C221.108 85.9056 221.885 86.572 221.885 87.9525ZM220.973 89.452V88.7459H219.569C218.664 88.7459 218.402 89.1029 218.402 89.5393C218.402 89.9756 218.823 90.3327 219.521 90.3327C219.825 90.3544 220.127 90.2814 220.387 90.1236C220.648 89.9659 220.852 89.7312 220.973 89.452Z" fill="#263238"/>
<path d="M227.248 85.9057V86.7863H227.042C226.82 86.7726 226.597 86.8084 226.39 86.891C226.183 86.9736 225.997 87.1011 225.846 87.2642C225.694 87.4273 225.58 87.622 225.513 87.8344C225.445 88.0467 225.426 88.2713 225.455 88.4921V90.9992H224.543V85.9612H225.416V86.8022C225.607 86.497 225.881 86.2513 226.204 86.0929C226.528 85.9345 226.89 85.8697 227.248 85.9057Z" fill="#263238"/>
<path d="M233.818 88.7776H229.724C229.782 89.2103 230.003 89.6046 230.342 89.8791C230.682 90.1536 231.114 90.2875 231.549 90.2533C231.822 90.2636 232.094 90.2144 232.346 90.1089C232.598 90.0034 232.824 89.8442 233.009 89.6424L233.509 90.2295C233.257 90.5001 232.949 90.7116 232.606 90.8488C232.263 90.9859 231.894 91.0454 231.525 91.0228C231.173 91.0496 230.82 91.0023 230.488 90.884C230.155 90.7657 229.852 90.579 229.596 90.336C229.34 90.093 229.138 89.7992 229.003 89.4733C228.868 89.1475 228.803 88.797 228.812 88.4443C228.797 88.1067 228.853 87.7697 228.975 87.4544C229.096 87.1391 229.282 86.8523 229.519 86.6119C229.757 86.3714 230.041 86.1825 230.355 86.0568C230.669 85.9312 231.005 85.8716 231.343 85.8817C231.681 85.8733 232.017 85.9354 232.33 86.0642C232.643 86.193 232.926 86.3855 233.16 86.6296C233.395 86.8737 233.576 87.164 233.692 87.4819C233.808 87.7998 233.856 88.1384 233.834 88.4761C233.834 88.5792 233.826 88.6903 233.818 88.7776ZM229.724 88.1191H232.961C232.921 87.7175 232.734 87.345 232.435 87.0741C232.135 86.8031 231.746 86.6531 231.343 86.6531C230.939 86.6531 230.55 86.8031 230.251 87.0741C229.952 87.345 229.764 87.7175 229.724 88.1191Z" fill="#263238"/>
<path d="M244.029 85.9534L241.585 91.5071C241.141 92.5702 240.561 92.9034 239.784 92.9034C239.309 92.9163 238.847 92.749 238.491 92.4353L238.879 91.753C239.121 91.9895 239.446 92.1232 239.784 92.1259C240.228 92.1259 240.498 91.9275 240.752 91.3325L240.911 90.9834L238.681 85.9534H239.633L241.395 89.9838L243.14 85.9534H244.029Z" fill="#263238"/>
<path d="M245.234 88.4684C245.225 87.9471 245.371 87.4347 245.654 86.9967C245.937 86.5586 246.343 86.2146 246.822 86.0085C247.301 85.8024 247.831 85.7436 248.343 85.8395C248.856 85.9354 249.328 86.1816 249.7 86.5469C250.072 86.9122 250.327 87.38 250.432 87.8907C250.537 88.4014 250.488 88.9318 250.291 89.4144C250.094 89.8971 249.757 90.3101 249.324 90.6008C248.892 90.8915 248.382 91.0468 247.861 91.0469C247.515 91.0634 247.171 91.0084 246.848 90.8853C246.525 90.7622 246.231 90.5737 245.984 90.3316C245.737 90.0894 245.544 89.7989 245.415 89.4783C245.286 89.1577 245.224 88.8138 245.234 88.4684ZM249.551 88.4684C249.551 88.0181 249.372 87.5862 249.053 87.2678C248.735 86.9494 248.303 86.7705 247.853 86.7705C247.402 86.7705 246.971 86.9494 246.652 87.2678C246.334 87.5862 246.155 88.0181 246.155 88.4684C246.155 88.9187 246.334 89.3505 246.652 89.6689C246.971 89.9873 247.402 90.1662 247.853 90.1662C248.303 90.1662 248.735 89.9873 249.053 89.6689C249.372 89.3505 249.551 88.9187 249.551 88.4684Z" fill="#263238"/>
<path d="M257.397 85.9532V90.9912H256.532V90.1978C256.331 90.4575 256.07 90.665 255.772 90.8031C255.474 90.9411 255.147 91.0056 254.818 90.9912C254.524 91.0218 254.226 90.9858 253.947 90.8857C253.668 90.7856 253.415 90.624 253.207 90.413C252.999 90.2019 252.841 89.9468 252.745 89.6665C252.649 89.3862 252.618 89.0878 252.652 88.7935V85.8977H253.565V88.6904C253.565 89.6821 254.057 90.174 254.921 90.174C255.142 90.1913 255.363 90.1591 255.57 90.0798C255.776 90.0005 255.962 89.8761 256.114 89.7156C256.266 89.5551 256.381 89.3627 256.449 89.1524C256.517 88.9421 256.537 88.7192 256.508 88.5V85.8977L257.397 85.9532Z" fill="#263238"/>
<path d="M176.615 96.5844H174.338V95.791H179.844V96.5844H177.559V102.416H176.615V96.5844Z" fill="#263238"/>
<path d="M186.485 99.5121V102.416H185.572V99.6231C185.572 98.6314 185.08 98.1474 184.215 98.1474C183.996 98.1331 183.776 98.1673 183.571 98.2476C183.366 98.3279 183.181 98.4524 183.029 98.6122C182.878 98.772 182.763 98.9632 182.694 99.1722C182.625 99.3812 182.603 99.6029 182.629 99.8215V102.416H181.716V95.3547H182.629V98.0919C182.844 97.83 183.118 97.622 183.428 97.4843C183.737 97.3465 184.075 97.283 184.414 97.2985C184.704 97.2766 184.995 97.3201 185.266 97.4257C185.537 97.5313 185.781 97.6964 185.98 97.9089C186.179 98.1213 186.327 98.3756 186.414 98.6531C186.502 98.9306 186.526 99.2241 186.485 99.5121Z" fill="#263238"/>
<path d="M188.976 95.8149C188.976 95.7343 188.992 95.6546 189.023 95.5804C189.054 95.5062 189.1 95.439 189.158 95.3828C189.215 95.3266 189.284 95.2825 189.359 95.2532C189.434 95.2238 189.514 95.2098 189.594 95.2119C189.674 95.2087 189.753 95.2215 189.828 95.2495C189.902 95.2774 189.97 95.3201 190.028 95.3748C190.086 95.4295 190.132 95.4953 190.164 95.5681C190.195 95.641 190.212 95.7195 190.213 95.799C190.213 95.9631 190.148 96.1205 190.032 96.2366C189.916 96.3527 189.759 96.4178 189.594 96.4178C189.43 96.4178 189.273 96.3527 189.157 96.2366C189.041 96.1205 188.976 95.9631 188.976 95.799V95.8149ZM189.134 97.4016H190.055V102.44H189.134V97.4016Z" fill="#263238"/>
<path d="M197.528 99.5122V102.416H196.616V99.6232C196.616 98.6315 196.124 98.1475 195.259 98.1475C195.04 98.1332 194.82 98.1674 194.615 98.2477C194.41 98.328 194.225 98.4525 194.073 98.6123C193.922 98.7721 193.807 98.9633 193.738 99.1723C193.669 99.3813 193.647 99.603 193.673 99.8216V102.416H192.76V97.378H193.641V98.1713C193.857 97.9025 194.136 97.6899 194.452 97.5518C194.768 97.4137 195.113 97.354 195.458 97.378C195.74 97.358 196.024 97.4001 196.288 97.5012C196.553 97.6023 196.792 97.7601 196.99 97.9634C197.187 98.1667 197.337 98.4106 197.43 98.6781C197.523 98.9457 197.557 99.2303 197.528 99.5122Z" fill="#263238"/>
<path d="M202.146 100.067L201.099 101.035V102.416H200.178V95.3547H201.099V99.8849L203.844 97.3779H204.946L202.828 99.4565L205.161 102.416H204.034L202.146 100.067Z" fill="#263238"/>
<path d="M206.771 95.8149C206.765 95.6913 206.796 95.5687 206.86 95.4629C206.924 95.357 207.018 95.2728 207.131 95.221C207.243 95.1693 207.368 95.1524 207.49 95.1726C207.612 95.1928 207.726 95.2491 207.815 95.3342C207.905 95.4194 207.967 95.5294 207.994 95.6503C208.02 95.7711 208.01 95.8971 207.964 96.012C207.919 96.127 207.839 96.2256 207.737 96.2951C207.635 96.3646 207.514 96.4018 207.39 96.402C207.31 96.4063 207.231 96.3943 207.156 96.3667C207.081 96.3392 207.012 96.2966 206.954 96.2417C206.896 96.1867 206.85 96.1205 206.819 96.0471C206.787 95.9738 206.771 95.8947 206.771 95.8149ZM206.93 97.4017H207.842V102.44H206.93V97.4017Z" fill="#263238"/>
<path d="M215.324 99.5121V102.416H214.42V99.6232C214.42 98.6315 213.928 98.1475 213.063 98.1475C212.843 98.1331 212.623 98.1673 212.418 98.2476C212.213 98.328 212.028 98.4524 211.877 98.6122C211.725 98.772 211.611 98.9632 211.542 99.1722C211.473 99.3812 211.45 99.6029 211.476 99.8215V102.416H210.564V97.3779H211.437V98.1713C211.654 97.904 211.933 97.6925 212.249 97.5545C212.565 97.4165 212.909 97.356 213.254 97.3779C213.536 97.3594 213.819 97.4024 214.083 97.504C214.347 97.6056 214.585 97.7634 214.782 97.9663C214.979 98.1693 215.13 98.4127 215.223 98.6796C215.317 98.9465 215.351 99.2306 215.324 99.5121Z" fill="#263238"/>
<path d="M222.829 97.3781V101.734C222.829 103.511 221.925 104.32 220.211 104.32C219.349 104.342 218.507 104.061 217.831 103.527L218.267 102.829C218.82 103.259 219.503 103.488 220.203 103.479C221.393 103.479 221.941 102.932 221.941 101.789V101.393C221.716 101.652 221.436 101.858 221.122 101.995C220.808 102.132 220.467 102.198 220.124 102.186C219.792 102.205 219.459 102.156 219.147 102.042C218.834 101.928 218.548 101.751 218.307 101.523C218.065 101.294 217.872 101.019 217.741 100.714C217.609 100.408 217.541 100.079 217.541 99.7464C217.541 99.4137 217.609 99.0846 217.741 98.7792C217.872 98.4737 218.065 98.1983 218.307 97.9699C218.548 97.7415 218.834 97.5649 219.147 97.4509C219.459 97.3368 219.792 97.2878 220.124 97.3067C220.475 97.2873 220.825 97.3487 221.148 97.4863C221.472 97.6238 221.759 97.8338 221.988 98.1001V97.3067L222.829 97.3781ZM221.933 99.7583C221.952 99.4109 221.866 99.0657 221.687 98.7676C221.507 98.4694 221.243 98.2319 220.927 98.0859C220.611 97.9399 220.259 97.8921 219.915 97.9486C219.572 98.0052 219.254 98.1635 219.001 98.4031C218.749 98.6427 218.575 98.9525 218.5 99.2924C218.426 99.6323 218.456 99.9867 218.585 100.31C218.715 100.633 218.938 100.909 219.227 101.104C219.515 101.298 219.855 101.402 220.203 101.401C220.427 101.421 220.653 101.393 220.866 101.32C221.079 101.246 221.273 101.128 221.437 100.974C221.6 100.819 221.729 100.631 221.815 100.423C221.9 100.215 221.94 99.9911 221.933 99.7662V99.7583Z" fill="#263238"/>
<path d="M233.032 99.3773V102.416H232.168V101.75C231.976 102 231.725 102.198 231.436 102.324C231.147 102.45 230.831 102.501 230.517 102.472C229.375 102.472 228.645 101.869 228.645 100.988C228.645 100.107 229.169 99.5122 230.676 99.5122H232.12V99.3376C232.12 98.5443 231.676 98.1158 230.771 98.1158C230.196 98.1156 229.637 98.3084 229.185 98.6633L228.804 97.973C229.408 97.5322 230.143 97.306 230.89 97.3304C232.255 97.3304 233.032 97.9968 233.032 99.3773ZM232.12 100.877V100.171H230.716C229.811 100.171 229.549 100.528 229.549 100.964C229.549 101.4 229.97 101.757 230.668 101.757C230.972 101.779 231.274 101.706 231.534 101.548C231.794 101.391 231.999 101.156 232.12 100.877Z" fill="#263238"/>
<path d="M240.911 99.8929C240.929 100.234 240.875 100.576 240.753 100.895C240.632 101.214 240.444 101.505 240.204 101.748C239.963 101.99 239.675 102.18 239.356 102.305C239.038 102.43 238.697 102.486 238.356 102.471C238.01 102.488 237.666 102.419 237.353 102.271C237.041 102.123 236.769 101.9 236.563 101.622V102.416H235.682V95.3547H236.634V98.1395C236.845 97.8781 237.114 97.67 237.42 97.5321C237.726 97.3943 238.06 97.3305 238.396 97.3461C238.731 97.336 239.065 97.3952 239.377 97.52C239.689 97.6449 239.972 97.8326 240.208 98.0716C240.444 98.3106 240.628 98.5957 240.749 98.909C240.87 99.2224 240.925 99.5573 240.911 99.8929ZM239.982 99.8929C239.965 99.5613 239.851 99.2421 239.655 98.9746C239.458 98.7071 239.187 98.5031 238.876 98.3879C238.565 98.2726 238.226 98.2512 237.903 98.3263C237.58 98.4013 237.285 98.5695 237.056 98.8101C236.828 99.0506 236.674 99.353 236.616 99.6797C236.557 100.006 236.595 100.343 236.726 100.648C236.857 100.954 237.074 101.214 237.351 101.397C237.628 101.58 237.952 101.678 238.284 101.678C238.517 101.684 238.748 101.642 238.962 101.553C239.177 101.464 239.37 101.331 239.531 101.163C239.691 100.995 239.814 100.795 239.891 100.576C239.969 100.357 240 100.124 239.982 99.8929Z" fill="#263238"/>
<path d="M242.664 99.8929C242.655 99.3716 242.801 98.8593 243.083 98.4212C243.366 97.9831 243.773 97.6392 244.252 97.4331C244.731 97.227 245.26 97.1681 245.773 97.264C246.285 97.3599 246.758 97.6062 247.13 97.9715C247.502 98.3368 247.757 98.8046 247.862 99.3153C247.967 99.8259 247.918 100.356 247.721 100.839C247.523 101.322 247.187 101.735 246.754 102.025C246.321 102.316 245.812 102.471 245.29 102.471C244.945 102.488 244.6 102.433 244.277 102.31C243.954 102.187 243.66 101.998 243.414 101.756C243.167 101.514 242.973 101.224 242.844 100.903C242.715 100.582 242.654 100.238 242.664 99.8929ZM246.98 99.8929C246.98 99.67 246.936 99.4492 246.851 99.2432C246.766 99.0372 246.641 98.85 246.483 98.6924C246.325 98.5347 246.138 98.4097 245.932 98.3243C245.726 98.239 245.505 98.1951 245.282 98.1951C245.059 98.1951 244.839 98.239 244.633 98.3243C244.427 98.4097 244.239 98.5347 244.082 98.6924C243.924 98.85 243.799 99.0372 243.714 99.2432C243.628 99.4492 243.585 99.67 243.585 99.8929C243.585 100.116 243.628 100.337 243.714 100.543C243.799 100.749 243.924 100.936 244.082 101.093C244.239 101.251 244.427 101.376 244.633 101.462C244.839 101.547 245.059 101.591 245.282 101.591C245.505 101.591 245.726 101.547 245.932 101.462C246.138 101.376 246.325 101.251 246.483 101.093C246.641 100.936 246.766 100.749 246.851 100.543C246.936 100.337 246.98 100.116 246.98 99.8929Z" fill="#263238"/>
<path d="M254.827 97.3778V102.416H253.962V101.622C253.76 101.882 253.5 102.09 253.201 102.228C252.903 102.366 252.576 102.43 252.248 102.416C251.953 102.446 251.655 102.41 251.377 102.31C251.098 102.21 250.845 102.049 250.637 101.838C250.429 101.627 250.271 101.371 250.175 101.091C250.079 100.811 250.047 100.512 250.082 100.218V97.3223H250.995V100.115C250.995 101.107 251.486 101.599 252.351 101.599C252.572 101.616 252.793 101.584 252.999 101.504C253.206 101.425 253.392 101.301 253.544 101.14C253.696 100.98 253.81 100.787 253.879 100.577C253.947 100.367 253.967 100.144 253.938 99.9246V97.3223L254.827 97.3778Z" fill="#263238"/>
<path d="M260.356 102.122C260.041 102.364 259.651 102.488 259.254 102.471C259.039 102.495 258.823 102.471 258.619 102.399C258.416 102.328 258.231 102.212 258.079 102.06C257.926 101.907 257.81 101.722 257.739 101.519C257.668 101.316 257.643 101.099 257.667 100.885V98.1157H256.81V97.3699H257.667V96.2671H258.579V97.3699H260.023V98.1157H258.579V100.853C258.563 100.963 258.572 101.075 258.606 101.181C258.64 101.287 258.697 101.384 258.773 101.465C258.849 101.546 258.943 101.608 259.047 101.648C259.15 101.688 259.262 101.703 259.373 101.694C259.631 101.7 259.884 101.616 260.087 101.456L260.356 102.122Z" fill="#263238"/>
<path d="M265.236 97.5602C265.236 96.9493 264.728 96.5288 263.871 96.5288C263.548 96.5097 263.226 96.5682 262.931 96.6993C262.635 96.8305 262.376 97.0304 262.173 97.2826L261.475 96.7907C261.772 96.4289 262.15 96.1431 262.579 95.9568C263.008 95.7705 263.476 95.6892 263.943 95.7196C265.307 95.7196 266.196 96.3622 266.196 97.4174C266.196 99.0042 264.514 99.1073 264.514 100.353H263.562C263.562 98.8217 265.236 98.6154 265.236 97.5602ZM263.427 101.908C263.424 101.785 263.457 101.664 263.523 101.56C263.589 101.456 263.685 101.374 263.798 101.325C263.91 101.276 264.035 101.261 264.156 101.283C264.277 101.305 264.389 101.363 264.477 101.449C264.565 101.535 264.626 101.645 264.651 101.765C264.676 101.886 264.665 102.011 264.619 102.125C264.572 102.239 264.493 102.337 264.391 102.405C264.289 102.474 264.169 102.511 264.046 102.511C263.961 102.515 263.877 102.5 263.799 102.469C263.721 102.438 263.65 102.39 263.591 102.329C263.533 102.268 263.488 102.196 263.459 102.116C263.431 102.037 263.42 101.952 263.427 101.868V101.908Z" fill="#263238"/>
</g>
<path d="M179.201 82.8987V91.3006" stroke="#263238" stroke-miterlimit="10"/>
<path d="M187.207 53.8372V60.5016H186.413L182.446 55.535V60.5016H181.494V53.8372H182.288L186.254 58.8037V53.8372H187.207Z" fill="black"/>
<path d="M189.864 53.9243C189.864 53.7601 189.93 53.6027 190.046 53.4867C190.162 53.3706 190.319 53.3054 190.483 53.3054C190.647 53.3054 190.805 53.3706 190.921 53.4867C191.037 53.6027 191.102 53.7601 191.102 53.9243C191.103 54.0055 191.088 54.086 191.057 54.1612C191.026 54.2363 190.981 54.3045 190.923 54.3615C190.865 54.4186 190.796 54.4633 190.721 54.4932C190.645 54.523 190.565 54.5373 190.483 54.5352C190.402 54.5385 190.321 54.525 190.245 54.4955C190.168 54.4661 190.099 54.4214 190.041 54.3641C189.983 54.3068 189.938 54.2382 189.907 54.1625C189.877 54.0869 189.862 54.0058 189.864 53.9243ZM190.023 55.511H190.936V60.5569H190.023V55.511Z" fill="black"/>
<path d="M193.165 57.9784C193.158 57.6308 193.223 57.2854 193.355 56.964C193.488 56.6425 193.686 56.352 193.936 56.1106C194.187 55.8692 194.484 55.6822 194.81 55.5613C195.136 55.4404 195.484 55.3881 195.831 55.4079C196.239 55.3835 196.646 55.4711 197.009 55.6613C197.371 55.8514 197.674 56.1369 197.886 56.4869L197.195 56.9312C197.048 56.7035 196.844 56.5175 196.603 56.3911C196.363 56.2647 196.094 56.202 195.823 56.2092C195.373 56.2393 194.952 56.4392 194.644 56.7684C194.336 57.0977 194.164 57.5316 194.164 57.9824C194.164 58.4332 194.336 58.8672 194.644 59.1964C194.952 59.5256 195.373 59.7255 195.823 59.7556C196.094 59.7628 196.363 59.7001 196.603 59.5737C196.844 59.4473 197.048 59.2614 197.195 59.0336L197.886 59.47C197.674 59.8208 197.371 60.1074 197.009 60.2989C196.647 60.4904 196.24 60.5796 195.831 60.5569C195.483 60.5756 195.136 60.5223 194.81 60.4004C194.483 60.2786 194.186 60.0908 193.936 59.8488C193.686 59.6068 193.488 59.3158 193.355 58.994C193.223 58.6722 193.158 58.3264 193.165 57.9784Z" fill="black"/>
<path d="M201.916 58.1531L200.868 59.1211V60.5015H199.956V53.4404H200.868V57.9706L203.622 55.4556H204.724L202.598 57.5422L204.931 60.5015H203.812L201.916 58.1531Z" fill="black"/>
<path d="M211.492 57.5977V60.5015H210.58V57.7008C210.58 56.7091 210.08 56.2252 209.215 56.2252C208.995 56.2093 208.774 56.2425 208.568 56.3224C208.363 56.4022 208.177 56.5267 208.026 56.6868C207.874 56.8469 207.759 57.0387 207.691 57.2484C207.622 57.458 207.601 57.6803 207.628 57.8992V60.5015H206.716V55.4556H207.589V56.249C207.806 55.9811 208.084 55.7693 208.4 55.6313C208.717 55.4932 209.061 55.433 209.405 55.4556C209.69 55.4344 209.975 55.4758 210.242 55.5768C210.508 55.6778 210.749 55.8359 210.948 56.0401C211.147 56.2443 211.299 56.4895 211.393 56.7586C211.487 57.0277 211.521 57.3141 211.492 57.5977Z" fill="black"/>
<path d="M218.14 57.4549V60.5015H217.268V59.835C217.075 60.0844 216.823 60.2813 216.535 60.4075C216.247 60.5337 215.931 60.5851 215.617 60.557C214.475 60.557 213.753 59.9461 213.753 59.0734C213.753 58.2007 214.277 57.5977 215.776 57.5977H217.228V57.4152C217.228 56.6218 216.776 56.2013 215.871 56.2013C215.297 56.1964 214.737 56.3866 214.284 56.7408L213.904 56.0585C214.504 55.6149 215.236 55.3858 215.982 55.408C217.355 55.408 218.14 56.0744 218.14 57.4549ZM217.228 58.9544V58.2562H215.816C214.911 58.2562 214.657 58.6053 214.657 59.0496C214.657 59.4939 215.07 59.843 215.768 59.843C216.074 59.8658 216.379 59.7924 216.641 59.633C216.902 59.4737 217.108 59.2364 217.228 58.9544Z" fill="black"/>
<path d="M229.161 57.5977V60.5015H228.248V57.7009C228.248 56.7092 227.772 56.2252 226.947 56.2252C226.731 56.2146 226.516 56.252 226.316 56.3347C226.117 56.4175 225.938 56.5434 225.793 56.7036C225.648 56.8637 225.541 57.054 225.478 57.2608C225.416 57.4676 225.4 57.6856 225.432 57.8992V60.5015H224.519V57.7009C224.519 56.7092 224.043 56.2252 223.21 56.2252C222.377 56.2252 221.703 56.8044 221.703 57.8992V60.5015H220.767V55.4556H221.639V56.2093C221.842 55.9447 222.106 55.734 222.409 55.5956C222.712 55.4573 223.044 55.3956 223.377 55.4159C223.728 55.3907 224.078 55.4652 224.389 55.6309C224.699 55.7966 224.956 56.0466 225.13 56.3521C225.352 56.0475 225.645 55.8026 225.984 55.6392C226.323 55.4758 226.698 55.3991 227.074 55.4159C227.363 55.3909 227.653 55.431 227.924 55.5332C228.195 55.6354 228.44 55.7972 228.64 56.0066C228.841 56.216 228.991 56.4676 229.081 56.743C229.171 57.0184 229.198 57.3105 229.161 57.5977Z" fill="black"/>
<path d="M236.373 58.2801H232.279C232.335 58.7137 232.555 59.1091 232.895 59.384C233.235 59.6589 233.668 59.7921 234.104 59.7558C234.377 59.7657 234.649 59.7162 234.901 59.6107C235.153 59.5052 235.379 59.3463 235.563 59.1449L236.063 59.74C235.691 60.1183 235.217 60.3806 234.699 60.4951C234.18 60.6095 233.64 60.5713 233.143 60.3849C232.646 60.1985 232.213 59.872 231.898 59.4449C231.583 59.0179 231.398 58.5085 231.366 57.9787C231.352 57.6406 231.408 57.3033 231.529 56.9876C231.651 56.6719 231.836 56.3846 232.073 56.1435C232.311 55.9025 232.595 55.7128 232.909 55.5863C233.223 55.4597 233.559 55.3991 233.897 55.4081C234.236 55.3996 234.573 55.4619 234.887 55.5912C235.2 55.7204 235.484 55.9137 235.718 56.1587C235.953 56.4036 236.133 56.6949 236.249 57.0138C236.364 57.3326 236.412 57.6721 236.389 58.0104C236.389 58.0818 236.381 58.2008 236.373 58.2801ZM232.279 57.6296H235.516C235.476 57.228 235.288 56.8555 234.989 56.5846C234.69 56.3136 234.301 56.1636 233.897 56.1636C233.494 56.1636 233.105 56.3136 232.805 56.5846C232.506 56.8555 232.319 57.228 232.279 57.6296Z" fill="black"/>
<path d="M333.179 56.3996C338.25 35.3922 325.33 14.2518 304.323 9.18121C283.315 4.11062 262.175 17.03 257.104 38.0374C252.034 59.0448 264.953 80.1852 285.961 85.2558C306.968 90.3264 328.108 77.4071 333.179 56.3996Z" fill="#263238"/>
<path d="M335.504 52.2146C338.884 31.7044 324.998 12.337 304.488 8.95628C283.978 5.57555 264.61 19.4617 261.23 39.9719C257.849 60.4821 271.735 79.8495 292.245 83.2302C312.756 86.611 332.123 72.7248 335.504 52.2146Z" fill="white" stroke="#263238" stroke-miterlimit="10"/>
<path d="M326.842 70.6646C323.345 74.729 319.019 77.9982 314.154 80.2528C309.289 82.5075 303.999 83.6953 298.637 83.7366C293.275 83.778 287.967 82.6718 283.068 80.4925C278.169 78.3131 273.793 75.111 270.234 71.101C271.749 68.6256 274.121 66.4121 276.811 65.9599C277.895 65.775 278.967 65.5314 280.024 65.23C280.278 65.1665 280.524 65.0951 280.77 65.0157C281.468 64.8015 282.158 64.5635 282.833 64.3017C283.174 64.1668 283.507 64.032 283.84 63.8812C284.174 63.7305 284.586 63.5559 284.959 63.3814C285.332 63.2068 285.689 63.0164 286.046 62.826C286.403 62.6356 286.76 62.4372 287.109 62.231C287.458 62.0247 287.807 61.8105 288.148 61.5883C288.49 61.3662 288.712 61.2154 288.989 61.0171C289.088 60.9564 289.184 60.8902 289.275 60.8187C289.561 60.6125 289.838 60.3983 290.116 60.184C290.441 59.9302 290.751 59.6763 291.06 59.3907C291.37 59.105 291.663 58.8512 291.965 58.5973C292.544 58.0419 293.107 57.4548 293.639 56.836L295.733 56.4789L296.051 56.4234L304.064 55.0509L306.674 54.5986L307.348 54.4875C308.229 56.4472 310.086 57.7166 312.109 58.5497L312.37 58.6607C312.862 58.8591 313.362 59.0257 313.862 59.1764C316.512 59.9698 319.328 60.4379 321.629 61.9692C324.549 63.8891 326.096 67.1737 326.842 70.6646Z" fill="#7D18F7"/>
<path d="M293.805 56.1776C292.463 57.7251 290.668 58.8102 288.674 59.2788C286.68 59.7474 284.589 59.5756 282.698 58.7878C282.535 59.3409 282.488 59.9219 282.56 60.494C282.632 61.0662 282.823 61.6171 283.119 62.1121C282.489 61.7767 281.959 61.2809 281.583 60.6748C281.207 60.0687 280.998 59.3739 280.976 58.6609C280.477 59.7513 280.166 60.9181 280.056 62.1121C276.303 62.8341 272.321 60.6444 270.456 57.3042C269.579 55.5904 269.105 53.6986 269.07 51.7735C269.036 49.8484 269.442 47.9409 270.258 46.1969L268.147 48.9658C267.465 47.2917 268.028 45.3638 268.941 43.8167C269.853 42.2696 271.138 40.9526 272.067 39.4055C274.526 35.264 274.201 30.1229 274.978 25.3785C275.161 23.5893 275.822 21.8822 276.89 20.4357C278.041 19.0711 280.016 18.2539 281.651 18.9124C281.944 16.683 284.753 15.6437 286.839 14.7948C290.291 13.4063 293.98 12.0417 297.645 12.6844C303.524 13.7157 307.444 19.4995 313.069 21.475C315.98 22.4985 319.162 22.435 322.137 23.2522C325.112 24.0694 328.127 26.2433 328.318 29.3216L325.144 27.6634C327.447 30.6349 328.792 34.2365 329 37.9901C329.209 41.7438 328.27 45.4721 326.31 48.6801L325.715 45.7526C326.048 47.1727 324.874 48.4739 323.732 49.3862C320.598 51.8854 316.663 53.734 312.68 53.2738C311.506 53.139 310.355 52.8057 309.181 52.6153C305.764 52.1019 302.276 52.7918 299.311 54.567C297.667 55.6178 295.757 56.1766 293.805 56.1776Z" fill="#263238"/>
<path d="M295.202 49.4892C294.067 51.076 292.235 55.8363 291.806 59.8032C291.378 63.7701 291.806 70.2758 292.798 70.2758C293.79 70.2758 295.487 61.7866 295.487 61.7866C295.487 61.7866 296.194 65.0395 297.868 66.0312C299.542 67.023 302.533 73.6636 302.533 73.6636C302.533 73.6636 306.5 66.4517 307.055 64.0478C307.61 61.6438 307.769 60.5172 308.475 61.3582C309.733 63.3389 310.821 65.4224 311.728 67.5863C312.434 69.2841 312.997 62.0326 312.006 58.0657C311.014 54.0987 308.753 51.425 308.475 50.4333C308.197 49.4416 306.635 48.4498 306.635 48.4498C301.144 42.6978 296.336 47.9342 295.202 49.4892Z" fill="white" stroke="#263238" stroke-linecap="round" stroke-linejoin="round"/>
<path d="M294.067 51.8931C295.184 54.4442 296.037 57.1026 296.614 59.8269C297.32 63.651 301.85 71.9974 302.557 73.6873C303.263 75.3773 305.389 68.3161 306.23 63.5082C307.071 58.7003 306.04 47.0535 306.04 47.0535C302.081 52.2739 294.067 51.8931 294.067 51.8931Z" fill="white" stroke="#263238" stroke-linecap="round" stroke-linejoin="round"/>
<path d="M285.777 25.6242C285.072 27.3259 284.277 28.9891 283.396 30.6067C282.659 32.0427 281.643 33.5501 281.81 35.2321C281.976 36.9141 286.649 46.3395 288.633 48.4895C290.616 50.6396 297.447 56.0029 300.399 53.9956C306.928 49.5527 306.341 36.3905 305.643 34.2404C304.945 32.0903 304.056 32.6536 304.056 32.6536C303.691 32.8837 302.747 32.122 302.398 31.9792C300.383 31.1303 298.177 31.0748 296.138 30.2417C293.954 29.3855 291.991 28.0487 290.394 26.3304C289.125 24.9023 288.014 23.26 286.054 22.7205C286.657 22.8871 286.292 24.2755 285.777 25.6242Z" fill="white" stroke="#263238" stroke-linecap="round" stroke-linejoin="round"/>
<path d="M287.093 36.589C287.304 36.2354 287.585 35.9291 287.919 35.6894C288.253 35.4497 288.634 35.2817 289.036 35.196C289.438 35.1104 289.854 35.1088 290.257 35.1915C290.66 35.2742 291.041 35.4394 291.378 35.6766" stroke="#263238" stroke-linecap="round" stroke-linejoin="round"/>
<path d="M299.311 32.2652C295.575 31.0989 295.003 34.0106 295.003 34.0106" stroke="#263238" stroke-linecap="round" stroke-linejoin="round"/>
<path d="M291.528 39.1756C291.679 39.8182 291.568 40.3974 291.274 40.4688C290.981 40.5402 290.616 40.0721 290.481 39.4215C290.346 38.7709 290.441 38.1997 290.735 38.1283C291.028 38.0569 291.378 38.525 291.528 39.1756Z" fill="#263238"/>
<path d="M299.177 37.2633C299.327 37.9138 299.216 38.493 298.923 38.5644C298.629 38.6358 298.264 38.1598 298.129 37.5172C297.995 36.8745 298.09 36.2874 298.383 36.2239C298.677 36.1605 299.018 36.6365 299.177 37.2633Z" fill="#263238"/>
<path d="M295.035 35.8352C295.035 39.6752 297.582 42.1267 297.415 43.4834C297.412 43.5144 297.401 43.544 297.384 43.57C297.367 43.596 297.344 43.6176 297.317 43.6331C297.29 43.6485 297.259 43.6574 297.228 43.659C297.197 43.6605 297.166 43.6548 297.138 43.6421C296.551 43.3327 295.852 42.8487 295.273 42.5472" stroke="#263238" stroke-linecap="round" stroke-linejoin="round"/>
<path d="M292.528 45.8318C293.087 46.5324 293.823 47.0704 294.66 47.3899C295.497 47.7094 296.405 47.7988 297.288 47.6486" stroke="#263238" stroke-linecap="round" stroke-linejoin="round"/>
<path d="M294.813 53.702C294.813 53.702 298.185 61.4693 300.978 60.7949C303.77 60.1205 305.413 47.3708 305.413 47.3708C305.413 47.3708 302.096 53.5989 299.327 54.5668C297.027 55.3761 294.813 53.702 294.813 53.702Z" fill="#263238"/>
<path d="M291.972 58.5815C291.679 58.8592 291.377 59.1369 291.068 59.3749C290.759 59.6129 290.449 59.9065 290.124 60.1683C289.854 60.3905 289.569 60.5967 289.283 60.803C289.191 60.8744 289.096 60.9406 288.997 61.0014C288.72 61.2076 288.442 61.3901 288.156 61.5726C287.871 61.7551 287.474 62.0169 287.117 62.2152C286.76 62.4136 286.411 62.6278 286.054 62.8103C285.697 62.9927 285.332 63.1911 284.967 63.3656C284.602 63.5402 284.229 63.7147 283.848 63.8655C283.467 64.0162 283.182 64.159 282.841 64.286C282.166 64.5478 281.476 64.7858 280.778 65C280.532 65.0793 280.278 65.1508 280.032 65.2142C278.975 65.5156 277.902 65.7593 276.819 65.9441C274.129 66.3964 271.757 68.6099 270.242 71.0853" stroke="#263238" stroke-linecap="round" stroke-linejoin="round"/>
<path d="M326.842 70.6646C326.096 67.1738 324.549 63.8891 321.646 61.9374C319.345 60.4062 316.528 59.946 313.878 59.1447C313.379 58.994 312.879 58.8274 312.387 58.629L312.125 58.5259" stroke="#263238" stroke-linecap="round" stroke-linejoin="round"/>
<path d="M304.294 78.202C304.294 79.0827 303.802 79.7888 303.199 79.7888C302.596 79.7888 302.104 79.0827 302.104 78.202C302.104 77.3213 302.596 76.6152 303.199 76.6152C303.802 76.6152 304.294 77.3213 304.294 78.202Z" fill="#263238"/>
<path d="M280.786 70.7917C282.636 74.0593 284.006 77.5755 284.856 81.2327" stroke="#263238" stroke-linecap="round" stroke-linejoin="round"/>
<path d="M284.523 71.1646L285.57 76.9245" stroke="#263238" stroke-linecap="round" stroke-linejoin="round"/>
<path d="M335.504 52.2146C338.884 31.7044 324.998 12.337 304.488 8.95628C283.978 5.57555 264.61 19.4617 261.23 39.9719C257.849 60.4821 271.735 79.8495 292.245 83.2302C312.756 86.611 332.123 72.7248 335.504 52.2146Z" stroke="#263238" stroke-miterlimit="10"/>
<path d="M224.884 288.972V316.875C224.884 318.875 242.172 323.572 264.157 323.572C286.141 323.572 304.492 318.875 304.492 316.875V288.972H224.884Z" fill="white" stroke="#263238" stroke-miterlimit="10"/>
<path d="M224.884 306.276C224.884 308.275 242.172 312.98 264.157 312.98C286.141 312.98 304.492 308.275 304.492 306.276" fill="white"/>
<path d="M224.884 306.276C224.884 308.275 242.172 312.98 264.157 312.98C286.141 312.98 304.492 308.275 304.492 306.276" stroke="#263238" stroke-width="2" stroke-miterlimit="10"/>
<path d="M304.492 288.972C304.492 289.845 301.12 290.956 295.495 291.923C275.069 294.991 254.299 294.991 233.873 291.923C228.256 290.956 224.884 289.845 224.884 288.972C224.884 286.965 242.704 285.354 264.68 285.354C286.657 285.354 304.492 286.965 304.492 288.972Z" fill="#7D18F7" stroke="#263238" stroke-miterlimit="10"/>
<path d="M295.495 291.939C275.069 295.007 254.299 295.007 233.873 291.939C239.673 290.924 251.327 290.234 264.68 290.234C278.033 290.234 289.695 290.908 295.495 291.939Z" fill="#263238"/>
<path d="M278.922 165.744C278.922 165.744 278.922 161.634 273.17 155.89C267.418 150.146 263.729 146.845 263.729 146.845C263.729 146.845 260.849 156.294 266.188 162.054C270.114 166.107 274.374 169.822 278.922 173.162V165.744Z" fill="#7D18F7"/>
<path d="M270.576 191.402C270.576 191.402 270.576 187.292 264.824 181.548C259.072 175.804 255.374 172.503 255.374 172.503C255.374 172.503 252.502 181.952 257.842 187.704C261.754 191.757 266 195.473 270.536 198.812L270.576 191.402Z" fill="#7D18F7"/>
<path d="M278.557 172.749C278.557 172.749 279.001 168.656 285.324 163.546C291.648 158.437 295.638 155.557 295.638 155.557C295.638 155.557 297.503 165.26 291.584 170.409C287.261 174.01 282.643 177.243 277.779 180.072L278.557 172.749Z" fill="#7D18F7"/>
<path d="M268.481 203.08C268.481 203.08 269.337 199.066 276.168 194.647C282.999 190.228 287.276 187.784 287.276 187.784C287.276 187.784 288.109 197.63 281.682 202.136C276.995 205.272 272.053 208.011 266.91 210.324L268.481 203.08Z" fill="#7D18F7"/>
<path d="M270.377 236.077C270.377 236.077 270.377 231.967 276.121 226.215C281.865 220.463 285.57 217.179 285.57 217.179C285.57 217.179 288.45 226.628 283.111 232.372C279.186 236.426 274.927 240.142 270.377 243.479V236.077Z" fill="#7D18F7"/>
<path d="M270.282 244.138C270.282 244.138 270.861 240.068 265.99 233.562C261.118 227.057 257.945 223.248 257.945 223.248C257.945 223.248 253.748 232.182 258.223 238.608C261.534 243.173 265.223 247.451 269.251 251.398L270.282 244.138Z" fill="#7D18F7"/>
<path d="M264.601 268.066C264.601 268.066 264.601 263.957 270.361 258.213C276.121 252.468 279.802 249.168 279.802 249.168C279.802 249.168 282.651 258.617 277.335 264.369C273.407 268.419 269.147 272.135 264.601 275.477V268.066Z" fill="#7D18F7"/>
<path d="M279.826 282.95C277.639 286.808 275.201 290.519 272.527 294.058C271.781 294.058 271.02 294.113 270.258 294.129H269.608L268.505 289.908L268.441 289.67C268.233 288.417 268.288 287.133 268.6 285.902C268.947 284.215 269.509 282.581 270.274 281.038C270.623 280.3 271.067 279.515 271.512 278.698C275.621 271.708 278.359 267.59 278.359 267.59C278.359 267.59 283.539 276 279.826 282.95Z" fill="#7D18F7"/>
<path d="M269.417 294.169C269.02 292.844 268.624 291.487 268.235 290.13C267.933 289.075 267.64 288.02 267.346 286.957C267.053 285.894 266.791 284.934 266.553 283.95C265.672 280.641 264.966 277.674 264.609 275.556C264.248 273.288 264.248 270.977 264.609 268.709C264.768 267.63 264.99 266.543 265.26 265.44C266.267 261.251 267.886 256.769 269.092 251.239C269.354 250.064 269.592 248.858 269.798 247.589V247.438C269.909 246.732 270.02 246.002 270.115 245.257C270.115 245.066 270.163 244.884 270.179 244.693C270.218 244.352 270.258 244.011 270.282 243.662V243.622C270.321 243.241 270.345 242.829 270.361 242.48C270.437 240.994 270.437 239.506 270.361 238.021C269.885 228.024 266.537 218.313 267.188 210.118C267.259 209.187 267.391 208.262 267.584 207.349C268.074 205.125 268.71 202.935 269.488 200.795C269.742 200.057 270.02 199.328 270.282 198.598C270.282 198.55 270.282 198.502 270.337 198.447C270.393 198.391 270.448 198.169 270.496 198.034C273.075 191.576 276.24 185.475 277.795 177.406C277.986 176.359 278.16 175.32 278.319 174.273V174.233C278.382 173.773 278.454 173.313 278.517 172.852C278.517 172.598 278.589 172.337 278.62 172.059C278.708 171.456 278.779 170.837 278.842 170.234C279.065 168.37 279.231 166.497 279.366 164.625" stroke="#263238" stroke-linecap="round" stroke-linejoin="round"/>
<path d="M278.501 175.471L284.706 170.718" stroke="#263238" stroke-linecap="round" stroke-linejoin="round"/>
<path d="M278.795 169.996L276.2 165.379" stroke="#263238" stroke-linecap="round" stroke-linejoin="round"/>
<path d="M267.981 206.897C267.981 206.897 273.17 203.001 278.501 199.114" stroke="#263238" stroke-linecap="round" stroke-linejoin="round"/>
<path d="M270.575 198.796C270.575 198.796 266.251 190.323 261.348 184.69" stroke="#263238" stroke-linecap="round" stroke-linejoin="round"/>
<path d="M270.583 241.956C273.547 236.505 277.288 231.515 281.69 227.144" stroke="#263238" stroke-linecap="round" stroke-linejoin="round"/>
<path d="M269.568 247.684C267.996 243.978 266.114 240.411 263.943 237.021C260.92 232.554 260.483 231.975 260.483 231.975" stroke="#263238" stroke-linecap="round" stroke-linejoin="round"/>
<path d="M264.601 275.588C265.918 272.324 267.48 269.166 269.274 266.138C271.071 263.33 273.098 260.676 275.336 258.205" stroke="#263238" stroke-linecap="round" stroke-linejoin="round"/>
<path d="M270.258 294.153C270.332 291.933 270.873 289.755 271.845 287.758C274.042 283.577 276.462 278.095 277.47 275.937" stroke="#263238" stroke-linecap="round" stroke-linejoin="round"/>
<path d="M241.268 220.63C241.268 220.63 240.815 218.052 243.799 213.823C246.782 209.594 248.741 207.127 248.741 207.127C248.741 207.127 251.574 212.736 248.844 216.933C246.821 219.895 244.552 222.682 242.061 225.263L241.268 220.63Z" fill="#7D18F7"/>
<path d="M249.281 235.807C249.281 235.807 248.836 233.229 251.82 229.008C254.803 224.787 256.762 222.304 256.762 222.304C256.762 222.304 259.587 227.921 256.865 232.102C254.855 235.066 252.599 237.855 250.122 240.441L249.281 235.807Z" fill="#7D18F7"/>
<path d="M242.244 224.978C242.244 224.978 241.514 222.455 237.007 219.94C232.501 217.425 229.653 216.06 229.653 216.06C229.653 216.06 229.542 222.344 233.85 224.914C236.954 226.71 240.206 228.238 243.569 229.484L242.244 224.978Z" fill="#7D18F7"/>
<path d="M251.86 242.877C251.86 242.877 250.884 240.457 246.124 238.426C241.363 236.395 238.396 235.332 238.396 235.332C238.396 235.332 238.943 241.591 243.458 243.718C246.734 245.174 250.125 246.355 253.597 247.248L251.86 242.877Z" fill="#7D18F7"/>
<path d="M254.255 263.806C254.255 263.806 253.811 261.219 249.582 258.252C245.354 255.285 242.68 253.611 242.68 253.611C242.68 253.611 241.887 259.847 245.854 262.878C248.76 264.975 251.833 266.832 255.041 268.431L254.255 263.806Z" fill="#7D18F7"/>
<path d="M255.192 268.844C255.192 268.844 254.398 266.353 256.731 261.751C259.063 257.149 260.698 254.436 260.698 254.436C260.698 254.436 264.3 259.593 262.165 264.115C260.573 267.337 258.715 270.42 256.612 273.334L255.192 268.844Z" fill="#7D18F7"/>
<path d="M262.411 289.623C262.411 289.623 262.713 287.028 266.799 283.767C270.885 280.507 273.432 278.745 273.432 278.745C273.432 278.745 274.566 284.926 270.774 288.171C267.995 290.446 265.031 292.484 261.912 294.264L262.411 289.623Z" fill="#7D18F7"/>
<path d="M261.34 283.212C261.34 283.212 260.896 280.642 256.667 277.659C252.439 274.676 249.765 273.017 249.765 273.017C249.765 273.017 248.972 279.253 252.938 282.276C255.844 284.38 258.92 286.237 262.134 287.83L261.34 283.212Z" fill="#7D18F7"/>
<path d="M260.491 294.185C259.412 294.185 258.333 294.137 257.278 294.097C255.898 294.058 254.549 293.994 253.224 293.931C250.431 290.019 252.669 284.41 252.669 284.41C252.669 284.41 254.827 286.679 258.167 290.654C259.092 291.724 259.874 292.911 260.491 294.185Z" fill="#7D18F7"/>
<path opacity="0.2" d="M278.922 165.744C278.922 165.744 278.922 161.634 273.17 155.89C267.418 150.146 263.729 146.845 263.729 146.845C263.729 146.845 260.849 156.294 266.188 162.054C270.114 166.107 274.374 169.822 278.922 173.162V165.744Z" fill="black"/>
<path opacity="0.2" d="M270.576 191.402C270.576 191.402 270.576 187.292 264.824 181.548C259.072 175.804 255.374 172.503 255.374 172.503C255.374 172.503 252.502 181.952 257.842 187.704C261.754 191.757 266 195.473 270.536 198.812L270.576 191.402Z" fill="black"/>
<path opacity="0.2" d="M278.557 172.749C278.557 172.749 279.001 168.656 285.324 163.546C291.648 158.437 295.638 155.557 295.638 155.557C295.638 155.557 297.503 165.26 291.584 170.409C287.261 174.01 282.643 177.243 277.779 180.072L278.557 172.749Z" fill="black"/>
<path opacity="0.2" d="M268.481 203.08C268.481 203.08 269.337 199.066 276.168 194.647C282.999 190.228 287.276 187.784 287.276 187.784C287.276 187.784 288.109 197.63 281.682 202.136C276.995 205.272 272.053 208.011 266.91 210.324L268.481 203.08Z" fill="black"/>
<path opacity="0.2" d="M270.377 236.077C270.377 236.077 270.377 231.967 276.121 226.215C281.865 220.463 285.57 217.179 285.57 217.179C285.57 217.179 288.45 226.628 283.111 232.372C279.186 236.426 274.927 240.142 270.377 243.479V236.077Z" fill="black"/>
<path opacity="0.2" d="M264.601 268.066C264.601 268.066 264.601 263.957 270.361 258.213C276.121 252.468 279.802 249.168 279.802 249.168C279.802 249.168 282.651 258.617 277.335 264.369C273.407 268.419 269.147 272.135 264.601 275.477V268.066Z" fill="black"/>
<path opacity="0.2" d="M241.268 220.63C241.268 220.63 240.815 218.052 243.799 213.823C246.782 209.594 248.741 207.127 248.741 207.127C248.741 207.127 251.574 212.736 248.844 216.933C246.821 219.895 244.552 222.682 242.061 225.263L241.268 220.63Z" fill="black"/>
<path opacity="0.2" d="M265.989 233.562C261.11 227.048 257.944 223.248 257.944 223.248C257.944 223.248 257.762 223.629 257.516 224.287C257.322 223.596 257.07 222.921 256.762 222.272C256.762 222.272 254.803 224.748 251.82 228.976C248.836 233.205 249.281 235.776 249.281 235.776L250.074 240.409C252.308 238.086 254.363 235.598 256.223 232.967C256.385 234.989 257.071 236.933 258.214 238.608C261.526 243.172 265.215 247.451 269.242 251.397L270.274 244.106C270.274 244.106 270.861 240.068 265.989 233.562Z" fill="black"/>
<path opacity="0.2" d="M242.244 224.978C242.244 224.978 241.514 222.455 237.007 219.94C232.501 217.425 229.653 216.06 229.653 216.06C229.653 216.06 229.542 222.344 233.85 224.914C236.954 226.71 240.206 228.238 243.569 229.484L242.244 224.978Z" fill="black"/>
<path opacity="0.2" d="M251.86 242.877C251.86 242.877 250.884 240.457 246.124 238.426C241.363 236.395 238.396 235.332 238.396 235.332C238.396 235.332 238.943 241.591 243.458 243.718C246.734 245.174 250.125 246.355 253.597 247.248L251.86 242.877Z" fill="black"/>
<path opacity="0.2" d="M254.255 263.806C254.255 263.806 253.811 261.219 249.582 258.252C245.354 255.285 242.68 253.611 242.68 253.611C242.68 253.611 241.887 259.847 245.854 262.878C248.76 264.975 251.833 266.832 255.041 268.431L254.255 263.806Z" fill="black"/>
<path opacity="0.2" d="M255.192 268.844C255.192 268.844 254.398 266.353 256.731 261.751C259.063 257.149 260.698 254.436 260.698 254.436C260.698 254.436 264.3 259.593 262.165 264.115C260.573 267.337 258.715 270.42 256.612 273.334L255.192 268.844Z" fill="black"/>
<path opacity="0.2" d="M278.358 267.59C278.358 267.59 275.621 271.74 271.512 278.698C271.036 279.491 270.623 280.284 270.274 281.038C269.298 281.776 268.132 282.673 266.799 283.736C262.713 286.996 262.411 289.591 262.411 289.591L261.912 294.232C264.195 292.927 266.397 291.482 268.505 289.908L269.607 294.129H270.258C271.051 294.129 271.781 294.089 272.527 294.058C275.2 290.519 277.639 286.808 279.826 282.95C283.539 276 278.358 267.59 278.358 267.59Z" fill="black"/>
<path opacity="0.2" d="M261.34 283.212C261.34 283.212 260.896 280.642 256.667 277.659C252.439 274.676 249.765 273.017 249.765 273.017C249.765 273.017 248.972 279.253 252.938 282.276C255.844 284.38 258.92 286.237 262.134 287.83L261.34 283.212Z" fill="black"/>
<path opacity="0.2" d="M260.491 294.185C259.412 294.185 258.333 294.137 257.278 294.097C255.898 294.058 254.549 293.994 253.224 293.931C250.431 290.019 252.669 284.41 252.669 284.41C252.669 284.41 254.827 286.679 258.167 290.654C259.092 291.724 259.874 292.911 260.491 294.185Z" fill="black"/>
<path d="M261.785 294.201C262.015 291.717 262.165 289.44 262.157 287.949C262.134 286.507 261.885 285.077 261.42 283.712C261.205 283.03 260.928 282.339 260.626 281.641C259.531 279.142 258.04 276.524 256.699 273.216C256.366 272.422 256.048 271.581 255.763 270.685C255.636 270.32 255.509 269.939 255.39 269.558C255.394 269.503 255.394 269.447 255.39 269.391C255.303 269.114 255.231 268.836 255.152 268.558C255.08 268.312 255.025 268.059 254.969 267.765C254.787 266.972 254.652 266.131 254.541 265.305C253.7 258.911 254.771 252.342 253.438 247.2C253.288 246.627 253.105 246.063 252.891 245.511C252.345 244.174 251.712 242.876 250.995 241.623C250.749 241.179 250.495 240.75 250.201 240.33C250.189 240.3 250.176 240.271 250.161 240.243C250.106 240.147 250.058 240.068 250.003 239.989C247.694 236.212 245.044 232.737 243.196 227.85C242.958 227.215 242.735 226.573 242.521 225.914C242.505 225.881 242.491 225.846 242.482 225.811C242.402 225.565 242.323 225.327 242.251 225.073C242.204 224.946 242.156 224.811 242.117 224.676C241.99 224.28 241.871 223.883 241.752 223.486C241.41 222.344 241.101 221.193 240.815 220.027" stroke="#263238" stroke-linecap="round" stroke-linejoin="round"/>
<path d="M242.585 226.675L238.182 224.367" stroke="#263238" stroke-linecap="round" stroke-linejoin="round"/>
<path d="M241.807 223.28L242.934 220.106" stroke="#263238" stroke-linecap="round" stroke-linejoin="round"/>
<path d="M252.589 245.241C252.589 245.241 248.932 243.368 245.147 241.504" stroke="#263238" stroke-linecap="round" stroke-linejoin="round"/>
<path d="M250.122 240.441C251.2 237.026 252.623 233.73 254.367 230.603" stroke="#263238" stroke-linecap="round" stroke-linejoin="round"/>
<path d="M254.763 267.487C252.313 264.394 249.427 261.674 246.195 259.411" stroke="#263238" stroke-linecap="round" stroke-linejoin="round"/>
<path d="M256.025 270.994C256.611 268.493 257.408 266.046 258.405 263.679C259.825 260.553 259.992 260.141 259.992 260.141" stroke="#263238" stroke-linecap="round" stroke-linejoin="round"/>
<path d="M261.967 292.399C263.406 290.625 264.999 288.981 266.728 287.488C267.824 286.678 268.853 285.782 269.806 284.807" stroke="#263238" stroke-linecap="round" stroke-linejoin="round"/>
<path d="M262.158 287.972C260.977 286.066 259.651 284.255 258.191 282.554C256.761 280.99 255.203 279.549 253.534 278.246" stroke="#263238" stroke-linecap="round" stroke-linejoin="round"/>
<path d="M254.137 289.559C254.748 290.432 255.977 292.257 257.31 294.09" stroke="#263238" stroke-linecap="round" stroke-linejoin="round"/>
<path d="M187.563 311.06C180.359 306.006 172.053 297.826 169.315 285.917C167.122 291.583 164.165 296.921 160.525 301.785C155.391 308.431 148.279 313.273 140.214 315.614C138.239 316.217 137.128 316.891 137.128 317.605C137.128 320.136 151.076 322.191 168.284 322.191C185.493 322.191 199.448 320.136 199.448 317.605C199.448 316.986 198.591 316.383 197.068 315.844C193.696 314.691 190.498 313.081 187.563 311.06Z" fill="white" stroke="#263238" stroke-miterlimit="10"/>
<path d="M166.166 182.452L159.708 291.487L168.499 304.221L177.17 293.225L172.18 182.754L166.166 182.452Z" fill="white" stroke="#263238" stroke-miterlimit="10"/>
<path d="M204.209 173.122H117.833V178.819C117.833 183.158 140.73 186.681 168.974 186.681C197.219 186.681 220.116 183.158 220.116 178.819V173.122H204.209Z" fill="#263238"/>
<path d="M168.974 180.985C197.219 180.985 220.116 177.464 220.116 173.122C220.116 168.78 197.219 165.26 168.974 165.26C140.73 165.26 117.833 168.78 117.833 173.122C117.833 177.464 140.73 180.985 168.974 180.985Z" fill="#7D18F7"/>
<path d="M168.974 180.985C197.219 180.985 220.116 177.464 220.116 173.122C220.116 168.78 197.219 165.26 168.974 165.26C140.73 165.26 117.833 168.78 117.833 173.122C117.833 177.464 140.73 180.985 168.974 180.985Z" stroke="#263238" stroke-linecap="round" stroke-linejoin="round"/>
<path d="M203.86 157.382H177.678C177.678 157.382 177.678 164.411 181.375 173.606C181.375 175.368 185.604 176.78 190.825 176.78C196.045 176.78 200.266 175.36 200.266 173.606C200.274 173.519 200.274 173.432 200.266 173.344C203.82 164.276 203.86 157.382 203.86 157.382Z" fill="white" stroke="#263238" stroke-linecap="round" stroke-linejoin="round"/>
<path d="M190.856 161.198C198.117 161.198 204.003 159.489 204.003 157.382C204.003 155.274 198.117 153.565 190.856 153.565C183.596 153.565 177.71 155.274 177.71 157.382C177.71 159.489 183.596 161.198 190.856 161.198Z" fill="white" stroke="#263238" stroke-linecap="round" stroke-linejoin="round"/>
<path d="M190.856 160.571C197.372 160.571 202.654 159.143 202.654 157.382C202.654 155.62 197.372 154.192 190.856 154.192C184.341 154.192 179.059 155.62 179.059 157.382C179.059 159.143 184.341 160.571 190.856 160.571Z" fill="white" stroke="#263238" stroke-linecap="round" stroke-linejoin="round"/>
<path d="M180.169 158.73C182.058 159.817 186.128 160.563 190.856 160.563C195.585 160.563 199.655 159.817 201.535 158.73C199.655 157.651 195.577 156.898 190.856 156.898C186.136 156.898 182.058 157.651 180.169 158.73Z" fill="#263238" stroke="#263238" stroke-linecap="round" stroke-linejoin="round"/>
<path d="M185.358 159.032C185.358 159.032 181.939 150.495 182.938 148.218C183.938 145.941 187.207 146.226 188.349 148.504C189.492 150.781 190.055 159.317 190.055 159.317C190.055 159.317 186.651 160.46 185.358 159.032Z" fill="#7D18F7" stroke="#263238" stroke-miterlimit="10"/>
<path d="M188.349 159.889C188.349 159.889 185.644 144.814 186.35 141.958C187.056 139.102 190.626 138.11 193.181 140.245C195.736 142.379 194.768 153.2 194.768 154.763C194.768 156.326 194.625 159.603 194.625 159.603C192.596 160.259 190.429 160.357 188.349 159.889Z" fill="#7D18F7" stroke="#263238" stroke-miterlimit="10"/>
<path d="M193.895 159.603C193.895 159.603 191.785 153.764 193.046 151.487C194.308 149.21 196.886 150.066 196.886 151.915C196.886 153.764 197.029 158.183 196.743 159.175C196.458 160.166 194.895 160.46 193.895 159.603Z" fill="#7D18F7" stroke="#263238" stroke-miterlimit="10"/>
<path d="M190.769 159.444C187.207 145.957 190.198 139.237 190.198 139.237C190.198 139.237 194.466 146.639 192.189 159.444" stroke="#263238" stroke-linecap="round" stroke-linejoin="round"/>
<path d="M184.93 147.932C184.93 147.932 181.653 148.075 187.064 159.317" stroke="#263238" stroke-linecap="round" stroke-linejoin="round"/>
<path d="M107.075 312.385C99.8711 307.926 91.5644 300.722 88.8272 290.226C86.5939 295.282 83.6323 299.983 80.0365 304.181C74.9827 310.092 67.7629 314.218 59.7259 316.368C57.7504 316.899 56.6396 317.494 56.6396 318.121C56.6396 320.35 70.5873 322.159 87.7958 322.159C105.004 322.159 118.96 320.35 118.96 318.121C118.96 317.574 118.103 317.042 116.58 316.534C113.25 315.556 110.056 314.162 107.075 312.385Z" fill="white" stroke="#263238" stroke-miterlimit="10"/>
<path d="M85.6779 199.066L79.2197 295.129L88.0104 306.355L96.6821 296.668L91.6917 199.336L85.6779 199.066Z" fill="white" stroke="#263238" stroke-miterlimit="10"/>
<path d="M123.062 203.477H36.7021V209.181C36.7021 213.513 59.5992 217.036 87.8436 217.036C116.088 217.036 138.985 213.513 138.985 209.181V203.477H123.062Z" fill="#263238"/>
<path d="M87.8358 211.347C116.08 211.347 138.977 207.827 138.977 203.485C138.977 199.143 116.08 195.623 87.8358 195.623C59.5912 195.623 36.6943 199.143 36.6943 203.485C36.6943 207.827 59.5912 211.347 87.8358 211.347Z" fill="#7D18F7" stroke="#263238" stroke-miterlimit="10"/>
<path d="M169.831 297.001C168.118 298.905 165.071 298.897 162.691 298.151C158.978 297.009 155.789 294.565 152.131 293.28C147.641 291.693 142.317 291.757 138.826 288.52C137.078 286.772 135.926 284.518 135.534 282.077L135.438 281.538C135.13 278.919 135.112 276.275 135.383 273.652L144.07 268.582C149.799 276.714 159.541 284.402 165.119 288.901C166.538 289.973 167.88 291.145 169.133 292.407C171.141 294.899 169.831 297.001 169.831 297.001Z" fill="white"/>
<path d="M135.352 273.644C135.08 276.267 135.099 278.911 135.407 281.53C135.733 284.168 136.924 286.624 138.795 288.512C142.286 291.757 147.609 291.685 152.1 293.272C155.757 294.558 158.947 297.001 162.66 298.144C165.103 298.889 168.118 298.897 169.8 296.993C169.8 296.993 171.109 294.891 169.07 292.392C167.031 289.892 151.806 279.634 144.007 268.59L135.352 273.644Z" stroke="#263238" stroke-miterlimit="10"/>
<path d="M64.3758 170.615C64.3758 170.615 54.3475 180.866 55.2599 193.219C56.1722 205.572 72.1827 211.054 82.7585 215.283C89.3323 217.975 95.4049 221.757 100.721 226.469C100.721 226.469 97.2695 236.141 106.338 248.224C115.406 260.307 135.963 275.429 135.963 275.429C137.855 275.409 139.698 274.823 141.254 273.745C142.81 272.667 144.006 271.148 144.69 269.383C144.69 269.383 124.855 234.625 119.96 220.122C119.96 220.122 119.048 209.015 114.478 205.008C114.478 205.008 120.539 198.534 120.484 191.259C120.428 183.984 113.661 172.638 105.727 167.378L105.14 169.195L97.9994 174.995C97.9994 174.995 81.7351 176.28 70.4531 166.918V164.205L69.5566 165.331L64.3758 170.615Z" fill="#263238"/>
<path d="M112.121 201.652C112.98 202.723 113.775 203.844 114.501 205.008" stroke="white" stroke-linecap="round" stroke-linejoin="round"/>
<path d="M92.1201 182.762C92.1201 182.762 102.736 190.957 109.947 199.074" stroke="white" stroke-linecap="round" stroke-linejoin="round"/>
<path d="M100.721 189.974C100.721 189.974 104.481 186.372 105.172 182.762" stroke="white" stroke-linecap="round" stroke-linejoin="round"/>
<path d="M169.832 297.001C168.118 298.905 165.071 298.897 162.691 298.151C158.978 297.009 155.789 294.565 152.131 293.28C147.641 291.693 142.317 291.757 138.826 288.52C137.033 286.854 135.415 283.133 135.185 278.634C137.298 280.803 139.73 282.635 142.396 284.069C145.094 285.481 147.95 287.147 150.624 288.607C153.369 290.234 156.398 291.326 159.549 291.828C160.481 291.93 161.424 291.825 162.31 291.519C164.556 290.543 164.207 289.036 164.262 288.258C165.957 289.555 167.583 290.94 169.133 292.407C171.141 294.899 169.832 297.001 169.832 297.001Z" fill="#263238"/>
<path d="M95.5948 308.077C95.5948 314.305 93.7224 320.771 89.3747 325.198C88.6592 326.049 87.6833 326.64 86.5978 326.88C85.8889 326.904 85.1849 326.754 84.5482 326.441C83.9115 326.128 83.362 325.663 82.9483 325.087C81.2028 322.96 80.6633 320.057 80.7823 317.304C80.9014 314.551 81.5757 311.861 82.0121 309.14C82.1866 308.005 82.3215 306.871 82.4088 305.728C82.6085 303.005 82.5501 300.269 82.2342 297.556C81.8931 294.629 81.2425 291.717 83.3926 289.48C85.0349 287.774 88.1529 285.211 90.533 287.155C91.2733 287.886 91.7882 288.814 92.0167 289.829C92.3816 290.963 92.7466 292.098 93.0877 293.248C94.6405 298.043 95.4851 303.038 95.5948 308.077Z" fill="white"/>
<path d="M82.2345 297.556C82.6844 301.41 82.6097 305.306 82.0124 309.14C81.5839 311.861 80.8937 314.551 80.7826 317.304C80.6715 320.057 81.2031 322.96 82.9485 325.087C83.3622 325.663 83.9118 326.128 84.5485 326.441C85.1851 326.754 85.8892 326.904 86.5981 326.88C87.6835 326.64 88.6595 326.049 89.3749 325.198C93.7227 320.739 95.5871 314.305 95.5951 308.077C95.603 301.849 93.9131 295.747 91.9852 289.829C91.7567 288.814 91.2418 287.886 90.5015 287.155C88.1214 285.211 85.0351 287.774 83.3611 289.48C81.2428 291.717 81.9251 294.629 82.2345 297.556Z" stroke="#263238" stroke-miterlimit="10"/>
<path d="M82.1075 293.526C82.1075 293.526 86.5742 300.23 93.0641 293.526C93.0641 293.526 92.1676 274.739 94.1748 265.02C96.1821 255.301 103.791 224.891 93.0641 214.386C82.3376 203.882 72.7138 213.712 70.9287 222.209C69.1436 230.706 74.729 254.849 78.0692 266.027C81.4093 277.206 82.1075 293.526 82.1075 293.526Z" fill="#263238"/>
<path d="M96.5396 219.813C96.5396 219.813 89.8593 202.287 75.626 212.427" stroke="white" stroke-linecap="round" stroke-linejoin="round"/>
<path d="M95.5948 308.077C95.5948 314.305 93.7224 320.771 89.3747 325.198C88.6592 326.049 87.6833 326.64 86.5978 326.88C85.8889 326.905 85.1849 326.754 84.5482 326.441C83.9115 326.128 83.362 325.663 82.9483 325.087C81.2028 322.96 80.6633 320.057 80.7823 317.304C80.9014 314.551 81.5757 311.861 82.0121 309.14C82.1866 308.005 82.3215 306.871 82.4088 305.728C82.9086 308.108 83.0038 313.368 83.0752 314.344C83.1021 315.307 83.2678 316.261 83.5671 317.177C83.7206 317.633 83.971 318.051 84.301 318.401C84.631 318.752 85.0329 319.027 85.4792 319.208C86.0614 319.365 86.6756 319.36 87.2548 319.192C87.834 319.024 88.356 318.7 88.7638 318.256C89.569 317.357 90.1627 316.288 90.5013 315.13C92.6434 309.084 92.929 302.555 92.8418 296.144C92.7891 295.174 92.8611 294.2 93.056 293.248C94.6196 298.041 95.4749 303.037 95.5948 308.077Z" fill="#263238"/>
<path d="M67.5414 92.0068C66.7976 93.7371 66.5135 95.6301 66.7164 97.5025C66.9193 99.3748 67.6025 101.163 68.6997 102.694C72.4921 108.097 84.1628 113.158 90.9145 110.286C97.6661 107.414 109.821 107.565 115.39 111.08C120.96 114.594 141.897 112.183 141.897 99.4805C141.897 99.4805 144.769 102.003 144.095 105.701C144.095 105.701 153.378 97.4891 142.405 85.2948C142.405 85.2948 145.515 79.6697 138.978 78.8367C132.44 78.0036 131.837 74.4572 131.21 70.7442C130.584 67.0311 130.734 57.9707 122.61 58.05C122.61 58.05 109.488 45.0544 94.8417 51.465C80.1958 57.8755 83.7343 67.3326 76.8478 65.9918C76.5649 66.8117 76.5649 67.7028 76.8478 68.5227C76.8478 68.5227 79.0454 73.5845 75.8402 75.9488C72.6349 78.3131 64.114 82.5418 63.6855 94.1966C64.0583 93.5068 64.6175 92.9357 65.2993 92.5485C65.9811 92.1613 66.758 91.9736 67.5414 92.0068Z" fill="#263238"/>
<path d="M88.9629 104.653L91.4383 103.336V97.2351C91.4383 97.2351 95.2465 104.225 99.5784 104.963C103.91 105.701 108.932 98.1396 108.932 98.1396C108.932 98.1396 108.075 103.003 108.932 104.225C109.789 105.447 116.953 109.191 116.953 109.191C116.953 109.191 105.949 119.545 103.466 127.439C103.466 127.439 102.673 119.981 97.5314 116.054C93.6041 113.191 90.6206 109.222 88.9629 104.653Z" fill="white"/>
<path d="M88.9627 104.653C86.059 105.512 83.0065 105.747 80.0055 105.343C75.6815 104.55 68.6125 101.995 63.4872 105.7C58.362 109.406 59.314 124.281 58.7269 128.447C58.1398 132.612 57.6558 136.674 54.0936 140.26C50.5313 143.846 48.1432 154.137 49.0794 157.937C49.0794 157.937 46.4533 161.499 48.3653 168.108C50.2774 174.717 51.8086 173.487 51.8086 173.487C51.8086 173.487 59.6472 173.797 63.7094 171.345C63.7094 171.345 67.7715 168.045 69.1282 165.323C70.4849 162.602 68.2158 157.937 68.2158 157.937L70.4769 160.317V166.942C70.4769 166.942 78.9661 173.138 87.6775 174.36C97.9914 175.018 97.6503 175.002 97.6503 175.002L104.949 169.853C104.949 169.853 108.123 159.976 111.146 156.406C114.169 152.835 121.269 146.703 121.722 143.077C122.174 139.451 120.627 130.882 120.627 130.882C120.627 130.882 125.807 136.301 127.013 142.434C128.219 148.567 144.468 136.166 144.468 136.166C144.468 136.166 139.668 127.074 138.406 122.179C137.145 117.284 135.233 111.532 130.52 110.834C125.807 110.135 116.565 109.461 116.565 109.461C116.565 109.461 106.37 118.982 103.537 127.86C103.537 127.86 102.466 120.973 97.4995 116.086C92.533 111.199 89.1055 108.081 88.9627 104.653Z" fill="#7D18F7"/>
<path opacity="0.6" d="M116.953 109.191C116.953 109.191 105.964 119.815 103.751 126.575C103.751 126.575 100.974 119.434 96.761 115.301C92.5481 111.167 90.4694 107.946 88.962 104.653L86.9468 105.344C86.9468 105.344 84.9951 110.056 84.6777 112.262L90.3822 115.316L89.9141 125.789C89.9141 125.789 99.9742 136.151 101.021 142.45L103.782 144.037C103.782 144.037 105.131 136.19 104.489 131.922C104.489 131.922 106.075 129.796 109.979 128.225C113.882 126.654 116.54 125.265 116.54 125.265L115.429 118.538C118.293 117.834 121.071 116.818 123.712 115.507L118.754 109.588L116.953 109.191Z" fill="white"/>
<path opacity="0.2" d="M134.4 138.467C134.4 138.467 131.226 129.423 118.437 123.544L119.119 126.241L115.89 125.821C115.89 125.821 116.684 139.578 112.003 144.069C107.322 148.559 89.3118 144.933 84.6309 148.964L92.8106 149.606C92.8106 149.606 85.7495 151.542 85.3766 153.97C85.0038 156.398 95.0876 155.136 99.126 157.032C99.126 157.032 100.07 168.933 96.5078 174.899L97.6582 174.979L105.14 169.195C105.14 169.195 109.662 156.842 113.074 153.97C116.485 151.098 121.658 146.314 121.579 142.458C121.499 138.602 120.865 130.557 120.865 130.557C120.865 130.557 125.236 136.032 126.418 140.411C127.6 144.79 134.4 138.467 134.4 138.467Z" fill="black"/>
<path d="M133.947 154.335C133.947 154.335 136.629 165.601 146.919 165.323C146.919 165.323 148.125 165.871 149.473 162.777C150.822 159.682 152.203 156.493 150.917 150.424C149.632 144.354 145.395 137.634 145.395 137.634L133.074 144.568L133.947 154.335Z" fill="white"/>
<path d="M116.04 78.8605C116.04 78.8605 115.247 64.9367 104.933 61.66C94.619 58.3833 85.6458 66.4203 83.6465 77.369C83.6465 77.369 86.0266 88.9524 87.5103 91.7133C88.9939 94.4743 94.9919 103.852 99.2841 104.971C103.576 106.089 109.543 97.6478 111.923 93.9983C114.303 90.3487 116.001 84.2079 116.35 78.8605" fill="white"/>
<path d="M116.04 78.8605C116.04 78.8605 115.247 64.9367 104.933 61.66C94.619 58.3833 85.6458 66.4203 83.6465 77.369C83.6465 77.369 86.0266 88.9524 87.5103 91.7133C88.9939 94.4743 94.9919 103.852 99.2841 104.971C103.576 106.089 109.543 97.6478 111.923 93.9983C114.303 90.3487 116.001 84.2079 116.35 78.8605" stroke="#263238" stroke-miterlimit="10"/>
<path d="M99.1016 94.0774C99.3383 94.48 99.6323 94.8461 99.9743 95.1643C101.18 96.283 101.561 94.5058 101.561 93.5775C101.496 91.3553 101.879 89.1427 102.688 87.0718" stroke="#263238" stroke-linecap="round" stroke-linejoin="round"/>
<path d="M104.18 84.9853C105.14 83.5176 107.575 81.8118 109.916 83.3986" stroke="#263238" stroke-linecap="round" stroke-linejoin="round"/>
<path d="M91.7549 82.7479C94.3254 81.1612 97.372 82.1132 97.8719 84.2077" stroke="#263238" stroke-linecap="round" stroke-linejoin="round"/>
<path d="M106.52 88.8332C106.48 89.7615 106.107 90.4993 105.687 90.4835C105.266 90.4676 104.957 89.6901 104.989 88.7697C105.02 87.8494 105.401 87.0957 105.822 87.1116C106.242 87.1274 106.52 87.8891 106.52 88.8332Z" fill="#263238"/>
<path d="M95.8568 88.5715C95.8172 89.4998 95.4443 90.2376 95.0238 90.2217C94.6033 90.2059 94.2859 89.4283 94.3256 88.508C94.3653 87.5877 94.7382 86.834 95.1587 86.8499C95.5792 86.8657 95.8965 87.6353 95.8568 88.5715Z" fill="#263238"/>
<path d="M114.493 88.73C114.493 88.73 115.342 89.1901 117.365 87.4288C119.388 85.6675 121.11 82.248 120.285 80.8199C119.46 79.3919 116.953 81.4626 116.953 81.4626L114.493 88.73Z" fill="white" stroke="#263238" stroke-miterlimit="10"/>
<path d="M83.8773 79.5269C83.8773 79.5269 81.7272 78.2337 80.4816 79.2651C79.1011 80.3996 81.1084 84.2158 81.7986 85.3028C82.6714 86.6753 84.3851 87.8416 85.8369 86.588L83.8773 79.5269Z" fill="white" stroke="#263238" stroke-miterlimit="10"/>
<path d="M94.873 95.5293C95.196 96.3591 95.7156 97.0981 96.3872 97.6827C97.0589 98.2672 97.8625 98.6799 98.7289 98.8853" stroke="#263238" stroke-linecap="round" stroke-linejoin="round"/>
<path d="M109.416 97.5049C108.171 100.29 108.234 102.741 108.972 105.701" stroke="#263238" stroke-linecap="round" stroke-linejoin="round"/>
<path d="M91.1764 97.2351C91.4068 99.0024 91.4943 100.785 91.4382 102.567C91.5199 103.749 91.3523 104.936 90.9463 106.05" stroke="#263238" stroke-linecap="round" stroke-linejoin="round"/>
<path d="M82.9248 78.0828C82.9248 78.0828 94.6668 77.6147 97.3723 65.4284C97.3723 65.4284 102.513 78.4081 117.492 79.5268C117.492 79.5268 120.166 70.2997 118.659 64.3811C117.151 58.4625 109.773 53.3451 99.8714 54.1623C89.97 54.9795 81.7902 58.5735 82.9248 78.0828Z" fill="#263238"/>
<path d="M70.4844 160.301V166.926C70.4844 166.926 82.274 175.899 98.0306 175.002L104.933 169.838C104.933 169.838 107.25 161.15 111.962 155.287C116.675 149.424 122.514 146.79 121.618 139.467C120.721 132.144 120.475 129.677 120.475 129.677" stroke="#263238" stroke-linecap="round" stroke-linejoin="round"/>
<path d="M91.1757 103.907C91.1757 103.907 84.4319 106.518 77.5374 104.986C70.6429 103.455 65.8826 103.098 61.9951 106.986C58.1075 110.873 60.2338 131.581 56.8777 136.222C53.5217 140.863 47.1429 150.193 49.0867 157.961" stroke="#263238" stroke-linecap="round" stroke-linejoin="round"/>
<path d="M69.1043 161.69C70.9528 165.046 67.1049 168.037 64.344 170.615C61.583 173.194 53.7285 173.789 51.3007 173.344C48.873 172.9 47.2069 164.403 47.6591 161.674C48.1113 158.944 49.6346 156.366 51.9116 155.287C54.1887 154.208 55.8786 147.115 57.5526 146.147C59.2266 145.179 60.2263 148.329 60.2263 148.329" stroke="#263238" stroke-miterlimit="10"/>
<path d="M90.4941 149.329L105.933 151.209C107.393 151.383 108.988 151.637 109.948 152.748" stroke="#263238" stroke-linecap="round" stroke-linejoin="round"/>
<path d="M72.833 137.341C72.833 137.341 73.7692 129.462 72.833 125.789" stroke="#263238" stroke-linecap="round" stroke-linejoin="round"/>
<path d="M73.2451 134.469C74.9228 132.787 76.2923 130.824 77.2914 128.669" stroke="#263238" stroke-linecap="round" stroke-linejoin="round"/>
<path d="M130.472 137.356C129.439 137.189 128.468 136.757 127.651 136.104C126.835 135.45 126.201 134.597 125.812 133.626C125.422 132.655 125.29 131.601 125.428 130.564C125.566 129.527 125.97 128.544 126.6 127.709C127.394 126.614 128.592 125.813 129.361 124.678C129.808 124.003 130.095 123.234 130.198 122.43C130.301 121.627 130.218 120.81 129.956 120.044C129.694 119.277 129.259 118.581 128.686 118.009C128.112 117.437 127.415 117.004 126.648 116.744C128.172 116.613 129.705 116.629 131.226 116.792C134.351 117.244 136.248 119.426 135.589 122.711C134.931 125.995 131.083 126.432 128.798 128.264C128.206 128.683 127.727 129.241 127.402 129.888C127.077 130.536 126.916 131.253 126.933 131.977C126.99 133.108 127.348 134.203 127.97 135.149C128.592 136.095 129.456 136.857 130.472 137.356Z" fill="white" stroke="#263238" stroke-miterlimit="10"/>
<path d="M108.567 103.907C111.503 106.683 115.159 108.577 119.119 109.374C125.308 110.421 132.194 110.12 134.495 112.841C136.796 115.562 140.231 130.097 144.706 136.587C149.181 143.077 155.583 156.66 147.776 164.998C147.776 164.998 139.335 167.759 134.519 156.271" stroke="#263238" stroke-linecap="round" stroke-linejoin="round"/>
<path d="M119.119 128.042C119.119 128.042 124.022 133.739 126.085 139.467" stroke="#263238" stroke-linecap="round" stroke-linejoin="round"/>
<path d="M129.528 155.287C131.696 153.895 134.275 153.287 136.835 153.565C141.056 154.065 140.667 155.247 139.93 155.549C139.192 155.85 127.91 158.429 127.537 157.762C127.164 157.096 129.528 155.287 129.528 155.287Z" fill="white" stroke="#263238" stroke-miterlimit="10"/>
<path d="M88.9629 104.653C89.3199 108.39 92.43 111.159 95.1672 113.738C97.4378 115.756 99.4022 118.095 100.999 120.68C105.132 127.868 104.22 136.777 103.18 145.005" stroke="#263238" stroke-linecap="round" stroke-linejoin="round"/>
<path d="M87.4789 104.614C86.1493 106.816 85.2099 109.232 84.702 111.754C84.6462 111.927 84.6462 112.113 84.702 112.286C84.7971 112.433 84.9358 112.546 85.0987 112.611L90.4064 115.34C89.9148 117.88 89.7152 120.467 89.8114 123.052C89.8075 123.52 89.8771 123.986 90.0177 124.432C90.2601 124.997 90.6074 125.512 91.0411 125.948C95.3492 130.859 99.9984 136.039 101.014 142.49" stroke="#263238" stroke-linecap="round" stroke-linejoin="round"/>
<path d="M117.461 108.898C116.354 109.536 115.351 110.339 114.485 111.278C109.879 115.912 106.231 121.41 103.751 127.455" stroke="#263238" stroke-linecap="round" stroke-linejoin="round"/>
<path d="M118.127 108.961C120.047 111.077 121.898 113.272 123.681 115.546C121.212 117.224 118.366 118.265 115.398 118.577C115.771 120.608 116.136 122.639 116.509 124.662C116.568 124.872 116.568 125.095 116.509 125.305C116.372 125.546 116.152 125.73 115.89 125.821C111.962 127.733 107.218 128.566 104.457 131.961" stroke="#263238" stroke-linecap="round" stroke-linejoin="round"/>
<path d="M97.3721 65.4285C97.3721 65.4285 98.0623 81.1295 116.953 81.4627" stroke="#263238" stroke-linecap="round" stroke-linejoin="round"/>
<path d="M138.97 137.341C140.182 140.461 140.889 143.756 141.064 147.099C141.183 152.042 136.629 154.7 133.392 155.287C130.155 155.874 126.204 155.692 123.57 152.375C120.936 149.059 120.008 141.99 120.008 141.99L138.97 137.341Z" fill="white" stroke="#263238" stroke-miterlimit="10"/>
<path d="M143.254 136.198C142.625 136.231 142.009 136.393 141.445 136.674C138.52 137.906 135.713 139.401 133.059 141.141C132.821 141.3 132.551 141.498 132.527 141.784C132.527 142.228 133.027 142.474 133.464 142.577C136.01 143.053 138.628 142.49 141.151 141.926C141.889 141.797 142.606 141.573 143.286 141.26C145.396 140.181 146.8 136.246 143.254 136.198Z" fill="white" stroke="#263238" stroke-miterlimit="10"/>
<path d="M144.689 141.99C142.557 142.24 140.45 142.67 138.39 143.275C137.736 143.4 137.113 143.653 136.557 144.021C136.456 144.08 136.37 144.163 136.308 144.262C136.246 144.362 136.209 144.475 136.2 144.592C136.2 144.878 136.486 145.06 136.74 145.179C137.651 145.538 138.611 145.76 139.588 145.838C141.968 146.139 144.84 146.52 146.895 144.997C149.156 143.347 146.554 141.855 144.689 141.99Z" fill="white" stroke="#263238" stroke-miterlimit="10"/>
<path d="M138.485 147.194C137.78 147.19 137.086 147.368 136.47 147.71C136.279 147.815 136.124 147.975 136.026 148.17C135.958 148.378 135.959 148.603 136.029 148.81C136.099 149.017 136.234 149.196 136.414 149.321C136.778 149.559 137.19 149.714 137.62 149.773L141.912 150.701C142.801 150.892 143.872 151.034 144.427 150.146C144.614 149.836 144.713 149.48 144.713 149.118C144.713 148.756 144.614 148.401 144.427 148.091C143.372 146.798 139.929 147.099 138.485 147.194Z" fill="white" stroke="#263238" stroke-miterlimit="10"/>
<path d="M52.6092 154.684C51.2763 157.246 51.1335 160.238 51.0225 163.11" stroke="#263238" stroke-linecap="round" stroke-linejoin="round"/>
<path d="M53.5537 156.39C53.5752 159.355 54.4661 162.248 56.1161 164.712C57.7661 167.176 60.1027 169.101 62.8363 170.25" stroke="#263238" stroke-linecap="round" stroke-linejoin="round"/>
<path d="M107.599 153.708C103.347 153.399 99.0305 153.097 94.8652 153.978" stroke="#263238" stroke-linecap="round" stroke-linejoin="round"/>
<path d="M97.4993 116.07L81.9648 116.657L85.0352 145.005L99.5224 144.077L97.4993 116.07Z" fill="white" stroke="#263238" stroke-miterlimit="10"/>
<path d="M97.6421 124.186L98.5069 125.686L94.0798 133.778C96.46 133.207 100.324 128.955 100.966 129.811C101.609 130.668 90.6524 141.466 87.9708 142.141C86.0512 142.524 84.0748 142.524 82.1553 142.141C80.0211 144.64 68.0965 164.205 68.0965 164.205C68.0965 164.205 55.9181 162.888 58.322 149.527C58.322 149.527 73.3328 137.293 77.7361 133.382C77.7361 133.382 79.4974 126.535 82.2267 125.797L83.1946 128.177C83.1946 128.177 97.8246 121.489 98.2689 121.981C98.7132 122.473 98.2689 123.607 98.2689 123.607C98.2689 123.607 90.097 131.113 88.1374 131.541" fill="white"/>
<path d="M97.6421 124.186L98.5069 125.686L94.0798 133.778C96.46 133.207 100.324 128.955 100.966 129.811C101.609 130.668 90.6524 141.466 87.9708 142.141C86.0512 142.524 84.0748 142.524 82.1553 142.141C80.0211 144.64 68.0965 164.205 68.0965 164.205C68.0965 164.205 55.9181 162.888 58.322 149.527C58.322 149.527 73.3328 137.293 77.7361 133.382C77.7361 133.382 79.4974 126.32 82.2267 125.797L83.1946 128.177C83.1946 128.177 97.8246 121.489 98.2689 121.981C98.7132 122.473 98.2689 123.607 98.2689 123.607C98.2689 123.607 90.097 131.113 88.1374 131.541" stroke="#263238" stroke-miterlimit="10"/>
<path opacity="0.2" d="M97.9834 62.4375C99.8828 64.5902 102.011 66.5295 104.33 68.2213C105.378 68.908 106.464 69.5332 107.583 70.0936C111.25 71.9597 115.076 73.4944 119.016 74.6794" stroke="white" stroke-width="0.75" stroke-linecap="round" stroke-linejoin="round"/>
<path opacity="0.2" d="M98.7842 59.2559C104.322 62.6298 110.326 65.172 116.604 66.8009" stroke="white" stroke-width="0.75" stroke-linecap="round" stroke-linejoin="round"/>
<path d="M91.7549 98.0286C91.7549 98.0286 93.9922 108.049 99.1016 108.961C104.211 109.874 108.281 99.0441 108.281 99.0441C108.281 99.0441 103.211 105.002 100.014 104.955C96.8167 104.907 91.7549 98.0286 91.7549 98.0286Z" fill="#263238"/>
<path d="M85.5192 121.211C86.1764 121.211 86.7093 120.678 86.7093 120.021C86.7093 119.364 86.1764 118.831 85.5192 118.831C84.8619 118.831 84.3291 119.364 84.3291 120.021C84.3291 120.678 84.8619 121.211 85.5192 121.211Z" fill="white" stroke="#263238" stroke-miterlimit="10"/>
</svg>
