<svg width="343" height="320" viewBox="0 0 343 320" fill="none" xmlns="http://www.w3.org/2000/svg">
<path d="M333.46 107.967C331.393 102.262 329.016 96.6748 326.34 91.2288C302.852 43.4524 259.136 11.0581 205.321 2.54454C203.004 2.17407 200.677 1.85052 198.341 1.5739C154.417 -3.70907 92.9259 2.87797 67.8521 43.482C54.8336 64.5695 60.1759 91.1622 46.3646 111.649C28.4854 138.242 5.50118 151.527 1.24812 193.028C-1.88609 223.563 -0.426421 256.564 21.1649 280.919C46.6091 309.631 90.2733 319.516 127.573 314.003C163.776 308.661 196.185 290.782 227.845 273.992C257.898 258.054 292.308 246.48 316.626 222.125C347.331 191.353 347.309 146.37 333.46 107.967Z" fill="#7D18F7"/>
<path opacity="0.7" d="M333.46 107.967C331.393 102.262 329.016 96.6748 326.34 91.2288C302.852 43.4524 259.136 11.0581 205.321 2.54454C203.004 2.17407 200.677 1.85052 198.341 1.5739C154.417 -3.70907 92.9259 2.87797 67.8521 43.482C54.8336 64.5695 60.1759 91.1622 46.3646 111.649C28.4854 138.242 5.50118 151.527 1.24812 193.028C-1.88609 223.563 -0.426421 256.564 21.1649 280.919C46.6091 309.631 90.2733 319.516 127.573 314.003C163.776 308.661 196.185 290.782 227.845 273.992C257.898 258.054 292.308 246.48 316.626 222.125C347.331 191.353 347.309 146.37 333.46 107.967Z" fill="white"/>
<path d="M21.2243 115.68C24.3511 116.421 31.405 114.976 31.4124 114.976C31.4198 114.976 29.0488 110.612 28.8635 110.36C26.7148 107.397 20.8242 102.951 16.9268 104.181C16.2868 104.41 15.702 104.771 15.2103 105.24C14.7186 105.709 14.331 106.277 14.0725 106.905C13.8141 107.534 13.6906 108.21 13.71 108.889C13.7294 109.569 13.8914 110.236 14.1853 110.849C15.3486 113.517 18.5569 115.051 21.2243 115.68Z" fill="#CCCCCC"/>
<path d="M93.148 104.225C93.2147 104.225 93.5778 99.283 93.563 98.9644C93.4148 95.3041 90.9697 88.3244 87.0204 87.2352C86.3591 87.0708 85.6706 87.0475 84.9997 87.1668C84.3288 87.2861 83.6905 87.5454 83.1265 87.9277C82.5624 88.31 82.0852 88.8069 81.7259 89.3858C81.3665 89.9648 81.1332 90.613 81.0409 91.2882C80.5519 94.1408 82.3895 97.2158 84.2566 99.1941C86.4573 101.558 93.1406 104.225 93.148 104.225Z" fill="#CCCCCC"/>
<path d="M109.62 74.7206C105.53 75.017 101.765 81.3891 100.891 84.9383C100.817 85.2421 100.202 90.1842 100.276 90.1768H100.358C99.7575 91.1771 99.1203 92.2589 98.4534 93.4518C97.2309 95.6746 95.8749 98.179 94.5857 101.009C93.1578 104.046 91.9084 107.163 90.8439 110.345C89.6438 113.898 88.7611 117.551 88.2061 121.26C88.2061 121.304 88.2061 121.349 88.2061 121.393C88.0135 120.208 87.3614 116.91 87.2799 116.666C86.1685 113.176 81.9673 107.085 77.8699 107.07C77.188 107.087 76.5173 107.248 75.9015 107.541C75.2857 107.834 74.7384 108.254 74.2953 108.772C73.8522 109.291 73.5233 109.897 73.3298 110.551C73.1363 111.205 73.0826 111.892 73.1722 112.568C73.4612 115.443 76.0323 117.911 78.3589 119.341C80.9892 120.956 87.6282 121.771 88.1542 121.83C87.6817 125.627 87.4614 129.452 87.4948 133.278C87.4948 135.501 87.5763 137.724 87.68 139.998C87.48 138.976 87.2947 138.064 87.2577 137.946C86.1463 134.456 81.9451 128.365 77.8402 128.358C77.1589 128.374 76.4887 128.533 75.8731 128.825C75.2576 129.118 74.7107 129.537 74.2681 130.055C73.8255 130.573 73.4971 131.179 73.3045 131.832C73.1118 132.486 73.0592 133.173 73.15 133.848C73.4316 136.731 76.0101 139.198 78.3366 140.621C80.6632 142.043 86.3463 142.881 87.843 143.073C87.8949 143.94 87.9319 144.8 87.9838 145.659C88.2357 149.801 88.5099 153.928 88.6507 157.981C88.6951 159.411 88.6951 160.819 88.6951 162.234C88.5173 161.33 88.3617 160.567 88.3247 160.456C87.2132 156.966 83.012 150.875 78.9072 150.824C78.2182 150.838 77.5403 150.999 76.9183 151.296C76.2964 151.593 75.7446 152.018 75.2997 152.545C74.8548 153.071 74.5268 153.686 74.3376 154.348C74.1484 155.011 74.1022 155.706 74.2021 156.388C74.4837 159.263 77.0622 161.73 79.3888 163.16C81.7154 164.59 86.8502 165.339 88.6284 165.576C88.584 167.021 88.5469 168.466 88.4432 169.866C88.3469 170.822 88.3247 171.741 88.1765 172.696C88.0283 173.652 87.9245 174.578 87.806 175.505C87.5022 177.283 87.1984 179.113 86.8576 180.839C86.6279 182.04 86.3908 183.181 86.1537 184.329C86.1537 182.907 85.9981 180.121 85.961 179.884C85.3433 176.722 83.922 173.772 81.8339 171.318C81.7843 170.962 81.6974 170.612 81.5746 170.273C81.3673 169.626 81.0263 169.03 80.5738 168.523C80.1213 168.015 79.5673 167.609 78.9478 167.33C78.3282 167.05 77.6568 166.904 76.9772 166.901C76.2975 166.897 75.6247 167.037 75.0024 167.31C71.2976 169.058 70.0602 176.349 70.5567 179.987C70.5567 180.195 71.142 182.492 71.5199 183.929C71.1717 183.114 70.8382 182.321 70.4678 181.491C69.7268 179.839 68.9859 178.216 68.156 176.46L66.8593 173.941C66.4518 173.089 65.9035 172.244 65.4219 171.385C64.2734 169.421 63.0064 167.48 61.7171 165.554C63.199 164.916 68.2523 162.59 70.0973 160.552C71.9422 158.515 73.7131 155.432 73.1722 152.587C73.0693 151.914 72.8257 151.27 72.4573 150.698C72.089 150.125 71.6042 149.637 71.0344 149.264C70.4647 148.892 69.8229 148.643 69.1507 148.535C68.4786 148.427 67.7912 148.462 67.1335 148.638C63.199 149.801 60.8799 156.825 60.7909 160.493C60.7909 160.723 61.0206 163.353 61.1762 164.798C60.376 163.649 59.5832 162.494 58.7311 161.36C56.2786 158.077 53.7001 154.825 51.1438 151.572C50.3584 150.579 49.5878 149.579 48.8098 148.608C49.3285 148.386 55.4783 145.741 57.5085 143.466C59.3461 141.436 61.1244 138.346 60.5835 135.501C60.4807 134.827 60.2369 134.182 59.8681 133.609C59.4993 133.036 59.0137 132.547 58.4431 132.175C57.8725 131.802 57.2297 131.554 56.5567 131.446C55.8837 131.339 55.1956 131.375 54.5373 131.551C50.6103 132.715 48.2911 139.702 48.2022 143.407C48.2022 143.681 48.5356 147.467 48.669 148.43C46.9648 146.207 45.2829 143.985 43.7195 141.762C41.5862 138.74 39.6531 135.582 37.9326 132.307C38.1697 132.203 44.6012 129.477 46.6833 127.121C48.5208 125.098 50.2991 122.001 49.7582 119.155C49.6543 118.482 49.4098 117.838 49.0407 117.266C48.6716 116.693 48.1861 116.205 47.6158 115.832C47.0455 115.46 46.4032 115.212 45.7306 115.104C45.058 114.996 44.3703 115.031 43.712 115.206C39.785 116.369 37.4658 123.357 37.3769 127.061C37.3769 127.306 37.6288 130.196 37.7844 131.559L37.5548 131.626C35.9121 128.294 34.5706 124.823 33.5462 121.252C32.9535 119.289 32.5015 117.384 32.0643 115.517C33.3091 115.132 38.97 113.294 41.1113 111.412C43.2527 109.53 45.2606 106.722 45.0383 103.833C45.0097 103.152 44.838 102.486 44.5344 101.876C44.2308 101.267 43.8022 100.728 43.2765 100.295C42.7508 99.8624 42.1397 99.5453 41.4832 99.3645C40.8268 99.1838 40.1395 99.1434 39.4664 99.246C35.4282 99.987 32.3533 106.656 31.8643 110.323C31.8643 110.523 31.7902 112.546 31.7753 114.028C31.6123 113.183 31.4197 112.309 31.2789 111.501C30.7306 108.449 30.412 105.618 30.1527 103.114C30.0193 101.684 29.923 100.387 29.8489 99.1793C30.8714 98.1642 34.9392 93.9927 35.9469 91.4068C36.9546 88.8209 37.4733 85.331 35.9469 82.871C35.6054 82.2815 35.1437 81.7705 34.5917 81.3712C34.0397 80.9719 33.4098 80.6933 32.7431 80.5535C32.0763 80.4138 31.3876 80.4159 30.7217 80.5599C30.0558 80.7038 29.4277 80.9864 28.8782 81.3891C25.6255 83.775 25.9663 91.1845 27.2333 94.6151C27.3445 94.9115 29.5525 99.3794 29.6044 99.3201L29.6636 99.2608C29.7155 100.432 29.7822 101.676 29.8785 103.047C30.086 105.559 30.3379 108.404 30.8269 111.479C31.3128 114.8 31.9906 118.091 32.8571 121.334C33.8103 124.975 35.0874 128.523 36.673 131.937L36.7397 132.055C35.9247 131.174 33.561 128.788 33.3536 128.625C30.5009 126.328 23.6397 123.571 20.2165 125.816C19.6562 126.206 19.1844 126.709 18.8319 127.293C18.4794 127.877 18.2542 128.528 18.171 129.205C18.0877 129.882 18.1484 130.569 18.3489 131.221C18.5495 131.873 18.8854 132.476 19.3348 132.989C21.1575 135.212 24.6696 135.871 27.3963 135.775C30.4861 135.671 36.473 132.685 36.9472 132.448C38.6434 135.86 40.5668 139.155 42.7044 142.31C43.9417 144.17 45.2458 146.015 46.5721 147.815C45.8312 147.074 45.1865 146.422 45.0902 146.333C42.2376 144.036 35.3764 141.273 31.9458 143.525C31.3874 143.916 30.9174 144.419 30.5662 145.003C30.2151 145.587 29.9907 146.239 29.9075 146.915C29.8244 147.591 29.8844 148.278 30.0836 148.929C30.2829 149.581 30.6169 150.183 31.064 150.698C32.8868 152.92 36.3989 153.58 39.133 153.484C41.8671 153.387 47.0611 150.95 48.4171 150.283C48.9358 150.972 49.4396 151.676 49.9657 152.365C52.4553 155.677 54.9597 158.967 57.3085 162.271C58.1383 163.442 58.9163 164.613 59.6943 165.791C59.0497 165.131 58.494 164.59 58.4051 164.516C55.5524 162.219 48.6912 159.456 45.2606 161.708C44.7025 162.098 44.2326 162.601 43.8815 163.184C43.5304 163.768 43.306 164.418 43.2228 165.094C43.1397 165.77 43.1996 166.456 43.3988 167.107C43.598 167.758 43.9319 168.36 44.3789 168.873C46.2016 171.096 49.7137 171.763 52.4478 171.666C55.182 171.57 59.8574 169.362 61.4874 168.584C62.2284 169.807 63.0138 171.037 63.7103 172.289C64.1623 173.141 64.6513 173.919 65.0514 174.793L66.2888 177.342C67.0297 178.994 67.7707 180.691 68.445 182.314C68.9192 183.448 69.3489 184.537 69.7861 185.619C68.971 184.448 67.3335 182.195 67.1705 182.018C64.7032 179.32 58.3384 175.549 54.5744 177.261C53.9653 177.564 53.4267 177.991 52.9936 178.516C52.5604 179.04 52.2423 179.65 52.06 180.305C51.8776 180.96 51.8351 181.647 51.9351 182.32C52.0351 182.992 52.2754 183.637 52.6405 184.211C54.1224 186.708 57.4789 187.871 60.1982 188.19C63.162 188.538 69.3119 186.604 70.0825 186.36C70.8234 188.167 71.4754 189.931 72.0904 191.605C74.217 197.348 75.7952 202.216 76.8177 205.683L79.5518 205.187C79.5518 205.106 79.5073 205.039 79.4777 204.957C78.3441 201.497 76.6547 196.57 74.3577 190.761C73.6168 188.923 72.8314 186.975 71.9867 184.981C73.7382 183.884 75.4232 182.684 77.0326 181.388C79.5073 183.248 85.2719 184.9 86.0203 185.092C85.6202 186.989 85.2127 188.834 84.8051 190.576C83.4047 196.503 82.0192 201.453 80.9893 204.906L83.953 204.357C84.8718 200.956 86.0055 196.436 87.1391 191.102C87.5467 189.175 87.9542 187.1 88.3469 184.974C89.1323 184.974 95.5711 185.13 98.3497 183.944C100.869 182.877 103.773 180.817 104.477 178.016C104.665 177.362 104.713 176.675 104.618 176.001C104.523 175.326 104.288 174.68 103.926 174.102C103.565 173.525 103.086 173.03 102.521 172.65C101.956 172.27 101.318 172.013 100.647 171.896C96.5862 171.303 91.5404 176.705 89.9251 179.995C89.8288 180.187 89.036 182.41 88.5543 183.818C88.7099 182.951 88.873 182.106 89.0211 181.202C89.3249 179.432 89.5843 177.653 89.8658 175.734C89.9696 174.808 90.0733 173.867 90.177 172.919C90.2808 171.97 90.3178 170.977 90.3919 169.992C90.5105 167.717 90.5253 165.398 90.4882 163.071C92.0442 163.338 97.5791 164.198 100.239 163.523C102.899 162.849 106.078 161.249 107.197 158.574C107.481 157.956 107.633 157.286 107.642 156.607C107.651 155.927 107.518 155.253 107.251 154.628C106.983 154.003 106.588 153.441 106.09 152.978C105.591 152.516 105.002 152.163 104.359 151.942C100.439 150.749 94.6301 155.329 92.5036 158.329C92.3777 158.515 91.118 160.841 90.4512 162.138C90.4512 160.73 90.3919 159.33 90.3104 157.914C90.0807 153.824 89.7176 149.69 89.3768 145.563C89.2731 144.303 89.1842 143.044 89.0878 141.784C89.6361 141.88 96.1935 143.051 99.1796 142.288C101.832 141.614 105.018 140.013 106.137 137.346C106.422 136.727 106.574 136.055 106.582 135.374C106.591 134.693 106.456 134.018 106.186 133.392C105.916 132.767 105.518 132.205 105.017 131.743C104.515 131.282 103.923 130.931 103.277 130.714C99.35 129.521 93.5409 134.093 91.4218 137.101C91.2662 137.331 89.4583 140.68 89.0434 141.547C88.8359 138.768 88.6507 135.997 88.584 133.256C88.4745 129.559 88.6057 125.858 88.9767 122.178C89.2286 122.23 96.0676 123.475 99.1203 122.697C101.773 122.023 104.959 120.422 106.085 117.755C106.377 117.134 106.533 116.458 106.544 115.773C106.555 115.087 106.421 114.406 106.15 113.776C105.879 113.146 105.478 112.581 104.972 112.117C104.467 111.653 103.869 111.302 103.218 111.086C99.2981 109.886 93.4891 114.465 91.3625 117.473C91.2218 117.673 89.8806 120.222 89.2138 121.445L88.9915 121.378C89.4609 117.686 90.2619 114.043 91.3848 110.494C91.9775 108.53 92.6518 106.685 93.3483 104.907C94.6005 105.27 100.328 106.87 103.151 106.478C105.863 106.092 109.205 104.855 110.612 102.328C110.965 101.745 111.19 101.093 111.274 100.417C111.357 99.7401 111.297 99.0535 111.097 98.4017C110.897 97.75 110.562 97.1477 110.113 96.6344C109.664 96.1211 109.112 95.7082 108.493 95.4227C104.729 93.8 98.4534 97.7123 96.0453 100.469C95.912 100.617 94.7487 102.291 93.9188 103.521C94.2449 102.721 94.5709 101.891 94.8969 101.135C96.1194 98.2828 97.4235 95.7561 98.6016 93.5185C99.2759 92.2514 99.9131 91.1252 100.521 90.0731C101.928 89.7915 107.604 88.5912 109.894 86.9537C112.183 85.3162 114.517 82.7302 114.599 79.8331C114.635 79.1636 114.532 78.4938 114.296 77.8661C114.06 77.2383 113.697 76.6662 113.229 76.1859C112.762 75.7055 112.199 75.3273 111.578 75.0751C110.957 74.8229 110.29 74.7022 109.62 74.7206Z" fill="#CCCCCC"/>
<path d="M157.9 220.191C160.864 221.481 168.044 221.318 168.051 221.318C168.059 221.318 166.503 216.605 166.369 216.316C164.784 213.012 159.79 207.558 155.729 208.106C155.057 208.217 154.416 208.468 153.847 208.842C153.278 209.217 152.794 209.707 152.426 210.28C152.059 210.854 151.816 211.498 151.713 212.172C151.611 212.845 151.651 213.533 151.832 214.19C152.506 217.005 155.396 219.095 157.9 220.191Z" fill="#CCCCCC"/>
<path d="M230.713 221.777C230.772 221.814 232.017 216.99 232.062 216.679C232.573 213.048 231.41 205.743 227.72 203.964C227.099 203.684 226.426 203.538 225.745 203.535C225.064 203.533 224.39 203.674 223.767 203.949C223.144 204.225 222.586 204.629 222.129 205.134C221.673 205.64 221.328 206.236 221.118 206.884C220.125 209.603 221.384 212.945 222.866 215.242C224.615 217.939 230.706 221.769 230.713 221.777Z" fill="#CCCCCC"/>
<path d="M252.193 195.658C248.118 195.221 243.302 200.808 241.783 204.157C241.657 204.446 240.16 209.195 240.234 209.195H240.323C239.582 210.07 238.738 211.018 237.863 212.07C236.27 214.034 234.485 216.264 232.677 218.82C230.728 221.551 228.941 224.393 227.327 227.334C225.505 230.62 223.977 234.062 222.763 237.618C222.763 237.663 222.763 237.707 222.726 237.752C222.726 236.551 222.726 233.187 222.659 232.928C222.185 229.297 219.139 222.555 215.109 221.814C214.436 221.708 213.748 221.745 213.09 221.923C212.432 222.101 211.82 222.415 211.292 222.846C210.764 223.277 210.333 223.814 210.027 224.422C209.72 225.031 209.546 225.697 209.515 226.378C209.277 229.26 211.367 232.15 213.412 233.973C215.709 236.025 222.096 238.018 222.607 238.174C221.459 241.814 220.555 245.527 219.903 249.288C219.517 251.511 219.162 253.734 218.888 255.957C218.888 254.912 218.85 253.986 218.836 253.86C218.361 250.222 215.324 243.486 211.285 242.746C210.613 242.641 209.925 242.679 209.268 242.857C208.611 243.035 207.998 243.35 207.471 243.781C206.943 244.211 206.512 244.748 206.205 245.356C205.899 245.964 205.724 246.63 205.691 247.31C205.454 250.199 207.544 253.082 209.589 254.905C211.634 256.727 217.065 258.565 218.48 259.017C218.376 259.876 218.265 260.736 218.161 261.588C217.665 265.708 217.198 269.812 216.605 273.828C216.398 275.244 216.146 276.637 215.864 278.022C215.864 277.096 215.864 276.318 215.82 276.207C215.346 272.569 212.3 265.834 208.27 265.093C207.596 264.988 206.909 265.026 206.251 265.204C205.594 265.382 204.981 265.697 204.453 266.127C203.924 266.558 203.493 267.094 203.185 267.702C202.878 268.31 202.702 268.976 202.668 269.657C202.438 272.539 204.528 275.429 206.566 277.252C208.603 279.074 213.523 280.727 215.227 281.282C214.931 282.698 214.634 284.113 214.279 285.469C214.012 286.387 213.827 287.291 213.538 288.203C213.249 289.114 212.96 290.011 212.671 290.9C212.056 292.597 211.426 294.345 210.789 295.983C210.352 297.124 209.907 298.206 209.47 299.295C209.692 297.887 210.07 295.123 210.078 294.886C210.031 291.666 209.161 288.51 207.551 285.721C207.558 285.361 207.536 285.002 207.484 284.646C207.399 283.971 207.172 283.322 206.819 282.741C206.466 282.159 205.995 281.658 205.436 281.27C204.877 280.882 204.243 280.617 203.575 280.49C202.906 280.363 202.219 280.378 201.557 280.534C197.593 281.586 195.081 288.544 194.888 292.197C194.888 292.411 195.022 294.768 195.133 296.25C194.933 295.39 194.747 294.553 194.533 293.664C194.118 291.915 193.651 290.174 193.154 288.307C192.888 287.41 192.613 286.506 192.339 285.595C192.065 284.683 191.695 283.757 191.376 282.824C190.598 280.682 189.694 278.548 188.746 276.414C190.279 276.051 195.703 274.666 197.889 272.991C200.075 271.317 202.335 268.605 202.335 265.708C202.354 265.027 202.229 264.35 201.969 263.721C201.708 263.091 201.318 262.524 200.824 262.056C200.33 261.587 199.742 261.228 199.1 261.002C198.458 260.776 197.775 260.688 197.096 260.743C193.021 261.18 189.479 267.678 188.738 271.265C188.694 271.487 188.449 274.125 188.346 275.57C187.768 274.295 187.19 273.021 186.56 271.746C184.737 268.042 182.781 264.418 180.84 260.765C180.247 259.639 179.669 258.543 179.084 257.394C179.632 257.268 186.123 255.764 188.56 253.889C190.731 252.23 193.006 249.503 193.006 246.606C193.024 245.925 192.898 245.248 192.637 244.618C192.376 243.989 191.985 243.422 191.49 242.954C190.996 242.485 190.408 242.127 189.765 241.9C189.122 241.674 188.439 241.586 187.76 241.642C183.685 242.086 180.151 248.577 179.41 252.163C179.35 252.437 179.01 256.223 178.973 257.194C177.683 254.719 176.431 252.244 175.268 249.785C173.71 246.417 172.374 242.952 171.267 239.411C171.519 239.352 178.298 237.811 180.795 235.892C182.966 234.225 185.241 231.505 185.241 228.608C185.255 227.937 185.129 227.27 184.872 226.65C184.614 226.03 184.231 225.47 183.747 225.006C183.262 224.541 182.686 224.182 182.056 223.952C181.425 223.721 180.754 223.624 180.084 223.666C176.001 224.111 172.467 230.609 171.726 234.195C171.674 234.432 171.415 237.314 171.319 238.693H171.089C170.059 235.12 169.35 231.462 168.97 227.763C168.747 225.726 168.636 223.77 168.577 221.836C169.874 221.68 175.772 220.895 178.209 219.42C180.647 217.946 183.137 215.545 183.433 212.663C183.526 211.988 183.476 211.302 183.286 210.648C183.096 209.994 182.771 209.388 182.331 208.868C181.892 208.348 181.348 207.926 180.735 207.63C180.122 207.335 179.453 207.171 178.773 207.15C174.668 207.15 170.437 213.211 169.311 216.694C169.244 216.886 168.836 218.88 168.57 220.339C168.57 219.472 168.57 218.583 168.57 217.761C168.57 214.656 168.77 211.833 168.962 209.306C169.088 207.876 169.229 206.587 169.37 205.387C170.555 204.564 175.297 201.223 176.779 198.829C178.261 196.436 179.343 193.139 178.261 190.471C178.032 189.831 177.672 189.247 177.202 188.755C176.733 188.263 176.166 187.876 175.537 187.617C174.908 187.359 174.232 187.235 173.553 187.255C172.873 187.274 172.206 187.436 171.593 187.73C167.947 189.612 166.991 196.947 167.599 200.556C167.651 200.867 169.022 205.654 169.081 205.617L169.148 205.565C168.992 206.721 168.829 207.965 168.688 209.321C168.436 211.84 168.177 214.678 168.103 217.798C167.986 221.151 168.068 224.509 168.347 227.852C168.632 231.606 169.254 235.325 170.207 238.967L170.252 239.1C169.607 238.085 167.703 235.314 167.532 235.114C165.139 232.343 158.878 228.401 155.107 230.009C154.487 230.291 153.934 230.702 153.484 231.213C153.033 231.724 152.696 232.324 152.493 232.974C152.29 233.624 152.227 234.31 152.307 234.986C152.387 235.663 152.609 236.315 152.958 236.899C154.351 239.433 157.685 240.693 160.367 241.086C163.42 241.53 169.844 239.671 170.355 239.515C171.406 243.193 172.706 246.794 174.245 250.296C175.134 252.341 176.083 254.378 177.068 256.401C176.483 255.549 175.949 254.786 175.868 254.682C173.467 251.911 167.214 247.969 163.435 249.577C162.816 249.861 162.264 250.272 161.814 250.783C161.365 251.294 161.028 251.894 160.825 252.544C160.622 253.194 160.559 253.879 160.638 254.555C160.718 255.231 160.938 255.883 161.286 256.468C162.679 259.009 166.021 260.262 168.696 260.654C171.37 261.047 176.95 259.58 178.402 259.172L179.55 261.499C181.41 265.204 183.255 268.908 185.011 272.561C185.619 273.858 186.175 275.155 186.73 276.451C186.204 275.71 185.76 275.051 185.686 274.969C183.285 272.198 177.031 268.256 173.26 269.857C172.639 270.14 172.086 270.55 171.634 271.062C171.183 271.573 170.845 272.174 170.642 272.825C170.438 273.475 170.374 274.162 170.454 274.839C170.533 275.516 170.755 276.169 171.104 276.755C172.504 279.289 175.838 280.541 178.513 280.941C181.188 281.342 186.234 280 187.96 279.519C188.494 280.867 189.027 282.209 189.479 283.535C189.768 284.454 190.109 285.313 190.346 286.239C190.583 287.165 190.857 288.069 191.087 288.973C191.509 290.722 191.954 292.53 192.317 294.249C192.584 295.442 192.814 296.583 193.058 297.739C192.465 296.442 191.258 293.93 191.132 293.73C189.183 290.633 183.596 285.787 179.617 286.795C178.962 286.982 178.354 287.305 177.832 287.743C177.31 288.18 176.886 288.722 176.587 289.334C176.288 289.946 176.121 290.614 176.096 291.295C176.072 291.976 176.191 292.654 176.446 293.286C177.446 296.005 180.551 297.731 183.166 298.554C186.049 299.428 192.428 298.628 193.221 298.554C193.599 300.458 193.962 302.31 194.258 304.067C195.325 310.105 195.985 315.181 196.4 318.745H199.178C199.178 318.663 199.178 318.589 199.178 318.508C198.682 314.892 197.896 309.75 196.681 303.622C196.303 301.688 195.851 299.628 195.377 297.517C197.297 296.748 199.17 295.868 200.986 294.879C203.083 297.153 208.462 299.813 209.137 300.147C208.396 301.947 207.655 303.689 206.958 305.334C204.521 310.95 202.275 315.544 200.645 318.752H203.794C205.276 315.566 207.232 311.343 209.3 306.282C210.041 304.452 210.782 302.488 211.582 300.466C212.323 300.629 218.665 301.91 221.607 301.244C224.274 300.643 227.534 299.132 228.698 296.494C228.993 295.885 229.158 295.222 229.182 294.546C229.206 293.869 229.088 293.196 228.836 292.568C228.584 291.94 228.204 291.371 227.719 290.899C227.235 290.427 226.657 290.061 226.023 289.825C222.133 288.521 216.198 292.93 214.027 295.879C213.901 296.057 212.715 298.102 211.989 299.399C212.3 298.569 212.612 297.768 212.915 296.909C213.538 295.22 214.108 293.508 214.731 291.678C214.998 290.781 215.264 289.877 215.538 288.966C215.813 288.055 216.02 287.077 216.279 286.121C216.805 283.898 217.235 281.631 217.613 279.326C219.095 279.867 224.385 281.705 227.127 281.512C229.868 281.319 233.277 280.319 234.862 277.896C235.253 277.337 235.521 276.703 235.65 276.034C235.779 275.365 235.766 274.676 235.612 274.012C235.457 273.348 235.165 272.724 234.754 272.181C234.343 271.637 233.822 271.186 233.225 270.857C229.579 268.975 223.052 272.443 220.451 275.029C220.288 275.192 218.636 277.252 217.754 278.4C217.969 277.014 218.191 275.636 218.369 274.228C218.873 270.161 219.258 266.026 219.658 261.906C219.777 260.647 219.917 259.387 220.051 258.135C220.577 258.328 226.816 260.654 229.883 260.439C232.617 260.247 236.041 259.246 237.619 256.816C238.009 256.258 238.278 255.625 238.407 254.957C238.537 254.288 238.524 253.6 238.371 252.937C238.217 252.274 237.925 251.651 237.515 251.107C237.105 250.564 236.585 250.114 235.989 249.785C232.343 247.903 225.808 251.37 223.215 253.949C223.015 254.149 220.644 257.12 220.073 257.905C220.369 255.134 220.681 252.378 221.103 249.666C221.659 246.01 222.451 242.394 223.474 238.841C223.719 238.93 230.217 241.39 233.366 241.167C236.092 240.975 239.516 239.974 241.094 237.544C241.485 236.987 241.755 236.353 241.885 235.685C242.015 235.016 242.003 234.328 241.849 233.664C241.695 233.001 241.403 232.377 240.992 231.834C240.581 231.291 240.061 230.841 239.464 230.512C235.818 228.63 229.283 232.098 226.69 234.677C226.519 234.847 224.704 237.107 223.867 238.204L223.659 238.1C224.786 234.55 226.226 231.109 227.964 227.815C228.898 225.993 229.891 224.296 230.891 222.673C232.054 223.251 237.404 225.852 240.257 225.963C242.991 226.074 246.503 225.452 248.34 223.214C248.79 222.703 249.128 222.102 249.331 221.452C249.534 220.802 249.597 220.116 249.517 219.44C249.438 218.763 249.217 218.111 248.868 217.525C248.52 216.94 248.052 216.434 247.496 216.042C244.072 213.774 237.204 216.501 234.336 218.783C234.181 218.909 232.736 220.347 231.699 221.406C232.165 220.665 232.632 219.924 233.092 219.235C234.803 216.649 236.537 214.389 238.086 212.404C238.975 211.277 239.797 210.277 240.583 209.351C242.027 209.351 247.829 209.151 250.363 207.958C252.897 206.765 255.668 204.631 256.291 201.801C256.482 201.125 256.525 200.416 256.416 199.723C256.306 199.03 256.048 198.368 255.659 197.784C255.269 197.2 254.758 196.708 254.159 196.341C253.561 195.974 252.89 195.741 252.193 195.658Z" fill="#CCCCCC"/>
<path d="M32.7019 224.378C35.7546 225.37 42.9048 224.518 42.9122 224.518C42.9196 224.518 40.9116 219.976 40.7486 219.702C38.8592 216.568 33.3391 211.618 29.3676 212.559C28.7095 212.735 28.0954 213.046 27.5654 213.474C27.0354 213.902 26.6013 214.436 26.2911 215.043C25.9809 215.649 25.8016 216.314 25.7649 216.994C25.7281 217.674 25.8348 218.355 26.0778 218.991C27.0262 221.725 30.1012 223.525 32.7019 224.378Z" fill="#CCCCCC"/>
<path d="M105.322 218.924C105.389 218.961 106.167 214.034 106.182 213.738C106.33 210.077 104.478 202.92 100.625 201.497C99.9791 201.28 99.2952 201.202 98.6173 201.266C97.9394 201.331 97.2826 201.537 96.6895 201.872C96.0964 202.206 95.5802 202.662 95.1745 203.209C94.7687 203.756 94.4823 204.382 94.334 205.046C93.593 207.847 95.1861 211.048 96.8829 213.197C98.8834 215.664 105.322 218.924 105.322 218.924Z" fill="#CCCCCC"/>
<path d="M124.187 190.887C120.09 190.842 115.807 196.874 114.644 200.349C114.547 200.645 113.517 205.535 113.591 205.535H113.68C112.999 206.484 112.273 207.506 111.509 208.64C110.109 210.744 108.546 213.13 107.064 215.849C105.392 218.758 103.89 221.762 102.566 224.845C101.061 228.289 99.8702 231.862 99.0095 235.522V235.655C98.9132 234.455 98.5353 231.113 98.476 230.861C97.6536 227.29 93.9785 220.88 89.8884 220.488C89.2086 220.448 88.5281 220.553 87.8912 220.794C87.2543 221.035 86.6753 221.407 86.1917 221.886C85.7081 222.366 85.3308 222.941 85.0843 223.576C84.8378 224.211 84.7277 224.89 84.7611 225.571C84.8055 228.468 87.1617 231.135 89.3698 232.758C91.8594 234.581 98.4093 235.944 98.928 236.048C98.14 239.791 97.6029 243.584 97.3202 247.399C97.1423 249.622 97.0312 251.845 96.9497 254.112C96.8311 253.082 96.72 252.156 96.6903 252.03C95.8753 248.459 92.1928 242.042 88.1101 241.694C87.4297 241.653 86.7484 241.757 86.1106 241.997C85.4728 242.238 84.8929 242.61 84.4085 243.089C83.924 243.569 83.5461 244.145 83.2991 244.78C83.0522 245.416 82.9419 246.096 82.9754 246.777C83.0198 249.674 85.3834 252.341 87.5841 253.964C89.7847 255.587 95.3863 256.876 96.8608 257.194C96.8608 258.054 96.8089 258.921 96.7867 259.78C96.6978 263.93 96.6237 268.064 96.4236 272.117C96.3569 273.547 96.2384 274.948 96.1198 276.355C96.0161 275.437 95.9198 274.666 95.8975 274.547C95.0751 270.983 91.3925 264.567 87.3099 264.174C86.6301 264.135 85.9496 264.239 85.3127 264.48C84.6758 264.721 84.0968 265.093 83.6132 265.573C83.1296 266.052 82.7523 266.628 82.5058 267.263C82.2593 267.897 82.1492 268.577 82.1825 269.257C82.2196 272.154 84.5832 274.829 86.7912 276.444C88.9993 278.06 94.0452 279.23 95.8012 279.616C95.6382 281.053 95.4752 282.49 95.2603 283.876C95.0825 284.817 94.9862 285.736 94.7565 286.677C94.5268 287.618 94.3563 288.529 94.1563 289.441C93.7043 291.189 93.2523 292.99 92.7707 294.679C92.4447 295.857 92.1113 296.976 91.7779 298.102C91.8668 296.68 91.9705 293.894 91.9557 293.657C91.6017 290.45 90.4307 287.389 88.5547 284.765C88.5311 284.407 88.4741 284.053 88.3843 283.706C88.2337 283.041 87.945 282.416 87.5372 281.87C87.1293 281.325 86.6113 280.871 86.0168 280.538C85.4222 280.206 84.7644 280.002 84.086 279.94C83.4076 279.878 82.7238 279.959 82.0788 280.179C78.2333 281.609 76.4031 288.781 76.5736 292.434C76.5736 292.649 76.9514 294.983 77.2034 296.45C76.9218 295.613 76.6625 294.79 76.3587 293.931C75.7807 292.226 75.1435 290.545 74.4693 288.744L73.3949 286.121C73.054 285.239 72.5798 284.35 72.1723 283.461C71.1868 281.401 70.0902 279.364 68.9344 277.333C70.4163 276.822 75.6918 274.918 77.6998 273.043C79.7078 271.169 81.7306 268.242 81.4045 265.367C81.3591 264.686 81.1705 264.023 80.851 263.42C80.5314 262.817 80.0882 262.289 79.5504 261.869C79.0125 261.45 78.3921 261.148 77.7297 260.985C77.0673 260.822 76.378 260.8 75.7066 260.921C71.6981 261.751 68.801 268.561 68.4083 272.199C68.4083 272.428 68.4083 275.074 68.4083 276.526C67.6673 275.311 67.0079 274.095 66.2521 272.895C64.0885 269.413 61.8064 265.96 59.5021 262.522C58.8056 261.47 58.1165 260.403 57.4274 259.343C57.9609 259.165 64.2738 257.039 66.5263 254.942C68.5194 253.075 70.5496 250.141 70.231 247.266C70.1833 246.586 69.9932 245.924 69.673 245.322C69.3528 244.72 68.9096 244.193 68.3723 243.774C67.835 243.354 67.2155 243.053 66.5541 242.889C65.8927 242.724 65.2041 242.701 64.5331 242.82C60.5172 243.657 57.6201 250.467 57.2348 254.105C57.2348 254.379 57.2348 258.18 57.2792 259.15C55.7973 256.816 54.271 254.475 52.9002 252.104C51.0263 248.914 49.363 245.605 47.921 242.198C48.1655 242.116 54.7674 239.93 57.0643 237.752C59.0649 235.885 61.0951 232.95 60.7691 230.068C60.7235 229.388 60.5351 228.726 60.216 228.123C59.8969 227.521 59.4544 226.993 58.9174 226.574C58.3804 226.154 57.7609 225.852 57.0994 225.689C56.438 225.525 55.7494 225.502 55.0786 225.623C51.0626 226.46 48.1655 233.262 47.7728 236.907C47.7728 237.144 47.7728 240.041 47.7728 241.42L47.5431 241.471C46.2149 238.026 45.1933 234.471 44.4904 230.846C44.0607 228.838 43.7495 226.897 43.5272 225.007C44.8016 224.726 50.5884 223.37 52.878 221.666C55.1675 219.962 57.4052 217.339 57.4274 214.442C57.4551 213.76 57.3387 213.08 57.0858 212.446C56.833 211.812 56.4493 211.239 55.9598 210.763C55.4704 210.288 54.8862 209.921 54.2454 209.687C53.6045 209.452 52.9215 209.356 52.2408 209.403C48.1581 209.796 44.5349 216.242 43.7495 219.813C43.705 220.006 43.4901 222.036 43.3494 223.518C43.253 222.666 43.1419 221.784 43.0678 220.962C42.7714 217.872 42.6899 215.034 42.6455 212.508C42.6455 211.07 42.6455 209.774 42.6455 208.566C43.7495 207.632 48.1952 203.809 49.3881 201.319C50.581 198.83 51.4109 195.392 50.129 192.806C49.8393 192.19 49.4231 191.641 48.9076 191.196C48.392 190.752 47.7887 190.42 47.1366 190.224C46.4846 190.027 45.7986 189.97 45.1231 190.057C44.4476 190.143 43.7978 190.37 43.216 190.724C39.7706 192.947 39.5112 200.356 40.4745 203.876C40.556 204.179 42.3861 208.818 42.4454 208.766L42.5121 208.714C42.4676 209.877 42.4306 211.13 42.4158 212.5C42.4158 215.027 42.4158 217.88 42.6529 220.984C42.8642 224.334 43.2674 227.669 43.8606 230.972C44.5228 234.674 45.5147 238.309 46.8244 241.834C46.8244 241.879 46.8244 241.916 46.8763 241.96C46.1353 241.012 43.9792 238.434 43.7939 238.256C41.1413 235.729 34.5321 232.41 30.931 234.373C30.3406 234.714 29.8287 235.175 29.4288 235.727C29.0288 236.279 28.7498 236.909 28.6099 237.576C28.4701 238.243 28.4725 238.932 28.6171 239.599C28.7617 240.265 29.0453 240.893 29.4491 241.442C31.0792 243.835 34.5246 244.761 37.2513 244.887C40.3337 245.035 46.5503 242.561 47.0467 242.368C48.4359 245.919 50.0571 249.374 51.8999 252.712C52.9817 254.66 54.1228 256.594 55.3009 258.513C54.634 257.72 54.0339 257.031 53.9375 256.92C51.2849 254.394 44.6757 251.074 41.0746 253.038C40.4842 253.378 39.9723 253.84 39.5724 254.392C39.1724 254.944 38.8934 255.574 38.7535 256.241C38.6137 256.908 38.6161 257.597 38.7607 258.263C38.9054 258.929 39.1889 259.557 39.5927 260.106C41.2228 262.492 44.6682 263.418 47.4024 263.552C50.1365 263.685 55.5083 261.685 56.9161 261.136L58.2869 263.359C60.5098 266.864 62.7326 270.354 64.785 273.844C65.526 275.073 66.1928 276.311 66.8745 277.548C66.2818 276.807 65.7705 276.252 65.689 276.163C63.0364 273.643 56.4271 270.324 52.8261 272.28C52.2357 272.621 51.7238 273.082 51.3238 273.634C50.9239 274.186 50.6449 274.816 50.505 275.483C50.3652 276.15 50.3676 276.839 50.5122 277.506C50.6568 278.172 50.9403 278.8 51.3442 279.349C52.9743 281.742 56.4197 282.668 59.1538 282.802C61.8879 282.935 66.7411 281.12 68.4157 280.475C69.0751 281.764 69.7346 283.054 70.3125 284.328C70.6904 285.21 71.1128 286.032 71.4388 286.936C71.7648 287.84 72.1279 288.707 72.4613 289.581C73.0466 291.278 73.669 293.034 74.1951 294.709C74.573 295.872 74.9361 296.991 75.2621 298.11C74.5211 296.88 73.0985 294.494 72.9577 294.309C70.7349 291.411 64.6887 287.129 60.8284 288.522C60.1937 288.77 59.6184 289.149 59.1402 289.635C58.662 290.12 58.2916 290.701 58.0531 291.339C57.8147 291.978 57.7136 292.659 57.7564 293.34C57.7993 294.02 57.9851 294.683 58.3017 295.287C59.5539 297.895 62.8141 299.332 65.4963 299.881C68.4601 300.473 74.7138 299.058 75.4992 298.88C76.0623 300.74 76.5958 302.548 77.07 304.274C78.7075 310.202 79.856 315.151 80.6117 318.671L83.3755 318.404C83.3755 318.323 83.3755 318.249 83.3236 318.167C82.4789 314.625 81.2045 309.572 79.404 303.6C78.8335 301.703 78.1962 299.695 77.5146 297.672C79.3516 296.722 81.1306 295.663 82.842 294.501C85.1537 296.561 90.7627 298.695 91.4889 298.947C90.9332 300.807 90.3774 302.615 89.8217 304.311C87.9323 310.135 86.117 314.922 84.8351 318.278L87.873 317.982C89.066 314.67 90.5775 310.261 92.1409 305.038C92.7114 303.148 93.282 301.118 93.8525 299.028C94.6379 299.117 101.047 299.769 103.907 298.836C106.508 297.976 109.575 296.168 110.509 293.427C110.751 292.79 110.855 292.109 110.816 291.429C110.778 290.749 110.596 290.085 110.284 289.48C109.971 288.875 109.535 288.342 109.003 287.917C108.471 287.491 107.856 287.182 107.197 287.01C103.203 286.084 97.7203 291.048 95.8382 294.19C95.7271 294.375 94.7491 296.524 94.1563 297.895C94.386 297.043 94.6157 296.213 94.838 295.331C95.2899 293.59 95.6975 291.834 96.1346 289.952C96.3125 289.033 96.4977 288.107 96.6829 287.166C96.8682 286.225 96.9793 285.247 97.1349 284.269C97.4461 282.009 97.6536 279.704 97.8092 277.378C99.3355 277.771 104.782 279.097 107.486 278.637C110.19 278.178 113.495 276.852 114.836 274.288C115.17 273.695 115.376 273.038 115.44 272.36C115.504 271.681 115.425 270.997 115.208 270.352C114.991 269.706 114.64 269.114 114.179 268.612C113.718 268.111 113.157 267.712 112.532 267.442C108.723 265.923 102.551 270.005 100.217 272.821C100.076 272.999 98.6242 275.214 97.8536 276.444C97.9351 275.044 98.0241 273.651 98.0611 272.228C98.1722 268.131 98.1574 263.981 98.1574 259.847C98.1574 258.573 98.1574 257.313 98.1574 256.046C98.6983 256.194 105.137 257.906 108.168 257.394C110.865 256.942 114.177 255.609 115.518 253.045C115.852 252.452 116.058 251.795 116.122 251.117C116.186 250.438 116.107 249.754 115.89 249.109C115.672 248.463 115.322 247.871 114.861 247.369C114.4 246.868 113.839 246.469 113.214 246.199C109.405 244.68 103.233 248.762 100.899 251.578C100.721 251.793 98.6761 254.979 98.1574 255.816C98.1574 253.03 98.2315 250.259 98.3945 247.525C98.5884 243.83 99.024 240.152 99.6986 236.514C99.9505 236.581 106.664 238.396 109.768 237.878C112.465 237.418 115.777 236.092 117.118 233.528C117.453 232.935 117.658 232.278 117.722 231.6C117.787 230.922 117.707 230.238 117.49 229.592C117.273 228.947 116.922 228.354 116.461 227.853C116 227.351 115.439 226.953 114.814 226.682C111.006 225.163 104.833 229.238 102.499 232.061C102.344 232.247 100.766 234.669 100.032 235.848L99.8172 235.759C100.595 232.116 101.696 228.55 103.107 225.104C103.848 223.2 104.685 221.399 105.522 219.71C106.738 220.169 112.317 222.244 115.155 222.081C117.882 221.925 121.32 220.969 122.927 218.561C123.327 218.009 123.605 217.379 123.744 216.713C123.884 216.046 123.881 215.357 123.736 214.692C123.591 214.026 123.308 213.399 122.904 212.85C122.501 212.301 121.986 211.844 121.394 211.507C117.778 209.581 111.198 212.989 108.568 215.501C108.42 215.642 107.086 217.213 106.197 218.369C106.589 217.628 106.975 216.805 107.367 216.072C108.849 213.338 110.331 210.922 111.68 208.788C112.458 207.588 113.162 206.513 113.903 205.513C115.333 205.35 121.09 204.617 123.498 203.187C125.906 201.757 128.462 199.356 128.781 196.481C128.886 195.806 128.847 195.116 128.667 194.457C128.487 193.798 128.17 193.184 127.736 192.656C127.302 192.128 126.762 191.697 126.15 191.392C125.539 191.087 124.87 190.915 124.187 190.887Z" fill="#CCCCCC"/>
<path d="M261.957 38.0219C267.482 37.1211 271.231 31.9119 270.33 26.3867C269.429 20.8616 264.22 17.1129 258.695 18.0137C253.169 18.9145 249.421 24.1238 250.321 29.6489C251.222 35.174 256.432 38.9227 261.957 38.0219Z" stroke="#ABABAB" stroke-miterlimit="10"/>
<path d="M283.868 30.9305V25.1363H277.096C276.673 22.6465 275.696 20.2838 274.236 18.2232L279.022 13.4367L274.925 9.33922L270.138 14.1258C268.077 12.6664 265.715 11.6867 263.225 11.2583V4.49341H257.431V11.2657C254.942 11.6919 252.58 12.6691 250.518 14.1258L245.731 9.33181L241.634 13.4293L246.42 18.2158C244.967 20.2799 243.99 22.6411 243.56 25.1289H236.788V30.9231H243.56C243.99 33.4108 244.967 35.7721 246.42 37.8362L241.634 42.6227L245.731 46.7276L250.518 41.941C252.578 43.401 254.941 44.3786 257.431 44.8011V51.5734H263.225V44.8011C265.715 44.3786 268.078 43.401 270.138 41.941L274.925 46.7276L279.022 42.6301L274.236 37.8362C275.696 35.7756 276.673 33.4129 277.096 30.9231L283.868 30.9305Z" stroke="#ABABAB" stroke-miterlimit="10"/>
<path d="M291.033 72.1361C294.992 68.1777 294.992 61.7598 291.033 57.8014C287.075 53.843 280.657 53.8429 276.699 57.8014C272.74 61.7598 272.74 68.1777 276.699 72.1361C280.657 76.0946 287.075 76.0946 291.033 72.1361Z" stroke="#ABABAB" stroke-miterlimit="10"/>
<path d="M307.408 67.8669V62.0727H300.636C300.21 59.5862 299.233 57.2266 297.776 55.1671L302.562 50.3731L298.465 46.2831L293.678 51.0696C291.62 49.6149 289.264 48.6378 286.78 48.2095V41.4373H280.986V48.2095C278.496 48.6379 276.134 49.6177 274.073 51.077L269.286 46.2905L265.189 50.3805L269.975 55.1745C268.519 57.2341 267.541 59.5936 267.115 62.0801H260.328V67.8744H267.1C267.526 70.3631 268.504 72.7252 269.96 74.7874L265.174 79.574L269.271 83.6714L274.058 78.8849C276.12 80.3442 278.482 81.3239 280.971 81.7523V88.5172H286.78V81.7523C289.269 81.3239 291.631 80.3442 293.693 78.8849L298.48 83.6714L302.577 79.574L297.791 74.7874C299.247 72.7252 300.225 70.3631 300.651 67.8744L307.408 67.8669Z" stroke="#ABABAB" stroke-miterlimit="10"/>
<path d="M41.5552 51.64C45.2586 51.64 48.2608 48.6378 48.2608 44.9344C48.2608 41.231 45.2586 38.2288 41.5552 38.2288C37.8518 38.2288 34.8496 41.231 34.8496 44.9344C34.8496 48.6378 37.8518 51.64 41.5552 51.64Z" stroke="#ABABAB" stroke-miterlimit="10"/>
<path d="M57.0857 46.8534V43.0227H52.64C52.3575 41.3762 51.7093 39.814 50.7432 38.4511L53.9145 35.2872L51.2026 32.5827L48.0387 35.7466C46.6758 34.7805 45.1136 34.1323 43.4671 33.8498V29.4041H39.6363V33.8498C37.9918 34.1314 36.4319 34.7797 35.0721 35.7466L31.8934 32.5827L29.1815 35.2872L32.3454 38.4511C31.3901 39.8175 30.7498 41.3789 30.4708 43.0227H25.9658V46.8534H30.4115C30.695 48.4984 31.3403 50.0599 32.3009 51.4251L29.1371 54.5889L31.8934 57.2934L35.0721 54.137C36.4319 55.1038 37.9918 55.7521 39.6363 56.0338V60.4795H43.4671V56.0338C45.1136 55.7512 46.6758 55.1031 48.0387 54.137L51.2026 57.3008L53.9145 54.5964L50.7432 51.4325C51.7103 50.0674 52.3585 48.5025 52.64 46.8534H57.0857Z" stroke="#ABABAB" stroke-miterlimit="10"/>
<path d="M299.406 237.618C303.109 237.618 306.111 234.616 306.111 230.913C306.111 227.209 303.109 224.207 299.406 224.207C295.702 224.207 292.7 227.209 292.7 230.913C292.7 234.616 295.702 237.618 299.406 237.618Z" stroke="#ABABAB" stroke-miterlimit="10"/>
<path d="M314.937 232.832V229.001H310.491C310.209 227.355 309.56 225.792 308.594 224.43L311.766 221.266L309.054 218.561L305.89 221.725C304.527 220.759 302.965 220.111 301.318 219.828V215.383H297.487V219.828C295.843 220.11 294.283 220.758 292.923 221.725L289.744 218.561L287.033 221.266L290.196 224.43C289.236 225.795 288.59 227.356 288.307 229.001H283.861V232.832H288.307C288.59 234.477 289.236 236.038 290.196 237.404L287.033 240.567L289.744 243.272L292.908 240.108C294.268 241.075 295.828 241.723 297.473 242.005V246.451H301.303V242.005C302.95 241.722 304.512 241.074 305.875 240.108L309.039 243.272L311.751 240.567L308.579 237.404C309.546 236.041 310.194 234.478 310.476 232.832H314.937Z" stroke="#ABABAB" stroke-miterlimit="10"/>
<path d="M219.192 30.7825H71.4834V304.393H219.192V30.7825Z" fill="white"/>
<path d="M211.5 16.3486H80.656C77.5118 16.3486 74.4964 17.5977 72.2731 19.8209C70.0498 22.0442 68.8008 25.0596 68.8008 28.2038V306.156C68.8008 309.301 70.0498 312.316 72.2731 314.539C74.4964 316.763 77.5118 318.012 80.656 318.012H211.5C214.645 318.012 217.66 316.763 219.883 314.539C222.107 312.316 223.356 309.301 223.356 306.156V28.2038C223.356 25.0596 222.107 22.0442 219.883 19.8209C217.66 17.5977 214.645 16.3486 211.5 16.3486ZM216.502 300.133H75.662V36.8359H216.502V300.133Z" fill="#263238"/>
<path opacity="0.3" d="M75.662 36.8359H158.056L166.088 16.3486H80.656C77.5118 16.3486 74.4964 17.5977 72.2731 19.8209C70.0498 22.0442 68.8008 25.0596 68.8008 28.2038V264.493L75.6768 246.962L75.662 36.8359Z" fill="white"/>
<path d="M211.708 39.5701H200.03V45.9719H211.708V39.5701Z" stroke="#263238" stroke-width="0.821067" stroke-linecap="round" stroke-linejoin="round"/>
<path d="M209.137 39.5701H200.03V45.9719H209.137V39.5701Z" fill="#263238" stroke="#263238" stroke-width="0.725073" stroke-linecap="round" stroke-linejoin="round"/>
<path d="M213.33 41.3557H211.686V44.1787H213.33V41.3557Z" fill="#263238" stroke="#263238" stroke-width="0.725073" stroke-linecap="round" stroke-linejoin="round"/>
<path d="M80.9744 41.5559H78.833V45.2236H80.9744V41.5559Z" fill="#263238" stroke="#263238" stroke-width="0.883086" stroke-linecap="round" stroke-linejoin="round"/>
<path d="M84.3386 40.2664H82.1973V45.2233H84.3386V40.2664Z" fill="#263238" stroke="#263238" stroke-width="0.883086" stroke-linecap="round" stroke-linejoin="round"/>
<path d="M87.7029 38.74H85.5615V45.2233H87.7029V38.74Z" fill="#263238" stroke="#263238" stroke-width="0.883086" stroke-linecap="round" stroke-linejoin="round"/>
<path d="M213.175 49.5286H77.9297V59.6944H213.175V49.5286Z" fill="#7D18F7"/>
<path d="M106.789 77.4398L103.618 76.5433C103.618 76.4692 103.618 76.4025 103.618 76.3284C103.618 76.2543 103.618 76.0395 103.618 75.8987L106.752 75.0169C107.041 74.9534 107.295 74.7803 107.46 74.5339C107.625 74.2875 107.688 73.9869 107.637 73.6949C107.585 73.403 107.422 73.1423 107.183 72.9675C106.943 72.7927 106.645 72.7173 106.352 72.757L103.077 72.9941C103.01 72.7867 102.928 72.5866 102.847 72.3866L105.485 70.4897C105.732 70.3295 105.908 70.0805 105.976 69.7942C106.045 69.5079 106.001 69.2061 105.854 68.9513C105.706 68.6964 105.467 68.5079 105.184 68.4246C104.902 68.3414 104.598 68.3698 104.336 68.504L101.372 69.8451C101.239 69.6821 101.098 69.5191 100.95 69.3561L102.78 66.6664C102.878 66.5511 102.951 66.4178 102.997 66.274C103.043 66.1303 103.06 65.9789 103.047 65.8286C103.034 65.6782 102.992 65.5319 102.923 65.3978C102.854 65.2638 102.758 65.1448 102.643 65.0475C102.528 64.9502 102.395 64.8765 102.251 64.8307C102.107 64.785 101.956 64.768 101.805 64.7807C101.655 64.7934 101.509 64.8356 101.375 64.9049C101.241 64.9742 101.122 65.0692 101.024 65.1845L98.6606 67.4815C98.4754 67.3703 98.2901 67.2666 98.0975 67.1703L98.8977 64.0138C98.9571 63.8706 98.9868 63.7169 98.9852 63.5618C98.9835 63.4068 98.9505 63.2537 98.8881 63.1118C98.8257 62.9699 98.7352 62.842 98.6221 62.736C98.5089 62.63 98.3755 62.548 98.2298 62.4949C98.0842 62.4419 97.9293 62.4188 97.7744 62.4273C97.6196 62.4357 97.4681 62.4753 97.3291 62.5439C97.19 62.6124 97.0662 62.7084 96.9653 62.8261C96.8643 62.9437 96.7882 63.0806 96.7415 63.2284L95.3041 66.1922C95.0966 66.1552 94.8892 66.1181 94.6743 66.0959L94.3483 62.8357C94.3483 62.5311 94.2273 62.239 94.0119 62.0236C93.7965 61.8083 93.5044 61.6873 93.1998 61.6873C92.8952 61.6873 92.6031 61.8083 92.3877 62.0236C92.1723 62.239 92.0513 62.5311 92.0513 62.8357L91.7179 66.1404C91.5104 66.1404 91.303 66.2145 91.0955 66.2589L89.6655 63.2951C89.6188 63.1473 89.5427 63.0104 89.4417 62.8927C89.3407 62.7751 89.217 62.6791 89.0779 62.6106C88.9389 62.542 88.7874 62.5024 88.6325 62.494C88.4777 62.4855 88.3228 62.5086 88.1771 62.5616C88.0315 62.6147 87.898 62.6967 87.7849 62.8027C87.6718 62.9087 87.5813 63.0365 87.5189 63.1785C87.4565 63.3204 87.4235 63.4735 87.4218 63.6285C87.4202 63.7835 87.4499 63.9373 87.5093 64.0805L88.3317 67.3111L87.7983 67.6297L85.4346 65.3327C85.3373 65.2169 85.2182 65.1214 85.084 65.0517C84.9498 64.982 84.8031 64.9393 84.6524 64.9263C84.5018 64.9132 84.35 64.9299 84.2058 64.9755C84.0616 65.0211 83.9277 65.0946 83.812 65.1919C83.6962 65.2892 83.6007 65.4084 83.5309 65.5426C83.4612 65.6768 83.4186 65.8234 83.4055 65.9741C83.3924 66.1248 83.4092 66.2766 83.4547 66.4208C83.5003 66.565 83.5739 66.6988 83.6712 66.8146L85.5606 69.5858C85.4272 69.7414 85.2939 69.897 85.1753 70.06L82.1448 68.6966C81.8827 68.5625 81.5791 68.534 81.2967 68.6173C81.0143 68.7005 80.7746 68.889 80.6272 69.1439C80.4798 69.3988 80.4359 69.7005 80.5046 69.9868C80.5733 70.2731 80.7493 70.5221 80.9963 70.6824L83.723 72.6533C83.6564 72.8386 83.5897 73.0312 83.5304 73.2238L80.2109 72.9793C80.0598 72.9462 79.9035 72.9439 79.7514 72.9727C79.5994 73.0014 79.4547 73.0606 79.3261 73.1467C79.1975 73.2328 79.0876 73.344 79.003 73.4736C78.9185 73.6032 78.861 73.7485 78.834 73.9009C78.807 74.0533 78.8111 74.2096 78.846 74.3603C78.881 74.5111 78.946 74.6532 79.0372 74.7782C79.1285 74.9032 79.244 75.0085 79.377 75.0877C79.5099 75.1669 79.6575 75.2185 79.8108 75.2392L83.0562 76.158V76.3655C83.0562 76.5137 83.0562 76.6619 83.0562 76.81L79.8479 77.7214C79.6991 77.7465 79.5569 77.8008 79.4292 77.8812C79.3016 77.9616 79.1912 78.0665 79.1044 78.1898C79.0176 78.3131 78.9561 78.4525 78.9234 78.5997C78.8908 78.747 78.8877 78.8992 78.9143 79.0477C78.9685 79.3463 79.138 79.6115 79.3862 79.7862C79.6343 79.9609 79.9412 80.0309 80.2406 79.9813L83.6119 79.7294C83.6786 79.922 83.7453 80.1073 83.8194 80.2925L81.1149 82.2412C80.9839 82.3164 80.869 82.4168 80.7768 82.5365C80.6846 82.6563 80.6169 82.793 80.5777 82.939C80.5385 83.0849 80.5284 83.2371 80.5481 83.3869C80.5678 83.5367 80.6169 83.6812 80.6926 83.812C80.8459 84.0752 81.097 84.2672 81.3911 84.3463C81.6852 84.4253 81.9987 84.3851 82.2634 84.2344L85.3383 82.8488C85.4643 83.0044 85.5976 83.1526 85.731 83.3008L83.8194 85.9978C83.6229 86.2307 83.5269 86.5321 83.5526 86.8357C83.5783 87.1393 83.7236 87.4203 83.9564 87.6168C84.1893 87.8133 84.4907 87.9093 84.7943 87.8836C85.0979 87.8579 85.3789 87.7126 85.5754 87.4797L87.9909 85.1309C88.1613 85.2346 88.3392 85.331 88.517 85.4273L87.6945 88.6578C87.6055 88.94 87.6288 89.2457 87.7596 89.5111C87.8904 89.7766 88.1186 89.9813 88.3967 90.0826C88.6747 90.1838 88.9811 90.1739 89.252 90.0548C89.5229 89.9357 89.7374 89.7166 89.8507 89.4432L91.3326 86.4202L91.9328 86.5165L92.2662 89.8211C92.2662 90.1257 92.3872 90.4178 92.6026 90.6332C92.818 90.8486 93.1101 90.9696 93.4147 90.9696C93.7193 90.9696 94.0114 90.8486 94.2268 90.6332C94.4421 90.4178 94.5631 90.1257 94.5631 89.8211L94.8966 86.4943C95.104 86.4943 95.3041 86.4276 95.5041 86.3831L96.9416 89.3469C96.9882 89.4948 97.0644 89.6316 97.1653 89.7493C97.2663 89.8669 97.3901 89.9629 97.5291 90.0315C97.6682 90.1 97.8197 90.1397 97.9745 90.1481C98.1293 90.1565 98.2842 90.1335 98.4299 90.0804C98.5756 90.0273 98.709 89.9453 98.8221 89.8393C98.9353 89.7333 99.0257 89.6055 99.0882 89.4636C99.1506 89.3216 99.1836 89.1685 99.1852 89.0135C99.1869 88.8585 99.1571 88.7047 99.0977 88.5615L98.2827 85.3384C98.4679 85.2421 98.6458 85.1309 98.8236 85.0198L101.18 87.3167C101.376 87.5496 101.657 87.6948 101.961 87.7206C102.265 87.7463 102.566 87.6503 102.799 87.4538C103.032 87.2573 103.177 86.9763 103.203 86.6727C103.228 86.3691 103.132 86.0677 102.936 85.8348L101.076 83.0933C101.214 82.9303 101.348 82.7673 101.476 82.6043L104.44 83.9454C104.571 84.0302 104.717 84.0875 104.871 84.1138C105.024 84.1402 105.182 84.135 105.333 84.0987C105.484 84.0623 105.627 83.9956 105.752 83.9024C105.877 83.8093 105.981 83.6917 106.059 83.5569C106.137 83.4221 106.187 83.2728 106.205 83.1181C106.224 82.9634 106.211 82.8066 106.167 82.6572C106.123 82.5078 106.049 82.3689 105.949 82.249C105.85 82.1291 105.727 82.0306 105.588 81.9596L102.914 80.0332C102.995 79.8331 103.062 79.6331 103.129 79.4256L106.381 79.6627C106.675 79.7025 106.973 79.6271 107.212 79.4523C107.452 79.2775 107.615 79.0168 107.666 78.7248C107.718 78.4329 107.655 78.1322 107.49 77.8858C107.325 77.6394 107.071 77.4663 106.781 77.4028L106.789 77.4398ZM101.417 76.3284C101.42 77.2156 101.274 78.0971 100.987 78.9366L97.0453 76.2691C97.0421 75.6185 96.8697 74.9798 96.5449 74.416C96.2201 73.8522 95.7542 73.3826 95.1929 73.0534L94.8151 68.3632C96.6774 68.7149 98.3577 69.708 99.5638 71.1699C100.77 72.6319 101.426 74.4702 101.417 76.3655V76.3284ZM93.2665 74.1649C93.6903 74.1575 94.1068 74.2766 94.4627 74.5068C94.8186 74.7371 95.0979 75.0682 95.2649 75.4579C95.4319 75.8475 95.4791 76.2781 95.4003 76.6947C95.3216 77.1112 95.1206 77.4949 94.823 77.7968C94.5253 78.0986 94.1445 78.305 93.7291 78.3895C93.3137 78.4741 92.8825 78.433 92.4905 78.2715C92.0986 78.11 91.7636 77.8354 91.5283 77.4827C91.2931 77.13 91.1682 76.7153 91.1696 76.2914C91.1667 76.0121 91.2188 75.735 91.3229 75.4759C91.4271 75.2168 91.5813 74.9807 91.7767 74.7812C91.9721 74.5816 92.2049 74.4225 92.4618 74.313C92.7187 74.2034 92.9946 74.1455 93.2739 74.1426L93.2665 74.1649ZM91.4734 68.4373L91.0659 73.2387C90.5803 73.5861 90.1845 74.0442 89.9113 74.5751C89.6381 75.106 89.4954 75.6943 89.495 76.2914L85.6347 78.8995C85.3683 78.0815 85.2357 77.2258 85.242 76.3655C85.2408 74.5354 85.8556 72.7583 86.9873 71.3201C88.119 69.882 89.7018 68.8665 91.4808 68.4373H91.4734ZM93.3109 84.4344C92.1818 84.4363 91.0648 84.2012 90.0323 83.7442C88.9997 83.2873 88.0746 82.6188 87.3166 81.7818L91.7623 79.7442C92.244 79.9633 92.767 80.0766 93.2961 80.0766C93.8252 80.0766 94.3482 79.9633 94.8299 79.7442L99.3126 81.804C98.5527 82.6369 97.6267 83.3013 96.5942 83.7544C95.5618 84.2074 94.4458 84.4391 93.3183 84.4344H93.3109Z" fill="#263238"/>
<path d="M111.094 79.4405L110.835 80.8187H110.094L111.413 73.9575H112.517L113.836 80.8187H113.095L112.835 79.4405H111.094ZM111.198 78.7811H112.724L111.916 74.817L111.198 78.7811Z" fill="#263238"/>
<path d="M116.074 73.9575C117.141 73.9575 117.63 74.6021 117.63 75.6617V79.1219C117.63 80.1741 117.141 80.8187 116.074 80.8187H114.466V73.9575H116.074ZM116.074 80.1222C116.622 80.1222 116.889 79.7814 116.889 79.1516V75.6247C116.889 74.9948 116.622 74.654 116.066 74.654H115.244V80.1222H116.074Z" fill="#263238"/>
<path d="M118.919 73.9574L120.037 79.9294L121.141 73.9574H121.882L120.564 80.8111H119.437L118.141 73.95L118.919 73.9574Z" fill="#263238"/>
<path d="M122.964 79.4405L122.705 80.8187H121.964L123.283 73.9575H124.387L125.706 80.8187H124.965L124.705 79.4405H122.964ZM123.068 78.7811H124.594L123.853 74.817L123.068 78.7811Z" fill="#263238"/>
<path d="M127.01 80.8111H126.321V73.95H127.292L128.885 78.9143V73.95H129.559V80.8111H128.766L127.01 75.2614V80.8111Z" fill="#263238"/>
<path d="M133.404 75.6246V76.2396H132.663V75.5802C132.663 74.9652 132.419 74.5947 131.863 74.5947C131.307 74.5947 131.055 74.9652 131.055 75.5802V79.2108C131.055 79.8258 131.315 80.2037 131.863 80.2037C132.411 80.2037 132.663 79.8258 132.663 79.2108V78.3217H133.404V79.1738C133.404 80.2111 132.915 80.9002 131.856 80.9002C130.796 80.9002 130.314 80.2111 130.314 79.1738V75.6246C130.314 74.5799 130.803 73.8982 131.856 73.8982C132.908 73.8982 133.404 74.5725 133.404 75.6246Z" fill="#263238"/>
<path d="M136.516 76.9953V77.6843H134.842V80.1221H136.894V80.8111H134.071V73.95H136.894V74.6464H134.842V76.9878L136.516 76.9953Z" fill="#263238"/>
<path d="M139.213 73.9575C140.28 73.9575 140.769 74.6021 140.769 75.6617V79.1219C140.769 80.1741 140.28 80.8187 139.213 80.8187H137.605V73.9575H139.213ZM139.213 80.1222C139.762 80.1222 140.028 79.7814 140.028 79.1516V75.6247C140.028 74.9948 139.762 74.654 139.199 74.654H138.369V80.1222H139.213Z" fill="#263238"/>
<path d="M146.037 75.6246V76.2396H145.296V75.5802C145.296 74.9652 145.045 74.5947 144.489 74.5947C143.933 74.5947 143.681 74.9652 143.681 75.5802V79.2108C143.681 79.8258 143.941 80.2037 144.489 80.2037C145.037 80.2037 145.296 79.8258 145.296 79.2108V78.3217H146.037V79.1738C146.037 80.2111 145.548 80.9002 144.489 80.9002C143.429 80.9002 142.955 80.2111 142.955 79.1738V75.6246C142.955 74.5799 143.444 73.8982 144.489 73.8982C145.534 73.8982 146.037 74.5725 146.037 75.6246Z" fill="#263238"/>
<path d="M147.483 79.2034C147.483 79.8184 147.727 80.1963 148.283 80.1963C148.839 80.1963 149.076 79.8184 149.076 79.2034V73.9575H149.817V79.1442C149.817 80.1815 149.335 80.878 148.275 80.878C147.216 80.878 146.749 80.1815 146.749 79.1442V73.9575H147.49L147.483 79.2034Z" fill="#263238"/>
<path d="M153.506 75.6244V75.8097H152.765V75.5874C152.765 74.9724 152.528 74.6093 151.98 74.6093C151.432 74.6093 151.195 74.9724 151.195 75.58C151.195 77.1137 153.499 77.2619 153.499 79.1958C153.499 80.2331 153.003 80.9148 151.95 80.9148C150.898 80.9148 150.409 80.2331 150.409 79.1958V78.8031H151.15V79.2329C151.15 79.8553 151.409 80.2183 151.958 80.2183C152.506 80.2183 152.758 79.8553 152.758 79.2329C152.758 77.7065 150.461 77.5583 150.461 75.6244C150.461 74.5649 150.957 73.9128 151.987 73.9128C153.017 73.9128 153.506 74.5649 153.506 75.6244Z" fill="#263238"/>
<path d="M155.174 80.8111V74.6464H153.914V73.95H157.196V74.6464H155.929V80.8111H155.174Z" fill="#263238"/>
<path d="M157.655 75.6246C157.655 74.5725 158.174 73.8982 159.226 73.8982C160.278 73.8982 160.804 74.5725 160.804 75.6246V79.1738C160.804 80.2111 160.286 80.9002 159.226 80.9002C158.167 80.9002 157.655 80.2111 157.655 79.1738V75.6246ZM158.396 79.2108C158.396 79.8406 158.663 80.2037 159.211 80.2037C159.76 80.2037 160.026 79.8406 160.026 79.2108V75.5802C160.026 74.9652 159.767 74.5947 159.211 74.5947C158.656 74.5947 158.396 74.9652 158.396 75.5802V79.2108Z" fill="#263238"/>
<path d="M164.065 80.8111H163.324L162.19 75.3503V80.8111H161.561V73.95H162.628L163.754 79.433L164.843 73.95H165.917V80.8111H165.176V75.2911L164.065 80.8111Z" fill="#263238"/>
<path d="M167.428 73.9574V80.8111H166.688V73.95L167.428 73.9574Z" fill="#263238"/>
<path d="M171.193 80.8111H168.073V80.1295L170.429 74.6464H168.207V73.95H171.237V74.639L168.873 80.1146H171.193V80.8111Z" fill="#263238"/>
<path d="M172.675 79.4405L172.416 80.8187H171.675L172.994 73.9575H174.157L175.476 80.8187H174.735L174.476 79.4405H172.675ZM172.779 78.7811H174.305L173.527 74.817L172.779 78.7811Z" fill="#263238"/>
<path d="M176.691 80.8111V74.6464H175.424V73.95H178.706V74.6464H177.447V80.8111H176.691Z" fill="#263238"/>
<path d="M179.995 73.9574V80.8111H179.254V73.95L179.995 73.9574Z" fill="#263238"/>
<path d="M180.722 75.6246C180.722 74.5725 181.24 73.8982 182.293 73.8982C183.345 73.8982 183.871 74.5725 183.871 75.6246V79.1738C183.871 80.2111 183.352 80.9002 182.293 80.9002C181.233 80.9002 180.722 80.2111 180.722 79.1738V75.6246ZM181.463 79.2108C181.463 79.8406 181.729 80.2037 182.278 80.2037C182.826 80.2037 183.093 79.8406 183.093 79.2108V75.5802C183.093 74.9652 182.833 74.5947 182.278 74.5947C181.722 74.5947 181.463 74.9652 181.463 75.5802V79.2108Z" fill="#263238"/>
<path d="M185.271 80.8111H184.589V73.95H185.56L187.145 78.9143V73.95H187.827V80.8111H187.027L185.271 75.2688V80.8111Z" fill="#263238"/>
<path d="M203.202 112.798H83.9682C82.8019 112.798 81.8564 113.744 81.8564 114.91V115.347C81.8564 116.513 82.8019 117.459 83.9682 117.459H203.202C204.368 117.459 205.314 116.513 205.314 115.347V114.91C205.314 113.744 204.368 112.798 203.202 112.798Z" fill="#D6D6D6"/>
<path d="M91.1778 119.2C93.4284 119.2 95.253 117.375 95.253 115.125C95.253 112.874 93.4284 111.05 91.1778 111.05C88.9271 111.05 87.1025 112.874 87.1025 115.125C87.1025 117.375 88.9271 119.2 91.1778 119.2Z" fill="#969696"/>
<path d="M203.202 134.738H83.9682C82.8019 134.738 81.8564 135.683 81.8564 136.849V137.286C81.8564 138.453 82.8019 139.398 83.9682 139.398H203.202C204.368 139.398 205.314 138.453 205.314 137.286V136.849C205.314 135.683 204.368 134.738 203.202 134.738Z" fill="#D6D6D6"/>
<path d="M180.855 141.139C183.105 141.139 184.93 139.315 184.93 137.064C184.93 134.814 183.105 132.989 180.855 132.989C178.604 132.989 176.779 134.814 176.779 137.064C176.779 139.315 178.604 141.139 180.855 141.139Z" fill="#969696"/>
<path d="M122.69 208.299H106.285V225.83H122.69V208.299Z" fill="#7D18F7"/>
<path d="M143.615 186.1H127.21V203.631H143.615V186.1Z" fill="#263238"/>
<path d="M122.69 186.1H106.285V203.631H122.69V186.1Z" fill="#263238"/>
<path opacity="0.31" d="M122.69 186.1H106.285V203.631H122.69V186.1Z" fill="white"/>
<path d="M143.363 208.299H126.958V225.83H143.363V208.299Z" fill="#7D18F7"/>
<path opacity="0.5" d="M143.363 208.299H126.958V225.83H143.363V208.299Z" fill="black"/>
<path d="M101.632 208.299H85.2275V225.83H101.632V208.299Z" fill="#7D18F7"/>
<path opacity="0.75" d="M101.632 208.299H85.2275V225.83H101.632V208.299Z" fill="white"/>
<path d="M101.632 186.1H85.2275V203.631H101.632V186.1Z" fill="#263238"/>
<path opacity="0.75" d="M101.632 186.1H85.2275V203.631H101.632V186.1Z" fill="white"/>
<path d="M198.363 162.575H168.525C165.525 162.575 163.094 165.007 163.094 168.006V225.926C163.094 228.926 165.525 231.358 168.525 231.358H198.363C201.363 231.358 203.794 228.926 203.794 225.926V168.006C203.794 165.007 201.363 162.575 198.363 162.575Z" stroke="#ABABAB" stroke-miterlimit="10"/>
<path d="M200.927 167.732H165.962V226.201H200.927V167.732Z" fill="#7D18F7"/>
<path opacity="0.75" d="M200.927 167.732H165.962V226.201H200.927V167.732Z" fill="white"/>
<path d="M200.927 167.732H165.962V226.201H200.927V167.732Z" stroke="#ABABAB" stroke-miterlimit="10"/>
<path d="M105.794 264.022C111.149 262.751 114.459 257.379 113.187 252.024C111.915 246.669 106.543 243.359 101.188 244.63C95.8333 245.902 92.5232 251.274 93.795 256.629C95.0668 261.984 100.439 265.294 105.794 264.022Z" stroke="#ABABAB" stroke-miterlimit="10"/>
<path d="M104.915 254.327C104.916 254.044 104.833 253.766 104.677 253.53C104.52 253.294 104.297 253.109 104.035 253C103.774 252.891 103.486 252.862 103.208 252.917C102.929 252.972 102.674 253.108 102.474 253.308C102.273 253.509 102.137 253.764 102.082 254.043C102.027 254.321 102.056 254.609 102.165 254.87C102.274 255.132 102.459 255.355 102.695 255.512C102.931 255.668 103.209 255.751 103.492 255.75C103.869 255.75 104.231 255.6 104.498 255.333C104.765 255.066 104.915 254.704 104.915 254.327Z" fill="#969696"/>
<path d="M103.492 255.75V261.085" stroke="#ABABAB" stroke-miterlimit="10"/>
<path d="M104.915 254.327H111.317" stroke="#ABABAB" stroke-miterlimit="10"/>
<path d="M93.1041 179.15C97.8674 179.15 101.729 175.289 101.729 170.526C101.729 165.762 97.8674 161.901 93.1041 161.901C88.3409 161.901 84.4795 165.762 84.4795 170.526C84.4795 175.289 88.3409 179.15 93.1041 179.15Z" stroke="#ABABAB" stroke-miterlimit="10"/>
<path d="M89.2065 174.697C90.2828 174.697 91.1552 173.825 91.1552 172.748C91.1552 171.672 90.2828 170.8 89.2065 170.8C88.1303 170.8 87.2578 171.672 87.2578 172.748C87.2578 173.825 88.1303 174.697 89.2065 174.697Z" fill="#263238" stroke="#263238" stroke-miterlimit="10"/>
<path d="M90.0444 169.133C91.1206 169.133 91.9931 168.26 91.9931 167.184C91.9931 166.108 91.1206 165.235 90.0444 165.235C88.9682 165.235 88.0957 166.108 88.0957 167.184C88.0957 168.26 88.9682 169.133 90.0444 169.133Z" fill="#263238" stroke="#263238" stroke-miterlimit="10"/>
<path d="M95.6089 168.021C96.6851 168.021 97.5575 167.148 97.5575 166.072C97.5575 164.996 96.6851 164.124 95.6089 164.124C94.5326 164.124 93.6602 164.996 93.6602 166.072C93.6602 167.148 94.5326 168.021 95.6089 168.021Z" fill="#263238" stroke="#263238" stroke-miterlimit="10"/>
<path d="M95.0527 172.749L105.352 179.15" stroke="#ABABAB" stroke-width="2" stroke-miterlimit="10" stroke-linecap="round"/>
<path d="M143.585 104.225C144.755 104.225 145.704 103.277 145.704 102.106C145.704 100.936 144.755 99.9871 143.585 99.9871C142.415 99.9871 141.466 100.936 141.466 102.106C141.466 103.277 142.415 104.225 143.585 104.225Z" stroke="#ABABAB" stroke-miterlimit="10"/>
<path d="M143.585 94.2224V98.2754" stroke="#ABABAB" stroke-miterlimit="10"/>
<path d="M143.585 105.596V109.649" stroke="#ABABAB" stroke-miterlimit="10"/>
<path d="M135.871 101.936H139.924" stroke="#ABABAB" stroke-miterlimit="10"/>
<path d="M147.245 101.936H151.298" stroke="#ABABAB" stroke-miterlimit="10"/>
<path d="M138.132 107.389L140.999 104.522" stroke="#ABABAB" stroke-miterlimit="10"/>
<path d="M146.171 99.3499L149.038 96.4824" stroke="#ABABAB" stroke-miterlimit="10"/>
<path d="M138.132 96.4824L140.999 99.3499" stroke="#ABABAB" stroke-miterlimit="10"/>
<path d="M146.171 104.522L149.038 107.389" stroke="#ABABAB" stroke-miterlimit="10"/>
<path d="M128.536 250.281C128.536 248.133 129.603 246.74 131.759 246.74C133.915 246.74 134.997 248.133 134.997 250.281V257.55C134.997 259.706 133.93 261.114 131.759 261.114C129.588 261.114 128.536 259.706 128.536 257.55V250.281ZM130.085 257.654C130.085 258.921 130.633 259.684 131.759 259.684C132.886 259.684 133.426 258.943 133.426 257.654V250.2C133.426 248.911 132.908 248.148 131.759 248.148C130.611 248.148 130.085 248.888 130.085 250.2V257.654Z" fill="#969696"/>
<path d="M141.118 251.348V253.304H139.636V251.348H141.118ZM141.118 259.024V260.973H139.636V259.024H141.118Z" fill="#969696"/>
<path d="M145.727 250.281C145.727 248.133 146.794 246.74 148.95 246.74C151.106 246.74 152.195 248.133 152.195 250.281V257.55C152.195 259.706 151.121 261.114 148.95 261.114C146.779 261.114 145.727 259.706 145.727 257.55V250.281ZM147.283 257.654C147.283 258.921 147.823 259.684 148.95 259.684C150.076 259.684 150.624 258.943 150.624 257.654V250.2C150.624 248.911 150.098 248.148 148.95 248.148C147.801 248.148 147.283 248.888 147.283 250.2V257.654Z" fill="#969696"/>
<path d="M156.678 250.281C156.678 248.133 157.745 246.74 159.901 246.74C162.057 246.74 163.139 248.133 163.139 250.281V257.55C163.139 259.706 162.072 261.114 159.901 261.114C157.73 261.114 156.678 259.706 156.678 257.55V250.281ZM158.226 257.654C158.226 258.921 158.775 259.684 159.901 259.684C161.027 259.684 161.568 258.943 161.568 257.654V250.2C161.568 248.911 161.049 248.148 159.901 248.148C158.752 248.148 158.226 248.888 158.226 250.2V257.654Z" fill="#969696"/>
<path d="M93.2451 274.547H113.955" stroke="#ABABAB" stroke-miterlimit="10"/>
<path d="M93.2451 280.542H113.955" stroke="#ABABAB" stroke-miterlimit="10"/>
<path d="M93.2451 286.543H113.955" stroke="#ABABAB" stroke-miterlimit="10"/>
<path d="M135.486 274.547H156.196" stroke="#ABABAB" stroke-miterlimit="10"/>
<path d="M135.486 280.542H156.196" stroke="#ABABAB" stroke-miterlimit="10"/>
<path d="M135.486 286.543H156.196" stroke="#ABABAB" stroke-miterlimit="10"/>
<path d="M178.817 274.547H199.527" stroke="#ABABAB" stroke-miterlimit="10"/>
<path d="M178.817 280.542H199.527" stroke="#ABABAB" stroke-miterlimit="10"/>
<path d="M178.817 286.543H199.527" stroke="#ABABAB" stroke-miterlimit="10"/>
<path d="M197.993 249.992C197.993 254.556 189.717 263.781 189.717 263.781C189.717 263.781 181.44 254.556 181.44 249.992C181.44 247.797 182.312 245.692 183.865 244.14C185.417 242.588 187.522 241.716 189.717 241.716C191.912 241.716 194.017 242.588 195.569 244.14C197.121 245.692 197.993 247.797 197.993 249.992Z" stroke="#ABABAB" stroke-miterlimit="10"/>
<path d="M193.421 249.993C193.421 250.725 193.204 251.442 192.797 252.051C192.39 252.66 191.811 253.135 191.134 253.415C190.457 253.696 189.712 253.769 188.994 253.626C188.275 253.483 187.615 253.13 187.097 252.612C186.579 252.094 186.226 251.434 186.083 250.715C185.94 249.997 186.013 249.252 186.294 248.575C186.574 247.898 187.049 247.319 187.658 246.912C188.267 246.505 188.984 246.288 189.716 246.288C190.699 246.288 191.641 246.678 192.336 247.373C193.031 248.068 193.421 249.01 193.421 249.993Z" stroke="#ABABAB" stroke-miterlimit="10"/>
<path d="M193.665 135.397L188.975 138.131C188.975 138.131 185.5 141.599 187.241 141.095C188.445 140.722 189.607 140.226 190.709 139.613C190.709 139.613 189.472 141.836 190.212 142.095C190.953 142.355 192.947 140.11 192.947 140.11C192.947 140.11 192.45 142.332 193.687 141.851C194.925 141.369 197.392 138.62 197.392 138.62C197.392 138.62 195.155 135.153 193.665 135.397Z" fill="#C4C4C4" stroke="#263238" stroke-miterlimit="10"/>
<path d="M233.75 154.432L202.482 141.251L196.644 134.404C196.644 134.404 189.694 131.44 187.715 131.44C185.737 131.44 188.456 134.167 189.938 134.664C191.384 135.235 192.792 135.899 194.154 136.649L194.651 140.613H188.975C187.982 140.613 188.478 142.095 188.478 142.095L194.68 143.577C194.68 143.577 196.414 144.815 197.162 144.815C197.911 144.815 201.045 146.497 201.045 146.497L231.276 167.406C232.052 167.908 232.934 168.224 233.853 168.331C234.772 168.438 235.702 168.332 236.573 168.021L246.028 164.65L253.593 141.569L233.75 154.432Z" fill="#C4C4C4" stroke="#263238" stroke-miterlimit="10"/>
<path d="M253.593 141.569L233.75 154.41L221.258 149.164L218.153 158.189L231.253 167.391C232.03 167.893 232.912 168.21 233.831 168.316C234.749 168.423 235.68 168.317 236.551 168.006L246.028 164.65L253.593 141.569Z" fill="#7D18F7" stroke="#263238" stroke-miterlimit="10"/>
<path d="M235.929 303.837C235.929 303.837 224.54 307.638 221.851 308.446C219.161 309.254 216.701 309.802 219.139 312.514C221.576 315.226 233.513 315.478 237.033 315.478C240.552 315.478 242.997 317.375 243.812 315.204C244.627 313.033 244.627 307.053 244.627 307.053L235.929 303.837Z" fill="#7D18F7" stroke="#263238" stroke-miterlimit="10"/>
<path d="M244.123 313.914C241.093 313.818 235.365 313.536 228.564 312.662C223.088 311.921 219.931 310.965 218.19 310.202C217.938 310.743 218.146 311.469 219.094 312.513C221.532 315.225 233.469 315.477 236.988 315.477C240.508 315.477 242.953 317.374 243.768 315.203C243.925 314.785 244.044 314.353 244.123 313.914Z" fill="white" stroke="#263238" stroke-miterlimit="10"/>
<path d="M270.368 306.549C270.368 306.549 261.691 313.062 259.254 314.411C256.816 315.759 256.29 317.937 258.439 317.937C260.587 317.937 278.237 318.478 280.667 316.856C283.098 315.233 279.585 307.364 279.585 307.364C279.585 307.364 273.08 306.549 270.368 306.549Z" fill="#7D18F7" stroke="#263238" stroke-miterlimit="10"/>
<path d="M280.667 316.856C281.364 316.396 281.564 315.426 281.512 314.285C273.623 315.678 265.602 316.175 257.601 315.767C256.727 316.878 256.912 317.945 258.431 317.945C260.602 317.915 278.229 318.478 280.667 316.856Z" fill="white" stroke="#263238" stroke-miterlimit="10"/>
<path d="M247.073 185.352C247.073 185.352 237.551 229.52 237.01 239.286C236.47 249.051 235.929 293.538 235.929 295.976V303.837L244.605 307.09C244.605 307.09 248.673 283.75 249.488 276.43C250.303 269.109 250.844 260.973 251.926 257.165C253.008 253.356 255.179 237.9 255.994 234.662C256.809 231.424 258.135 221.125 257.476 202.579C256.816 184.033 249.355 180.795 247.073 185.352Z" fill="#263238" stroke="#263238" stroke-miterlimit="10"/>
<path d="M245.45 181.773C245.45 181.773 245.769 196.414 246.095 210.73C246.423 224.7 248.013 238.612 250.844 252.297C253.556 265.315 264.13 293.575 265.211 298.184C266.293 302.793 270.094 307.638 270.094 307.638C270.094 307.638 276.022 308.179 279.586 307.364C279.586 307.364 276.059 288.366 275.518 278.06C274.977 267.753 268.464 253.112 267.108 249.585C265.752 246.058 271.48 221.14 271.48 221.14C271.48 221.14 279.289 206.825 277.333 197.711C276.219 192.336 273.627 187.379 269.85 183.396C269.85 183.396 250.326 186.026 245.45 181.773Z" fill="#263238" stroke="#263238" stroke-miterlimit="10"/>
<path d="M246.502 202.179C246.502 202.179 248.725 233.403 249.955 242.264C251.185 251.126 252.489 254.616 252.489 254.616" stroke="white" stroke-linecap="round" stroke-linejoin="round"/>
<path d="M267.924 133.53C267.924 133.53 264.671 131.092 257.624 136.242C250.578 141.391 245.162 152.083 244.443 157.485C243.702 163.19 243.65 177.75 243.65 181.003C243.65 184.255 243.391 186.263 247.296 187.567C251.2 188.871 269.524 187.049 272.095 185.745C274.666 184.441 270.458 180.039 270.999 174.075C271.539 168.11 275.644 157.322 275.37 148.882C275.096 140.443 268.998 134.612 267.924 133.53Z" fill="#7D18F7" stroke="#263238" stroke-miterlimit="10"/>
<path d="M254.638 102.617C254.638 102.617 251.386 106.685 251.386 109.397C251.386 112.109 250.785 114.887 249.163 116.243C247.54 117.599 247.599 118.888 248.955 119.155L250.311 119.429C250.311 119.429 251.052 125.357 252.156 127.513C253.26 129.669 257.084 127.832 257.899 127.565C258.714 127.298 257.632 135.426 257.632 136.242C257.632 137.057 265.782 135.967 266.849 135.967C267.916 135.967 267.39 126.209 268.472 123.223C269.554 120.237 273.088 116.443 268.746 109.938C264.404 103.432 257.076 98.0085 254.638 102.617Z" fill="#C4C4C4" stroke="#263238" stroke-miterlimit="10"/>
<path d="M253.438 114.702C253.438 115.376 253.712 115.917 254.045 115.917C254.379 115.917 254.653 115.376 254.653 114.702C254.653 114.028 254.379 113.487 254.045 113.487C253.712 113.487 253.438 114.028 253.438 114.702Z" fill="#263238"/>
<path d="M251.8 121.563C251.8 121.563 252.682 122.623 254.764 121.208" stroke="#263238" stroke-linecap="round" stroke-linejoin="round"/>
<path d="M252.504 111.309C252.504 111.309 254.09 109.367 256.023 111.835" stroke="#263238" stroke-linecap="round" stroke-linejoin="round"/>
<path d="M262.329 131.781C262.329 131.781 255.298 134.308 254.179 135.997C253.06 137.687 252.208 140.502 253.897 140.502C255.587 140.502 262.893 135.582 264.871 135.153C266.849 134.723 264.849 129.247 262.329 131.781Z" fill="white" stroke="#263238" stroke-miterlimit="10"/>
<path d="M254.638 102.617C255.306 106.254 256.791 109.692 258.98 112.672C262.5 117.281 266.026 116.199 265.211 119.993C264.396 123.786 258.432 129.21 260.877 135.182C263.322 141.154 268.738 142.229 269.82 144.666C270.902 147.104 273.347 147.926 270.635 157.685C267.923 167.443 263.855 175.312 267.382 184.529C270.909 193.747 280.127 196.192 287.181 192.939C294.234 189.686 289.892 179.38 291.515 173.141C293.138 166.902 307.245 162.027 302.363 144.666C297.48 127.306 286.062 122.705 283.098 116.74C280.134 110.775 280.653 100.743 274.421 96.675C268.19 92.6072 261.129 96.1341 258.691 96.675C256.253 97.2159 254.897 93.1481 250.014 95.0449C245.132 96.9417 242.227 106.085 250.904 107.982C250.918 107.96 252.467 104.522 254.638 102.617Z" fill="#263238" stroke="#263238" stroke-miterlimit="10"/>
<path d="M263.604 115.636C265.304 117.397 267.339 118.801 269.59 119.763C279.719 124.209 286.684 130.529 286.684 141.295C286.684 152.061 276.555 159.352 276.237 168.495C275.918 177.638 280.986 184.64 286.373 181.832C291.76 179.024 289.218 173.282 287.321 173.282" stroke="white" stroke-linecap="round" stroke-linejoin="round"/>
<path d="M258.824 105.485C259.033 107.383 259.57 109.231 260.41 110.946" stroke="white" stroke-linecap="round" stroke-linejoin="round"/>
<path d="M291.819 135.493C293.501 139.42 295.072 144.548 294.916 149.816C294.605 160.93 281.305 165.961 279.719 172.608C278.297 178.587 282.572 184.011 286.388 181.795" stroke="white" stroke-linecap="round" stroke-linejoin="round"/>
<path d="M287.951 128.284C288.846 129.621 289.658 131.012 290.381 132.448" stroke="white" stroke-linecap="round" stroke-linejoin="round"/>
<path d="M273.073 149.816C274.359 145.566 274.247 141.016 272.754 136.834C270.22 130.166 267.375 127.017 267.375 123.497" stroke="white" stroke-linecap="round" stroke-linejoin="round"/>
<path d="M254.638 102.617C254.162 101.787 253.482 101.091 252.663 100.596C251.844 100.101 250.912 99.8224 249.955 99.7869C246.791 99.7869 247.11 103.907 250.592 104.536" stroke="white" stroke-linecap="round" stroke-linejoin="round"/>
<path d="M256.646 144.881C256.646 144.881 253.142 153.639 253.142 158.611C253.142 163.583 251.393 178.75 251.393 178.75C251.393 178.75 237.671 189.864 233.003 193.058C230.533 194.704 228.19 196.531 225.993 198.526H225.912L217.939 200.749C217.939 200.749 211.27 206.676 211.737 208.158C212.204 209.64 214.701 207.914 214.701 207.914C214.701 207.914 222.644 206.669 225.119 205.432C226.457 204.821 227.65 203.932 228.616 202.823C228.616 202.823 252.549 192.976 255.468 192.094C257.782 191.307 260.027 190.33 262.181 189.175C262.181 189.175 266.56 167.873 268.02 161.16C269.368 154.951 270.472 149.001 268.094 145.83" fill="#C4C4C4"/>
<path d="M256.646 144.881C256.646 144.881 253.142 153.639 253.142 158.611C253.142 163.583 251.393 178.75 251.393 178.75C251.393 178.75 237.671 189.864 233.003 193.058C230.533 194.704 228.19 196.531 225.993 198.526H225.912L217.939 200.749C217.939 200.749 211.27 206.676 211.737 208.158C212.204 209.64 214.701 207.914 214.701 207.914C214.701 207.914 222.644 206.669 225.119 205.432C226.457 204.821 227.65 203.932 228.616 202.823C228.616 202.823 252.549 192.976 255.468 192.094C257.782 191.307 260.027 190.33 262.181 189.175C262.181 189.175 266.56 167.873 268.02 161.16C269.368 154.951 270.472 149.001 268.094 145.83" stroke="#263238" stroke-miterlimit="10"/>
<path d="M211.737 208.225L214.916 205.884L217.724 204.609" stroke="#263238" stroke-linecap="round" stroke-linejoin="round"/>
<path d="M213.634 205.12C213.634 205.12 216.449 202.816 217.472 202.564" stroke="#263238" stroke-linecap="round" stroke-linejoin="round"/>
<path d="M256.987 144.185C256.987 144.185 253.141 153.639 253.141 158.611C253.141 163.583 251.392 178.75 251.392 178.75C251.392 178.75 245.865 183.196 240.634 187.301L248.703 194.762C252 193.451 254.63 192.435 255.475 192.176C257.789 191.389 260.034 190.412 262.188 189.257C262.188 189.257 266.567 167.954 268.027 161.241C269.375 155.032 270.479 149.082 268.101 145.911" fill="#7D18F7"/>
<path d="M256.987 144.185C256.987 144.185 253.141 153.639 253.141 158.611C253.141 163.583 251.392 178.75 251.392 178.75C251.392 178.75 245.865 183.196 240.634 187.301L248.703 194.762C252 193.451 254.63 192.435 255.475 192.176C257.789 191.388 260.034 190.412 262.188 189.257C262.188 189.257 266.567 167.954 268.027 161.241C269.375 155.032 270.479 149.082 268.101 145.911" stroke="#263238" stroke-miterlimit="10"/>
<path d="M333.897 318.656H339.388" stroke="#263238" stroke-linecap="round" stroke-linejoin="round"/>
<path d="M50.3135 318.656H328.214" stroke="#263238" stroke-linecap="round" stroke-linejoin="round"/>
<path d="M7.44238 318.656H45.3346" stroke="#263238" stroke-linecap="round" stroke-linejoin="round"/>
</svg>
