<svg width="344" height="269" viewBox="0 0 344 269" fill="none" xmlns="http://www.w3.org/2000/svg">
<path d="M322.648 161.516C342.934 129.753 351.897 82.4596 332.911 48.0113C315.328 16.2399 277.424 0.897223 242.506 0.0420028C212.299 -0.693487 188.319 8.24356 164.749 25.7927C152.597 34.8495 140.316 44.5391 125.683 49.8158C114.257 53.938 102.506 56.7773 90.7213 59.9245C48.1057 71.3246 21.8419 109.989 27.5633 151.561C31.9763 183.512 56.7776 213.231 88.4208 225.102C112.957 234.304 138.742 227.505 162.449 219.466C175.226 215.13 188.105 210.649 201.592 208.63C214.634 206.672 227.249 209.118 240.163 207.707C271.985 204.234 304.792 189.507 322.648 161.516Z" fill="#7D18F7"/>
<path opacity="0.7" d="M322.648 161.516C342.934 129.753 351.897 82.4596 332.911 48.0113C315.328 16.2399 277.424 0.897223 242.506 0.0420028C212.299 -0.693487 188.319 8.24356 164.749 25.7927C152.597 34.8495 140.316 44.5391 125.683 49.8158C114.257 53.938 102.506 56.7773 90.7213 59.9245C48.1057 71.3246 21.8419 109.989 27.5633 151.561C31.9763 183.512 56.7776 213.231 88.4208 225.102C112.957 234.304 138.742 227.505 162.449 219.466C175.226 215.13 188.105 210.649 201.592 208.63C214.634 206.672 227.249 209.118 240.163 207.707C271.985 204.234 304.792 189.507 322.648 161.516Z" fill="white"/>
<path d="M332.714 177.064H329.097H165.339H161.722V184.316H165.339V258.028H329.097V184.316H332.714V177.064Z" fill="#7D18F7"/>
<path opacity="0.5" d="M332.714 177.064H329.097H165.339H161.722V184.316H165.339V258.028H329.097V184.316H332.714V177.064Z" fill="white"/>
<path d="M169.727 215.557H214.386V191.714H169.727V215.557ZM170.633 192.595H213.48V214.702H170.633V192.595Z" fill="white"/>
<path d="M225.188 215.557H269.856V191.714H225.188V215.557ZM226.111 192.62H268.966V214.702H226.111V192.62Z" fill="white"/>
<path d="M280.657 191.714V215.557H325.317V191.714H280.657ZM324.41 214.702H281.564V192.62H324.41V214.702Z" fill="white"/>
<path d="M169.727 247.611H214.386V223.742H169.727V247.611ZM170.633 224.648H213.48V246.705H170.633V224.648Z" fill="white"/>
<path d="M225.188 247.611H269.856V223.742H225.188V247.611ZM226.111 224.648H268.966V246.705H226.111V224.648Z" fill="white"/>
<path d="M280.657 247.611H325.317V223.742H280.657V247.611ZM281.564 224.648H324.41V246.705H281.564V224.648Z" fill="white"/>
<path d="M192.535 206.672C196.541 206.672 199.788 205.454 199.788 203.952C199.788 202.45 196.541 201.232 192.535 201.232C188.53 201.232 185.283 202.45 185.283 203.952C185.283 205.454 188.53 206.672 192.535 206.672Z" fill="white"/>
<path d="M247.731 206.672C251.736 206.672 254.983 205.454 254.983 203.952C254.983 202.45 251.736 201.232 247.731 201.232C243.725 201.232 240.479 202.45 240.479 203.952C240.479 205.454 243.725 206.672 247.731 206.672Z" fill="white"/>
<path d="M304.527 206.672C308.532 206.672 311.779 205.454 311.779 203.952C311.779 202.45 308.532 201.232 304.527 201.232C300.521 201.232 297.274 202.45 297.274 203.952C297.274 205.454 300.521 206.672 304.527 206.672Z" fill="white"/>
<path d="M192.535 233.26C188.533 233.26 185.283 234.475 185.283 235.98C185.283 237.485 188.533 238.691 192.535 238.691C196.538 238.691 199.788 237.477 199.788 235.98C199.788 234.483 196.538 233.26 192.535 233.26Z" fill="white"/>
<path d="M247.731 233.26C243.728 233.26 240.479 234.475 240.479 235.98C240.479 237.485 243.728 238.691 247.731 238.691C251.733 238.691 254.983 237.477 254.983 235.98C254.983 234.483 251.767 233.26 247.731 233.26Z" fill="white"/>
<path d="M304.527 233.26C300.524 233.26 297.283 234.475 297.283 235.98C297.283 237.485 300.524 238.691 304.527 238.691C308.529 238.691 311.779 237.477 311.779 235.98C311.779 234.483 308.538 233.26 304.527 233.26Z" fill="white"/>
<path d="M141.598 170.727C138.297 175.627 133.696 181.998 131.241 187.113C132.173 183.743 133.088 180.553 133.918 177.705C135.175 175.234 138.545 168.999 142.47 164.877C147.405 159.592 149.517 156.196 146.858 155.906C145.019 155.7 139.631 162.876 136.253 170C136.988 167.562 137.57 165.724 137.963 164.62C138.126 164.124 138.28 163.586 138.434 163.013C141.928 158.124 145.11 153.02 147.961 147.73C152.947 138.416 154.555 129.625 151.228 133.405C148.166 136.886 142.838 154.195 138.605 162.337C138.964 160.934 139.306 159.386 139.605 157.856C140.204 156.376 140.991 154.871 141.435 153.503C142.128 151.399 142.735 149.278 143.223 147.114C144.027 143.752 144.434 140.308 144.437 136.851C144.523 132.791 143.417 128.795 141.256 125.357C140.683 124.502 137.176 119.26 136.125 121.936C135.987 122.382 135.961 122.855 136.048 123.313C136.561 127.769 138.177 131.865 139.178 136.201C140.674 142.693 139.682 153.588 139.178 158.223C138.99 158.959 138.75 159.865 138.468 160.917C139.161 152.844 135.663 143.274 132.421 141.598C128.41 139.528 132.344 147.653 135.44 154.751C136.907 157.858 137.597 161.274 137.45 164.706C136.817 167.032 136.09 169.658 135.338 172.309C135.184 172.668 135.047 173.036 134.91 173.395C135.258 171.665 135.399 169.899 135.329 168.135C135.038 163.5 129.787 154.221 126.298 155.529C122.809 156.838 128.718 161.73 131.874 167.426C133.53 170.575 134.166 174.161 133.696 177.688C133.696 177.902 133.627 178.107 133.602 178.304C133.234 179.518 132.875 180.681 132.533 181.793C131.677 184.359 130.95 186.822 130.224 189.199C131.117 185.75 131.508 182.19 131.387 178.629C130.95 171.838 126.974 165.424 123.69 164.543C120.406 163.663 126.674 174.746 128.778 180.972C129.922 184.609 130.116 188.477 129.343 192.21C128.325 195.579 127.367 198.906 126.384 202.421C126.658 197.817 126.558 193.198 126.084 188.609C125.443 181.049 120.953 176.226 117.857 176.422C114.761 176.619 117.994 180.912 122.458 190.106C124.815 194.933 125.865 200.294 125.503 205.654C125.101 207.133 124.647 208.656 124.271 210.246C123.792 212.059 123.416 214.035 123.074 216.053C122.629 214.249 121.962 211.615 121.184 208.707C120.278 205.493 119.62 202.213 119.217 198.898C118.798 195.041 117.78 190.226 114 188.224C113.743 188.046 113.45 187.925 113.142 187.871C112.833 187.817 112.517 187.832 112.214 187.913C111.912 187.995 111.631 188.141 111.392 188.343C111.152 188.544 110.959 188.796 110.827 189.08C110.48 189.907 110.403 190.823 110.605 191.697C111.107 194.32 111.97 196.862 113.17 199.248C112.428 200.672 112.091 202.273 112.195 203.875C112.195 204.474 112.247 205.072 112.29 205.671C111.956 205.055 111.64 204.491 111.34 203.961C110.797 203.054 110.129 202.228 109.356 201.506C109.55 200.089 109.647 198.66 109.647 197.23C109.647 195.357 107.449 190.576 105.465 194.117C104.67 195.537 104.823 198.316 104.746 200.163C104.208 200.676 104.045 201.72 104.498 203.362C104.191 207.638 104.131 212.017 105.166 216.19L104.481 215.001C103.517 210.054 102.946 205.038 102.771 200.001C102.523 191.68 103.849 184.855 101.582 182.289C99.3158 179.724 98.0501 188.746 99.0165 198.581C99.4718 203.069 100.668 207.45 102.557 211.546C100.334 207.552 98.1356 203.482 96.0574 199.573C95.2022 197.478 93.0813 191.808 93.603 186.061C94.2615 178.817 94.7404 172.882 91.9866 168.802C89.2328 164.723 88.6598 167.374 90.0111 175.875C90.9347 181.708 91.9182 189.507 93.6115 194.921C92.0037 191.816 90.49 188.866 89.1387 186.198C88.369 183.529 86.5731 176.679 86.5731 170.992C86.5731 163.757 85.8034 159.874 83.6653 161.439C82.1772 162.542 83.1351 171.471 85.5297 178.98C84.4094 176.696 83.5627 174.943 83.0752 173.908C82.8529 173.438 82.6048 172.933 82.3226 172.411C81.5401 166.455 80.3833 160.554 78.859 154.743C76.1479 144.531 71.3159 137.005 71.4699 142.043C71.6067 146.678 79.5261 162.961 81.9976 171.804C81.2964 170.53 80.4839 169.17 79.6629 167.845C79.0899 166.348 78.6366 164.714 78.0294 163.415C77.0972 161.405 76.0966 159.438 74.9763 157.522C73.2654 154.51 71.2074 151.708 68.8444 149.175C66.107 146.058 62.5004 143.83 58.4876 142.778C57.4785 142.539 51.3551 141.068 52.3985 143.804C52.5935 144.222 52.887 144.586 53.2537 144.865C56.6746 147.773 60.6428 149.663 64.3715 152.151C69.8963 155.88 76.6097 164.518 79.3807 168.272L80.6977 170.727C75.6947 164.347 66.6037 159.746 63.0973 160.738C58.7528 161.961 67.1681 165.211 74.275 168.281C77.4683 169.55 80.304 171.578 82.5364 174.19C83.6653 176.328 84.9225 178.732 86.1797 181.186C86.3251 181.554 86.4619 181.913 86.6073 182.272C85.6831 180.77 84.5836 179.384 83.3318 178.141C79.9537 174.96 69.7765 171.753 68.126 175.088C66.4754 178.424 74.1125 177.979 80.3214 179.98C83.6655 181.154 86.5656 183.331 88.6256 186.215C88.7453 186.386 88.8565 186.565 88.9762 186.728C89.5407 187.857 90.0709 188.96 90.5755 190.003C91.7386 192.458 92.8504 194.758 93.9365 196.99C92.2412 193.849 90.101 190.968 87.5822 188.438C82.622 183.769 75.3355 181.802 72.3165 183.427C69.2976 185.052 81.4589 188.84 87.2487 191.979C90.5674 193.857 93.3497 196.554 95.3305 199.813C96.887 202.968 98.4521 206.056 100.137 209.297C97.1952 205.745 93.972 202.436 90.4985 199.402C84.8626 194.314 78.286 193.852 76.1565 196.11C74.027 198.367 79.3208 199.3 88.8479 202.951C93.8615 204.87 98.2846 208.069 101.676 212.23C102.395 213.59 103.13 214.984 103.917 216.438C104.772 218.08 105.858 219.791 107.004 221.493C105.448 220.483 103.156 219.012 100.607 217.422C97.7473 215.691 95.0278 213.738 92.4741 211.581C89.5321 209.058 85.504 206.227 81.3562 207.347C81.0474 207.392 80.7523 207.505 80.4918 207.676C80.2312 207.848 80.0116 208.075 79.8484 208.341C79.6852 208.607 79.5825 208.905 79.5475 209.215C79.5125 209.526 79.546 209.84 79.6458 210.135C79.9478 210.981 80.5147 211.707 81.2622 212.205C85.162 215.224 90.4045 216.678 94.9457 218.465C99.1072 220.103 103.373 221.462 107.714 222.536C108.792 224.084 109.912 225.615 111.041 227.069L109.005 227.128C106.594 227.205 95.7154 222.271 90.1907 220.689C84.6659 219.106 79.5004 222.1 85.2902 225.213C91.0801 228.326 106.825 227.633 106.825 227.633L111.366 227.496C112.435 228.865 113.478 230.164 114.47 231.353H92.8931V237.34H97.1692L100.59 258.626H129.266L132.729 237.34H137.005V231.353H122.715C122.599 228.766 122.668 226.174 122.92 223.596C123.873 222.627 124.932 221.766 126.076 221.031C132.353 216.695 142.992 216.336 145.823 207.98C146.507 205.97 145.729 203.388 143.325 203.499C141.615 203.576 139.759 205.098 138.682 206.338C135.09 210.486 132.387 214.788 127.718 217.935C126.113 219.168 124.572 220.481 123.1 221.869C123.262 220.509 123.467 219.055 123.732 217.499C124.861 215.497 126.148 213.59 127.581 211.794C131.404 207.048 137.219 204.268 141.35 199.744C142.616 198.359 144.283 193.381 140.418 194.613C138.707 195.16 136.672 197.769 135.286 198.957C131.481 202.378 127.589 206.022 125.109 210.52C125.212 210.075 125.323 209.665 125.426 209.186C128.094 204.908 131.099 200.85 134.414 197.05C139.905 190.807 145.532 186.719 145.626 183.298C145.72 179.878 138.639 185.608 132.627 193.441C129.899 197.035 127.784 201.055 126.366 205.337C127.47 200.907 128.641 196.426 129.787 192.133C130.574 189.995 132.909 184.436 137.211 180.579C142.641 175.73 147.037 171.727 147.815 166.895C148.594 162.063 146.413 163.594 141.598 170.727ZM111.229 225.734C110.417 224.631 109.57 223.434 108.663 222.108C108.123 219.86 107.763 217.572 107.586 215.267C107.476 213.304 107.568 211.335 107.859 209.391C109.319 211.199 110.869 212.931 112.503 214.582C112.464 216.292 112.255 217.994 111.879 219.662C111.559 221.674 111.342 223.701 111.229 225.734ZM115.881 231.37C114.778 230.199 113.572 228.805 112.264 227.094C112.297 225.738 112.483 224.389 112.82 223.075C113.342 221.002 114.093 218.994 115.06 217.088C117.087 219.012 118.575 220.287 118.575 220.287L121.996 223.289C121.731 226.273 121.577 229.078 121.483 231.353L115.881 231.37ZM122.039 222.767L120.508 221.424C119.653 220.654 118.114 217.678 116.437 214.249C117.152 212.806 117.786 211.324 118.336 209.81C120.149 213.171 121.757 215.797 122.706 217.191C122.432 219.047 122.219 220.937 122.039 222.767Z" fill="#7D18F7"/>
<path opacity="0.5" d="M141.598 170.727C138.297 175.627 133.696 181.998 131.241 187.113C132.173 183.743 133.088 180.553 133.918 177.705C135.175 175.234 138.545 168.999 142.47 164.877C147.405 159.592 149.517 156.196 146.858 155.906C145.019 155.7 139.631 162.876 136.253 170C136.988 167.562 137.57 165.724 137.963 164.62C138.126 164.124 138.28 163.586 138.434 163.013C141.928 158.124 145.11 153.02 147.961 147.73C152.947 138.416 154.555 129.625 151.228 133.405C148.166 136.886 142.838 154.195 138.605 162.337C138.964 160.934 139.306 159.386 139.605 157.856C140.204 156.376 140.991 154.871 141.435 153.503C142.128 151.399 142.735 149.278 143.223 147.114C144.027 143.752 144.434 140.308 144.437 136.851C144.523 132.791 143.417 128.795 141.256 125.357C140.683 124.502 137.176 119.26 136.125 121.936C135.987 122.382 135.961 122.855 136.048 123.313C136.561 127.769 138.177 131.865 139.178 136.201C140.674 142.693 139.682 153.588 139.178 158.223C138.99 158.959 138.75 159.865 138.468 160.917C139.161 152.844 135.663 143.274 132.421 141.598C128.41 139.528 132.344 147.653 135.44 154.751C136.907 157.858 137.597 161.274 137.45 164.706C136.817 167.032 136.09 169.658 135.338 172.309C135.184 172.668 135.047 173.036 134.91 173.395C135.258 171.665 135.399 169.899 135.329 168.135C135.038 163.5 129.787 154.221 126.298 155.529C122.809 156.838 128.718 161.73 131.874 167.426C133.53 170.575 134.166 174.161 133.696 177.688C133.696 177.902 133.627 178.107 133.602 178.304C133.234 179.518 132.875 180.681 132.533 181.793C131.677 184.359 130.95 186.822 130.224 189.199C131.117 185.75 131.508 182.19 131.387 178.629C130.95 171.838 126.974 165.424 123.69 164.543C120.406 163.663 126.674 174.746 128.778 180.972C129.922 184.609 130.116 188.477 129.343 192.21C128.325 195.579 127.367 198.906 126.384 202.421C126.658 197.817 126.558 193.198 126.084 188.609C125.443 181.049 120.953 176.226 117.857 176.422C114.761 176.619 117.994 180.912 122.458 190.106C124.815 194.933 125.865 200.294 125.503 205.654C125.101 207.133 124.647 208.656 124.271 210.246C123.792 212.059 123.416 214.035 123.074 216.053C122.629 214.249 121.962 211.615 121.184 208.707C120.278 205.493 119.62 202.213 119.217 198.898C118.798 195.041 117.78 190.226 114 188.224C113.743 188.046 113.45 187.925 113.142 187.871C112.833 187.817 112.517 187.832 112.214 187.913C111.912 187.995 111.631 188.141 111.392 188.343C111.152 188.544 110.959 188.796 110.827 189.08C110.48 189.907 110.403 190.823 110.605 191.697C111.107 194.32 111.97 196.862 113.17 199.248C112.428 200.672 112.091 202.273 112.195 203.875C112.195 204.474 112.247 205.072 112.29 205.671C111.956 205.055 111.64 204.491 111.34 203.961C110.797 203.054 110.129 202.228 109.356 201.506C109.55 200.089 109.647 198.66 109.647 197.23C109.647 195.357 107.449 190.576 105.465 194.117C104.67 195.537 104.823 198.316 104.746 200.163C104.208 200.676 104.045 201.72 104.498 203.362C104.191 207.638 104.131 212.017 105.166 216.19L104.481 215.001C103.517 210.054 102.946 205.038 102.771 200.001C102.523 191.68 103.849 184.855 101.582 182.289C99.3158 179.724 98.0501 188.746 99.0165 198.581C99.4718 203.069 100.668 207.45 102.557 211.546C100.334 207.552 98.1356 203.482 96.0574 199.573C95.2022 197.478 93.0813 191.808 93.603 186.061C94.2615 178.817 94.7404 172.882 91.9866 168.802C89.2328 164.723 88.6598 167.374 90.0111 175.875C90.9347 181.708 91.9182 189.507 93.6115 194.921C92.0037 191.816 90.49 188.866 89.1387 186.198C88.369 183.529 86.5731 176.679 86.5731 170.992C86.5731 163.757 85.8034 159.874 83.6653 161.439C82.1772 162.542 83.1351 171.471 85.5297 178.98C84.4094 176.696 83.5627 174.943 83.0752 173.908C82.8529 173.438 82.6048 172.933 82.3226 172.411C81.5401 166.455 80.3833 160.554 78.859 154.743C76.1479 144.531 71.3159 137.005 71.4699 142.043C71.6067 146.678 79.5261 162.961 81.9976 171.804C81.2964 170.53 80.4839 169.17 79.6629 167.845C79.0899 166.348 78.6366 164.714 78.0294 163.415C77.0972 161.405 76.0966 159.438 74.9763 157.522C73.2654 154.51 71.2074 151.708 68.8444 149.175C66.107 146.058 62.5004 143.83 58.4876 142.778C57.4785 142.539 51.3551 141.068 52.3985 143.804C52.5935 144.222 52.887 144.586 53.2537 144.865C56.6746 147.773 60.6428 149.663 64.3715 152.151C69.8963 155.88 76.6097 164.518 79.3807 168.272L80.6977 170.727C75.6947 164.347 66.6037 159.746 63.0973 160.738C58.7528 161.961 67.1681 165.211 74.275 168.281C77.4683 169.55 80.304 171.578 82.5364 174.19C83.6653 176.328 84.9225 178.732 86.1797 181.186C86.3251 181.554 86.4619 181.913 86.6073 182.272C85.6831 180.77 84.5836 179.384 83.3318 178.141C79.9537 174.96 69.7765 171.753 68.126 175.088C66.4754 178.424 74.1125 177.979 80.3214 179.98C83.6655 181.154 86.5656 183.331 88.6256 186.215C88.7453 186.386 88.8565 186.565 88.9762 186.728C89.5407 187.857 90.0709 188.96 90.5755 190.003C91.7386 192.458 92.8504 194.758 93.9365 196.99C92.2412 193.849 90.101 190.968 87.5822 188.438C82.622 183.769 75.3355 181.802 72.3165 183.427C69.2976 185.052 81.4589 188.84 87.2487 191.979C90.5674 193.857 93.3497 196.554 95.3305 199.813C96.887 202.968 98.4521 206.056 100.137 209.297C97.1952 205.745 93.972 202.436 90.4985 199.402C84.8626 194.314 78.286 193.852 76.1565 196.11C74.027 198.367 79.3208 199.3 88.8479 202.951C93.8615 204.87 98.2846 208.069 101.676 212.23C102.395 213.59 103.13 214.984 103.917 216.438C104.772 218.08 105.858 219.791 107.004 221.493C105.448 220.483 103.156 219.012 100.607 217.422C97.7473 215.691 95.0278 213.738 92.4741 211.581C89.5321 209.058 85.504 206.227 81.3562 207.347C81.0474 207.392 80.7523 207.505 80.4918 207.676C80.2312 207.848 80.0116 208.075 79.8484 208.341C79.6852 208.607 79.5825 208.905 79.5475 209.215C79.5125 209.526 79.546 209.84 79.6458 210.135C79.9478 210.981 80.5147 211.707 81.2622 212.205C85.162 215.224 90.4045 216.678 94.9457 218.465C99.1072 220.103 103.373 221.462 107.714 222.536C108.792 224.084 109.912 225.615 111.041 227.069L109.005 227.128C106.594 227.205 95.7154 222.271 90.1907 220.689C84.6659 219.106 79.5004 222.1 85.2902 225.213C91.0801 228.326 106.825 227.633 106.825 227.633L111.366 227.496C112.435 228.865 113.478 230.164 114.47 231.353H92.8931V237.34H97.1692L100.59 258.626H129.266L132.729 237.34H137.005V231.353H122.715C122.599 228.766 122.668 226.174 122.92 223.596C123.873 222.627 124.932 221.766 126.076 221.031C132.353 216.695 142.992 216.336 145.823 207.98C146.507 205.97 145.729 203.388 143.325 203.499C141.615 203.576 139.759 205.098 138.682 206.338C135.09 210.486 132.387 214.788 127.718 217.935C126.113 219.168 124.572 220.481 123.1 221.869C123.262 220.509 123.467 219.055 123.732 217.499C124.861 215.497 126.148 213.59 127.581 211.794C131.404 207.048 137.219 204.268 141.35 199.744C142.616 198.359 144.283 193.381 140.418 194.613C138.707 195.16 136.672 197.769 135.286 198.957C131.481 202.378 127.589 206.022 125.109 210.52C125.212 210.075 125.323 209.665 125.426 209.186C128.094 204.908 131.099 200.85 134.414 197.05C139.905 190.807 145.532 186.719 145.626 183.298C145.72 179.878 138.639 185.608 132.627 193.441C129.899 197.035 127.784 201.055 126.366 205.337C127.47 200.907 128.641 196.426 129.787 192.133C130.574 189.995 132.909 184.436 137.211 180.579C142.641 175.73 147.037 171.727 147.815 166.895C148.594 162.063 146.413 163.594 141.598 170.727ZM111.229 225.734C110.417 224.631 109.57 223.434 108.663 222.108C108.123 219.86 107.763 217.572 107.586 215.267C107.476 213.304 107.568 211.335 107.859 209.391C109.319 211.199 110.869 212.931 112.503 214.582C112.464 216.292 112.255 217.994 111.879 219.662C111.559 221.674 111.342 223.701 111.229 225.734ZM115.881 231.37C114.778 230.199 113.572 228.805 112.264 227.094C112.297 225.738 112.483 224.389 112.82 223.075C113.342 221.002 114.093 218.994 115.06 217.088C117.087 219.012 118.575 220.287 118.575 220.287L121.996 223.289C121.731 226.273 121.577 229.078 121.483 231.353L115.881 231.37ZM122.039 222.767L120.508 221.424C119.653 220.654 118.114 217.678 116.437 214.249C117.152 212.806 117.786 211.324 118.336 209.81C120.149 213.171 121.757 215.797 122.706 217.191C122.432 219.047 122.219 220.937 122.039 222.767Z" fill="white"/>
<path d="M57.248 9.67188V96.3912H123.1V9.67188H57.248ZM118.533 90.3448H61.8491V15.7268H118.533V90.3448Z" fill="#7D18F7"/>
<path opacity="0.5" d="M57.248 9.67188V96.3912H123.1V9.67188H57.248ZM118.533 90.3448H61.8491V15.7268H118.533V90.3448Z" fill="white"/>
<path d="M287.688 51.9797V116.019H336.332V51.9797H287.688ZM332.937 111.546H291.108V56.4868H332.963L332.937 111.546Z" fill="#7D18F7"/>
<path opacity="0.5" d="M287.688 51.9797V116.019H336.332V51.9797H287.688ZM332.937 111.546H291.108V56.4868H332.963L332.937 111.546Z" fill="white"/>
<path d="M9.55273 267.572C12.0072 259.259 37.4329 172.848 37.3474 172.198C37.2619 171.548 39.4256 159.943 44.4885 150.27C49.5514 140.598 56.5813 129.822 57.4622 128.505C58.8027 126.359 59.6984 123.965 60.0962 121.466C60.7548 117.951 67.7932 108.27 69.9911 105.636C72.1891 103.002 78.7828 89.1475 79.2275 86.9496C79.6722 84.7517 82.2978 82.99 85.8213 82.3315C89.3448 81.6729 94.1768 81.0144 94.1768 81.0144C95.071 82.0668 95.6098 83.3748 95.7162 84.7517C95.7162 86.7273 87.7968 133.995 87.3607 141.915C86.9245 149.834 88.0192 154.221 84.5042 162.363C80.9893 170.505 70.6497 175.55 65.5953 178.852C60.541 182.153 60.9258 182.837 60.9258 182.837C60.9258 182.837 63.7822 261.97 63.7138 268.188" fill="white"/>
<mask id="mask0_127_1380" style="mask-type:luminance" maskUnits="userSpaceOnUse" x="9" y="81" width="87" height="188">
<path d="M9.55273 267.572C12.0072 259.259 37.4329 172.848 37.3474 172.198C37.2619 171.548 39.4256 159.943 44.4885 150.27C49.5514 140.598 56.5813 129.822 57.4622 128.505C58.8027 126.359 59.6984 123.965 60.0962 121.466C60.7548 117.951 67.7932 108.27 69.9911 105.636C72.1891 103.002 78.7828 89.1475 79.2275 86.9496C79.6722 84.7517 82.2978 82.99 85.8213 82.3315C89.3448 81.6729 94.1768 81.0144 94.1768 81.0144C95.071 82.0668 95.6098 83.3748 95.7162 84.7517C95.7162 86.7273 87.7968 133.995 87.3607 141.915C86.9245 149.834 88.0192 154.221 84.5042 162.363C80.9893 170.505 70.6497 175.55 65.5953 178.852C60.541 182.153 60.9258 182.837 60.9258 182.837C60.9258 182.837 63.7822 261.97 63.7138 268.188" fill="white"/>
</mask>
<g mask="url(#mask0_127_1380)">
<g style="mix-blend-mode:multiply" opacity="0.7">
<path d="M98.932 132.866C98.0169 128.77 92.0902 131.045 92.0902 131.045C88.0543 135.424 83.0856 138.841 77.5515 141.042C68.2883 144.545 59.3367 148.822 50.7916 153.828C51.7666 151.869 52.827 149.894 53.973 147.841C59.8826 137.39 70.3334 123.305 76.2088 121.483C79.8349 120.372 83.4525 122.672 85.7103 124.622L85.9668 82.2886H85.8214C82.2979 82.9471 79.6638 84.7089 79.2277 86.9068C78.7915 89.1047 72.1892 102.951 69.9913 105.593C67.7934 108.236 60.7549 117.908 60.0964 121.423C59.6986 123.922 58.8029 126.316 57.4623 128.462C56.6071 129.779 49.543 140.546 44.4886 150.227C39.4343 159.908 37.262 171.497 37.3476 172.155C37.4074 172.634 27.6237 208.074 21.4062 230.378C26.5376 220.287 34.5168 203.961 39.3659 191.894C41.273 191.705 44.9676 186.54 48.0293 182.332C51.6639 177.338 57.1117 175.969 68.0243 167.793C78.9369 159.618 91.1922 148.252 93.0138 143.71C94.8354 139.169 99.8385 136.954 98.932 132.866Z" fill="#7D18F7"/>
</g>
</g>
<path d="M9.55273 267.572C12.0072 259.259 37.4329 172.848 37.3474 172.198C37.2619 171.548 39.4256 159.943 44.4885 150.27C49.5514 140.598 56.5813 129.822 57.4622 128.505C58.8027 126.359 59.6984 123.965 60.0962 121.466C60.7548 117.951 67.7932 108.27 69.9911 105.636C72.1891 103.002 78.7828 89.1475 79.2275 86.9496C79.6722 84.7517 82.2978 82.99 85.8213 82.3315C89.3448 81.6729 94.1768 81.0144 94.1768 81.0144C95.071 82.0668 95.6098 83.3748 95.7162 84.7517C95.7162 86.7273 87.7968 133.995 87.3607 141.915C86.9245 149.834 88.0192 154.221 84.5042 162.363C80.9893 170.505 70.6497 175.55 65.5953 178.852C60.541 182.153 60.9258 182.837 60.9258 182.837C60.9258 182.837 63.7822 261.97 63.7138 268.188" stroke="#2E353A" stroke-linecap="round" stroke-linejoin="round"/>
<path d="M85.3759 134.876C85.3759 134.876 82.9642 134.654 80.5439 130.258" stroke="#2E353A" stroke-linecap="round" stroke-linejoin="round"/>
<path d="M82.7422 106.517C82.7422 106.517 89.5839 107.834 90.4392 113.547" stroke="#2E353A" stroke-linecap="round" stroke-linejoin="round"/>
<path d="M84.9404 88.7026C86.4537 89.8541 87.7063 91.3128 88.6157 92.9828C89.5251 94.6528 90.0709 96.4963 90.2171 98.3923" stroke="#2E353A" stroke-linecap="round" stroke-linejoin="round"/>
<path d="M306.63 134.893L306.091 43.5813C306.089 40.9199 305.03 38.3683 303.147 36.4873C301.265 34.6062 298.712 33.5496 296.051 33.5496H96.2285C93.5679 33.5496 91.0163 34.6065 89.135 36.4878C87.2537 38.3691 86.1968 40.9207 86.1968 43.5813L85.6494 134.893C85.6483 136.224 85.9097 137.543 86.4186 138.773C86.9275 140.003 87.6739 141.12 88.6152 142.062C89.5565 143.003 90.6741 143.749 91.9042 144.258C93.1343 144.767 94.4526 145.029 95.7838 145.028H296.495C297.827 145.029 299.145 144.767 300.375 144.258C301.605 143.749 302.723 143.003 303.664 142.062C304.605 141.12 305.352 140.003 305.861 138.773C306.37 137.543 306.631 136.224 306.63 134.893Z" fill="#2E353A" stroke="#363636" stroke-width="0.868674" stroke-linecap="round" stroke-linejoin="round"/>
<path d="M295.401 140.067L294.965 38.4585H97.3153L96.8877 140.067H295.401Z" fill="white" stroke="#363636" stroke-width="0.651505" stroke-linecap="round" stroke-linejoin="round"/>
<path d="M294.965 38.4585H97.3149L97.2979 43.53H116.284L121.141 50.4743H295.016L294.965 38.4585Z" fill="#7D18F7" stroke="#2E353A" stroke-linecap="round" stroke-linejoin="round"/>
<g style="mix-blend-mode:multiply" opacity="0.5">
<path d="M294.965 58.676L156.034 140.067H295.401L294.965 58.676Z" fill="#7D18F7"/>
</g>
<path d="M302.024 89.2354C302.035 88.39 301.358 87.6958 300.513 87.6849C299.667 87.674 298.973 88.3505 298.962 89.1959C298.951 90.0413 299.628 90.7354 300.473 90.7463C301.318 90.7573 302.013 90.0808 302.024 89.2354Z" fill="white"/>
<path d="M112.538 75.5838C117.058 75.5838 120.722 71.9194 120.722 67.3993C120.722 62.8791 117.058 59.2148 112.538 59.2148C108.018 59.2148 104.354 62.8791 104.354 67.3993C104.354 71.9194 108.018 75.5838 112.538 75.5838Z" fill="#7D18F7" stroke="#2E353A" stroke-linecap="round" stroke-linejoin="round"/>
<path d="M112.538 109.236C117.058 109.236 120.722 105.572 120.722 101.052C120.722 96.5317 117.058 92.8674 112.538 92.8674C108.018 92.8674 104.354 96.5317 104.354 101.052C104.354 105.572 108.018 109.236 112.538 109.236Z" fill="white" stroke="#2E353A" stroke-linecap="round" stroke-linejoin="round"/>
<path d="M168.47 75.5838C172.99 75.5838 176.654 71.9194 176.654 67.3993C176.654 62.8791 172.99 59.2148 168.47 59.2148C163.949 59.2148 160.285 62.8791 160.285 67.3993C160.285 71.9194 163.949 75.5838 168.47 75.5838Z" fill="white" stroke="#2E353A" stroke-linecap="round" stroke-linejoin="round"/>
<path d="M168.47 109.236C172.99 109.236 176.654 105.572 176.654 101.052C176.654 96.5317 172.99 92.8674 168.47 92.8674C163.949 92.8674 160.285 96.5317 160.285 101.052C160.285 105.572 163.949 109.236 168.47 109.236Z" fill="#7D18F7" stroke="#2E353A" stroke-linecap="round" stroke-linejoin="round"/>
<path d="M224.409 75.5838C228.929 75.5838 232.594 71.9194 232.594 67.3993C232.594 62.8791 228.929 59.2148 224.409 59.2148C219.889 59.2148 216.225 62.8791 216.225 67.3993C216.225 71.9194 219.889 75.5838 224.409 75.5838Z" fill="#7D18F7" stroke="#2E353A" stroke-linecap="round" stroke-linejoin="round"/>
<path d="M224.409 109.236C228.929 109.236 232.594 105.572 232.594 101.052C232.594 96.5317 228.929 92.8674 224.409 92.8674C219.889 92.8674 216.225 96.5317 216.225 101.052C216.225 105.572 219.889 109.236 224.409 109.236Z" fill="#7D18F7" stroke="#2E353A" stroke-width="2" stroke-linecap="round" stroke-linejoin="round"/>
<path d="M280.341 75.5838C284.861 75.5838 288.525 71.9194 288.525 67.3993C288.525 62.8791 284.861 59.2148 280.341 59.2148C275.821 59.2148 272.156 62.8791 272.156 67.3993C272.156 71.9194 275.821 75.5838 280.341 75.5838Z" fill="#7D18F7" stroke="#2E353A" stroke-linecap="round" stroke-linejoin="round"/>
<path d="M280.341 109.236C284.861 109.236 288.525 105.572 288.525 101.052C288.525 96.5317 284.861 92.8674 280.341 92.8674C275.821 92.8674 272.156 96.5317 272.156 101.052C272.156 105.572 275.821 109.236 280.341 109.236Z" fill="white" stroke="#2E353A" stroke-linecap="round" stroke-linejoin="round"/>
<path d="M126.761 78.4829H153.572" stroke="#2E353A" stroke-linecap="round" stroke-linejoin="round"/>
<path d="M126.761 84.6663H153.572" stroke="#2E353A" stroke-linecap="round" stroke-linejoin="round"/>
<path d="M126.761 90.8579H153.572" stroke="#2E353A" stroke-linecap="round" stroke-linejoin="round"/>
<path d="M181.931 78.4829H208.742" stroke="#2E353A" stroke-linecap="round" stroke-linejoin="round"/>
<path d="M181.931 84.6663H208.742" stroke="#2E353A" stroke-linecap="round" stroke-linejoin="round"/>
<path d="M181.931 90.8579H208.742" stroke="#2E353A" stroke-linecap="round" stroke-linejoin="round"/>
<path d="M240.71 78.4829H267.521" stroke="#2E353A" stroke-linecap="round" stroke-linejoin="round"/>
<path d="M240.71 84.6663H267.521" stroke="#2E353A" stroke-linecap="round" stroke-linejoin="round"/>
<path d="M240.71 90.8579H267.521" stroke="#2E353A" stroke-linecap="round" stroke-linejoin="round"/>
<path d="M126.761 113.495H153.572" stroke="#2E353A" stroke-linecap="round" stroke-linejoin="round"/>
<path d="M126.761 119.688H153.572" stroke="#2E353A" stroke-linecap="round" stroke-linejoin="round"/>
<path d="M126.761 125.871H153.572" stroke="#2E353A" stroke-linecap="round" stroke-linejoin="round"/>
<path d="M181.931 113.495H208.742" stroke="#2E353A" stroke-linecap="round" stroke-linejoin="round"/>
<path d="M181.931 119.688H208.742" stroke="#2E353A" stroke-linecap="round" stroke-linejoin="round"/>
<path d="M181.931 125.871H208.742" stroke="#2E353A" stroke-linecap="round" stroke-linejoin="round"/>
<path d="M240.71 113.495H267.521" stroke="#2E353A" stroke-linecap="round" stroke-linejoin="round"/>
<path d="M240.71 119.688H267.521" stroke="#2E353A" stroke-linecap="round" stroke-linejoin="round"/>
<path d="M240.71 125.871H267.521" stroke="#2E353A" stroke-linecap="round" stroke-linejoin="round"/>
<path d="M208.263 101.471H213.343" stroke="#2E353A" stroke-linecap="round" stroke-linejoin="round"/>
<path d="M224.948 91.3196V84.9739" stroke="#2E353A" stroke-linecap="round" stroke-linejoin="round"/>
<path d="M213.702 92.0466L216.969 94.5866" stroke="#2E353A" stroke-linecap="round" stroke-linejoin="round"/>
<path d="M217.696 107.996L213.702 110.177" stroke="#2E353A" stroke-linecap="round" stroke-linejoin="round"/>
<path d="M241.992 101.471H236.912" stroke="#2E353A" stroke-linecap="round" stroke-linejoin="round"/>
<path d="M236.545 92.0466L233.286 94.5866" stroke="#2E353A" stroke-linecap="round" stroke-linejoin="round"/>
<path d="M220.997 118.285L225.273 133.559" stroke="#2E353A" stroke-linecap="round" stroke-linejoin="round"/>
<path d="M216.713 116.446L219.159 124.391" stroke="#2E353A" stroke-linecap="round" stroke-linejoin="round"/>
<path d="M322.101 261.911C322.101 261.911 301.79 224.452 298.899 217.884C296.008 211.316 293.827 200.968 293.118 198.128C292.091 194.796 291.996 191.247 292.844 187.866C293.913 183.076 293.28 169.41 293.759 166.271C294.238 163.133 292.297 153.315 291.193 147.816C290.09 142.317 287.593 138.408 284.223 137.981C283.243 137.863 282.25 137.99 281.33 138.35C280.411 138.709 279.595 139.29 278.955 140.042C278.955 140.042 277.553 128.334 276.193 125.905C274.833 123.476 270.403 123.827 268.034 124.408C265.665 124.99 264.528 132.567 264.528 132.567C264.528 132.567 262.475 125.289 262.415 122.039C262.355 118.789 258.404 115.993 255.325 116.763C252.247 117.532 250.588 118.943 249.749 125.682C248.911 132.422 250.493 142.847 250.493 142.847L248.894 143.497C248.894 143.497 243.13 123.314 241.3 117.986C239.47 112.657 237.708 106.56 236.476 102.592C235.245 98.6233 233.415 92.3289 228.377 93.2953C223.34 94.2617 224.58 105.268 224.58 105.268C224.58 105.268 232.457 138.998 232.867 141.658C233.278 144.318 234.578 153.554 234.321 156.633C234.065 159.712 234.073 167.751 234.073 167.751L226.573 158.805C225.649 156.385 224.483 154.064 223.092 151.878C220.527 147.739 214.822 143.882 211.119 145.036C207.416 146.191 210.341 150.005 211.872 152.134C213.403 154.264 214.643 160.242 214.643 163.252C214.643 166.263 217.208 168.384 220.304 173.908C223.4 179.433 238.939 198.522 241.291 201.96C243.033 204.27 245.223 206.204 247.731 207.647C247.731 207.647 256.711 215.472 260.901 225.239C265.092 235.005 277.946 263.048 277.946 263.048" fill="white"/>
<mask id="mask1_127_1380" style="mask-type:luminance" maskUnits="userSpaceOnUse" x="209" y="93" width="114" height="171">
<path d="M322.101 261.911C322.101 261.911 301.79 224.452 298.899 217.884C296.008 211.316 293.827 200.968 293.118 198.128C292.091 194.796 291.996 191.247 292.844 187.866C293.913 183.076 293.28 169.41 293.759 166.271C294.238 163.133 292.297 153.315 291.193 147.816C290.09 142.317 287.593 138.408 284.223 137.981C283.243 137.863 282.25 137.99 281.33 138.35C280.411 138.709 279.595 139.29 278.955 140.042C278.955 140.042 277.553 128.334 276.193 125.905C274.833 123.476 270.403 123.827 268.034 124.408C265.665 124.99 264.528 132.567 264.528 132.567C264.528 132.567 262.475 125.289 262.415 122.039C262.355 118.789 258.404 115.993 255.325 116.763C252.247 117.532 250.588 118.943 249.749 125.682C248.911 132.422 250.493 142.847 250.493 142.847L248.894 143.497C248.894 143.497 243.13 123.314 241.3 117.986C239.47 112.657 237.708 106.56 236.476 102.592C235.245 98.6233 233.415 92.3289 228.377 93.2953C223.34 94.2617 224.58 105.268 224.58 105.268C224.58 105.268 232.457 138.998 232.867 141.658C233.278 144.318 234.578 153.554 234.321 156.633C234.065 159.712 234.073 167.751 234.073 167.751L226.573 158.805C225.649 156.385 224.483 154.064 223.092 151.878C220.527 147.739 214.822 143.882 211.119 145.036C207.416 146.191 210.341 150.005 211.872 152.134C213.403 154.264 214.643 160.242 214.643 163.252C214.643 166.263 217.208 168.384 220.304 173.908C223.4 179.433 238.939 198.522 241.291 201.96C243.033 204.27 245.223 206.204 247.731 207.647C247.731 207.647 256.711 215.472 260.901 225.239C265.092 235.005 277.946 263.048 277.946 263.048" fill="white"/>
</mask>
<g mask="url(#mask1_127_1380)">
<g style="mix-blend-mode:multiply" opacity="0.7">
<path d="M291.347 252.999C295.546 249.151 296.59 218.063 296.059 206.492C296.059 206.398 296.059 206.287 296.059 206.184C294.563 202.319 293.4 199.18 293.134 198.128C292.108 194.796 292.013 191.247 292.861 187.865C293.93 183.076 293.297 169.41 293.776 166.271C294.058 164.415 293.485 160.191 292.75 155.914C289.705 155.649 284.129 158.395 284.129 158.395C284.129 158.395 279.733 151.998 276.868 151.775C274.003 151.553 269.034 156.051 269.034 156.051C269.034 156.051 266.186 146.456 260.337 147.439C254.487 148.423 252.845 147.439 250.536 147.542C248.227 147.644 246.354 142.026 244.045 136.51C241.736 130.993 238.426 110.365 236.468 106.089C236.468 106.089 233.397 97.4858 229.421 100.351C225.444 103.216 229.181 112.58 231.045 118.199C232.91 123.818 233.91 134.491 235.424 139.58C237.135 145.25 236.279 153.674 237.844 159.848C239.41 166.023 243.429 168.024 241.214 176.098C238.999 184.171 234.158 181.597 228.762 176.85C223.366 172.104 220.697 161.234 217.644 162.312C216.586 162.579 215.564 162.973 214.6 163.483C214.668 166.442 217.165 168.614 220.261 174.019C223.357 179.424 238.939 198.522 241.291 201.96C243.033 204.27 245.223 206.204 247.731 207.647C247.731 207.647 256.711 215.472 260.901 225.239C261.654 226.992 262.851 229.583 264.322 232.662C266.033 234.03 262.406 227.531 263.296 228.608C269.223 235.561 287.156 256.856 291.347 252.999Z" fill="#7D18F7"/>
</g>
</g>
<path d="M322.101 261.911C322.101 261.911 301.79 224.452 298.899 217.884C296.008 211.316 293.827 200.968 293.118 198.128C292.091 194.796 291.996 191.247 292.844 187.866C293.913 183.076 293.28 169.41 293.759 166.271C294.238 163.133 292.297 153.315 291.193 147.816C290.09 142.317 287.593 138.408 284.223 137.981C283.243 137.863 282.25 137.99 281.33 138.35C280.411 138.709 279.595 139.29 278.955 140.042C278.955 140.042 277.553 128.334 276.193 125.905C274.833 123.476 270.403 123.827 268.034 124.408C265.665 124.99 264.528 132.567 264.528 132.567C264.528 132.567 262.475 125.289 262.415 122.039C262.355 118.789 258.404 115.993 255.325 116.763C252.247 117.532 250.588 118.943 249.749 125.682C248.911 132.422 250.493 142.847 250.493 142.847L248.894 143.497C248.894 143.497 243.13 123.314 241.3 117.986C239.47 112.657 237.708 106.56 236.476 102.592C235.245 98.6233 233.415 92.3289 228.377 93.2953C223.34 94.2617 224.58 105.268 224.58 105.268C224.58 105.268 232.457 138.998 232.867 141.658C233.278 144.318 234.578 153.554 234.321 156.633C234.065 159.712 234.073 167.751 234.073 167.751L226.573 158.805C225.649 156.385 224.483 154.064 223.092 151.878C220.527 147.739 214.822 143.882 211.119 145.036C207.416 146.191 210.341 150.005 211.872 152.134C213.403 154.264 214.643 160.242 214.643 163.252C214.643 166.263 217.208 168.384 220.304 173.908C223.4 179.433 238.939 198.522 241.291 201.96C243.033 204.27 245.223 206.204 247.731 207.647C247.731 207.647 256.711 215.472 260.901 225.239C265.092 235.005 277.946 263.048 277.946 263.048" stroke="#2E353A" stroke-linecap="round" stroke-linejoin="round"/>
<path d="M225.709 95.7412C225.709 95.7412 226.641 101.522 226.821 102.249C227.223 103.883 233.979 103.105 234.518 101.847C234.997 100.727 234.646 98.2983 234.646 98.2983" stroke="#2E353A" stroke-linecap="round" stroke-linejoin="round"/>
<path d="M214.138 152.399C214.7 151.828 215.048 151.082 215.125 150.284C215.201 149.487 215.001 148.688 214.557 148.021C212.967 145.652 212.077 145.121 212.077 145.121" stroke="#2E353A" stroke-linecap="round" stroke-linejoin="round"/>
<path d="M233.525 129.24C233.525 129.24 236.544 130.249 239.384 126.529" stroke="#2E353A" stroke-width="0.75" stroke-linecap="round" stroke-linejoin="round"/>
<path d="M233.885 126.615C233.885 126.615 237.913 123.596 240.992 123.844" stroke="#2E353A" stroke-width="0.75" stroke-linecap="round" stroke-linejoin="round"/>
<path d="M229.712 110.836C229.712 110.836 232.731 107.825 235.151 108.475" stroke="#2E353A" stroke-width="0.75" stroke-linecap="round" stroke-linejoin="round"/>
<path d="M232.551 110.126C233.792 110.335 235.063 110.276 236.28 109.955" stroke="#2E353A" stroke-width="0.75" stroke-linecap="round" stroke-linejoin="round"/>
<path d="M264.52 132.593L266.11 142.008" stroke="#2E353A" stroke-linecap="round" stroke-linejoin="round"/>
<path d="M278.946 140.067L280.648 149.953" stroke="#2E353A" stroke-linecap="round" stroke-linejoin="round"/>
<path d="M234.064 167.811C234.064 167.811 233.637 175.208 234.346 178.073" stroke="#2E353A" stroke-linecap="round" stroke-linejoin="round"/>
<path d="M266.118 147.02C266.118 147.02 267.871 151.664 267.444 154.717" stroke="#2E353A" stroke-width="0.75" stroke-linecap="round" stroke-linejoin="round"/>
<path d="M280.46 151.818C280.46 151.818 281.649 154.212 280.939 158.574" stroke="#2E353A" stroke-width="0.75" stroke-linecap="round" stroke-linejoin="round"/>
<path d="M77.2428 138.391C77.2428 138.391 84.5036 137.074 88.4547 132.242C92.4058 127.41 101.865 121.244 104.943 120.149C108.022 119.055 112.863 118.824 114.624 120.363C116.386 121.902 117.259 125.64 114.624 130.044C111.99 134.448 101.249 138.588 99.0082 140.589C96.7675 142.59 94.8347 143.89 92.1664 149.825C89.5692 155.575 85.8303 160.737 81.1768 164.997C76.9948 168.734 69.3063 175.114 65.3467 177.526" fill="white"/>
<mask id="mask2_127_1380" style="mask-type:luminance" maskUnits="userSpaceOnUse" x="65" y="119" width="52" height="59">
<path d="M77.2428 138.391C77.2428 138.391 84.5036 137.074 88.4547 132.242C92.4058 127.41 101.865 121.244 104.943 120.149C108.022 119.055 112.863 118.824 114.624 120.363C116.386 121.902 117.259 125.64 114.624 130.044C111.99 134.448 101.249 138.588 99.0082 140.589C96.7675 142.59 94.8347 143.89 92.1664 149.825C89.5692 155.575 85.8303 160.737 81.1768 164.997C76.9948 168.734 69.3063 175.114 65.3467 177.526" fill="white"/>
</mask>
<g mask="url(#mask2_127_1380)">
<g style="mix-blend-mode:multiply" opacity="0.7">
<path d="M98.931 132.866C98.0159 128.77 92.0892 131.045 92.0892 131.045C88.0533 135.424 83.0846 138.841 77.5505 141.042C68.2873 144.545 59.3357 148.822 50.7906 153.828C51.7656 151.869 52.8261 149.894 53.9721 147.841C59.8816 137.39 70.3324 123.305 76.2078 121.483C79.8339 120.372 83.4515 122.672 85.7093 124.622L85.9659 82.2886H85.8205C82.297 82.9471 79.6629 84.7089 79.2267 86.9068C78.7906 89.1047 72.1882 102.951 69.9903 105.593C67.7924 108.236 60.754 117.908 60.0954 121.423C59.6976 123.922 58.8019 126.316 57.4614 128.462C56.6061 129.779 49.542 140.546 44.4877 150.227C39.4333 159.908 37.2611 171.497 37.3466 172.155C37.4064 172.634 27.6227 208.074 21.4053 230.378C26.5366 220.287 34.5158 203.961 39.3649 191.894C41.272 191.705 44.9666 186.54 48.0283 182.332C51.663 177.338 57.1107 175.969 68.0233 167.793C78.9359 159.618 91.1912 148.252 93.0129 143.71C94.8345 139.169 99.8375 136.954 98.931 132.866Z" fill="#7D18F7"/>
</g>
</g>
<path d="M77.2428 138.391C77.2428 138.391 84.5036 137.074 88.4547 132.242C92.4058 127.41 101.865 121.244 104.943 120.149C108.022 119.055 112.863 118.824 114.624 120.363C116.386 121.902 117.259 125.64 114.624 130.044C111.99 134.448 101.249 138.588 99.0082 140.589C96.7675 142.59 94.8347 143.89 92.1664 149.825C89.5692 155.575 85.8303 160.737 81.1768 164.997C76.9948 168.734 69.3063 175.114 65.3467 177.526" stroke="#2E353A" stroke-linecap="round" stroke-linejoin="round"/>
<path d="M114.839 128.325C113.522 130.301 110.22 130.523 110.22 130.523C110.22 130.523 108.903 127.667 108.022 125.905C107.336 124.719 106.352 123.734 105.166 123.048C105.166 123.048 106.269 120.192 108.467 120.192" stroke="#2E353A" stroke-linecap="round" stroke-linejoin="round"/>
<path d="M28.7689 182.991C36.8827 181.233 45.1935 180.558 53.4847 180.981C67.5189 181.657 70.8543 189.67 70.8543 189.67L70.1872 207.707C70.1872 207.707 62.8409 202.362 47.4725 200.36C32.1042 198.359 24.0908 199.693 24.0908 199.693L28.7689 182.991Z" fill="white" stroke="#2E353A" stroke-linecap="round" stroke-linejoin="round"/>
<path d="M70.9912 267.153L74.6088 209.263C51.2271 195.229 24.0909 199.693 24.0909 199.693L1 267.153H70.9912Z" fill="#2E353A" stroke="#2E353A" stroke-linecap="round" stroke-linejoin="round"/>
<path d="M253.479 222.681C253.479 222.681 255.762 213.565 268.299 206.15C280.837 198.735 299.66 201.592 299.66 201.592L302.508 208.998C302.508 208.998 287.114 208.433 275.714 214.702C264.314 220.971 258.61 228.386 258.61 228.386L253.479 222.681Z" fill="white" stroke="#2E353A" stroke-linecap="round" stroke-linejoin="round"/>
<path d="M338.359 267.153L304.526 206.672C304.526 206.672 291.698 203.302 276.304 209.571C260.91 215.84 254.633 227.813 254.633 227.813L261.107 267.153H338.359Z" fill="#2E353A" stroke="#2E353A" stroke-linecap="round" stroke-linejoin="round"/>
<path d="M261.979 229.643C262.406 231.482 261.893 233.175 260.816 233.423C259.738 233.671 258.524 232.388 258.096 230.55C257.668 228.711 258.181 227.017 259.251 226.769C260.32 226.521 261.542 227.804 261.979 229.643Z" fill="white"/>
</svg>
