<svg width="437" height="450" viewBox="0 0 437 450" fill="none" xmlns="http://www.w3.org/2000/svg">
<path d="M4.5103 188.39C4.5103 188.39 -3.7797 268.39 55.3103 334.73C114.4 401.07 205.79 423.28 279.51 443.24C353.23 463.2 416.13 432.53 433.45 370.54C450.77 308.55 396.45 278.44 375.53 199.72C354.61 121 360.59 97.71 301.41 40C242.23 -17.71 136.41 -10.81 72.4103 54.87C8.4103 120.55 4.5103 188.39 4.5103 188.39Z" fill="#7D18F7"/>
<path opacity="0.7" d="M4.5103 188.39C4.5103 188.39 -3.7797 268.39 55.3103 334.73C114.4 401.07 205.79 423.28 279.51 443.24C353.23 463.2 416.13 432.53 433.45 370.54C450.77 308.55 396.45 278.44 375.53 199.72C354.61 121 360.59 97.71 301.41 40C242.23 -17.71 136.41 -10.81 72.4103 54.87C8.4103 120.55 4.5103 188.39 4.5103 188.39Z" fill="white"/>
<path d="M95.7197 47.9199L221.52 253.44L374.38 108.63" stroke="#263238" stroke-linecap="round" stroke-linejoin="round"/>
<path d="M29.5801 262.79L221.52 253.44L81.8301 194.2" stroke="#263238" stroke-linecap="round" stroke-linejoin="round"/>
<path d="M252.33 23.5801L223.771 258.28L398.951 293.04" stroke="#263238" stroke-linecap="round" stroke-linejoin="round"/>
<path d="M84.75 399.71L221.52 253.44L363.4 360.95" stroke="#263238" stroke-linecap="round" stroke-linejoin="round"/>
<path d="M25.3102 236.8C20.4843 236.8 15.7668 238.231 11.7543 240.912C7.74169 243.593 4.61428 247.404 2.76751 251.862C0.920728 256.321 0.437527 261.227 1.37901 265.96C2.32049 270.693 4.64436 275.041 8.05676 278.453C11.4692 281.866 15.8168 284.19 20.55 285.131C25.2831 286.072 30.1891 285.589 34.6476 283.742C39.1062 281.896 42.9169 278.768 45.598 274.756C48.2791 270.743 49.7102 266.026 49.7102 261.2C49.7022 254.731 47.129 248.529 42.5548 243.955C37.9806 239.381 31.779 236.808 25.3102 236.8Z" fill="#263238"/>
<path fill-rule="evenodd" clip-rule="evenodd" d="M40.2503 260.57C40.0015 257.059 38.4391 253.77 35.8743 251.359C33.3096 248.948 29.9307 247.592 26.4107 247.56C22.8908 247.529 19.4881 248.824 16.8806 251.189C14.273 253.554 12.652 256.814 12.3403 260.32C12.3403 260.52 12.3403 260.72 12.3403 260.93C12.3379 263.455 13.0298 265.932 14.3403 268.09L11.8203 275.52L19.5603 273.06C21.6808 274.218 24.0649 274.808 26.4807 274.772C28.8966 274.736 31.2619 274.075 33.3468 272.854C35.4316 271.633 37.1649 269.893 38.3782 267.803C39.5914 265.714 40.2433 263.346 40.2703 260.93C40.2603 260.81 40.2603 260.69 40.2503 260.57ZM26.2503 272.57C23.9546 272.572 21.7086 271.901 19.7903 270.64L15.2803 272.08L16.7503 267.75C15.293 265.771 14.508 263.378 14.5103 260.92C14.5101 260.543 14.5301 260.165 14.5703 259.79C14.8236 256.84 16.1809 254.095 18.3709 252.103C20.5609 250.111 23.4222 249.019 26.3826 249.046C29.3429 249.072 32.1841 250.215 34.3381 252.246C36.4921 254.277 37.8 257.046 38.0003 260C38.0003 260.3 38.0003 260.6 38.0003 260.91C37.9871 264.008 36.7479 266.975 34.5535 269.161C32.3592 271.348 29.3883 272.577 26.2903 272.58L26.2503 272.57Z" fill="white"/>
<path fill-rule="evenodd" clip-rule="evenodd" d="M32.7006 263.72C32.3506 263.55 30.7006 262.72 30.3506 262.62C30.0006 262.52 29.8106 262.45 29.5806 262.79C29.3506 263.13 28.6906 263.89 28.5006 264.12C28.3106 264.35 28.1006 264.37 27.7506 264.2C26.7413 263.803 25.8103 263.231 25.0006 262.51C24.2519 261.831 23.6112 261.042 23.1006 260.17C22.9006 259.83 23.1006 259.64 23.2506 259.47C23.4006 259.3 23.5906 259.08 23.7606 258.88L23.8906 258.72C23.9706 258.588 24.0408 258.451 24.1006 258.31C24.1505 258.219 24.1767 258.118 24.1767 258.015C24.1767 257.912 24.1505 257.81 24.1006 257.72C24.0106 257.55 23.3306 255.87 23.0406 255.19C22.7506 254.51 22.4706 254.63 22.2706 254.63C22.0706 254.63 21.8406 254.63 21.6106 254.63C21.4381 254.633 21.268 254.671 21.1113 254.744C20.9546 254.816 20.8147 254.92 20.7006 255.05C20.3133 255.413 20.0063 255.853 19.7996 256.343C19.593 256.832 19.4911 257.359 19.5006 257.89C19.5059 258.283 19.5665 258.673 19.6806 259.05C19.9474 259.898 20.3603 260.693 20.9006 261.4C21.0706 261.62 23.2706 265.17 26.7506 266.53C30.2306 267.89 30.2306 267.44 30.8606 267.38C31.3383 267.288 31.7912 267.097 32.1893 266.817C32.5875 266.538 32.922 266.178 33.1706 265.76C33.3886 265.253 33.4579 264.695 33.3706 264.15C33.2606 264 33.0006 263.89 32.7006 263.72Z" fill="white"/>
<path d="M89.9999 19.6398C83.6129 19.7691 77.531 22.3971 73.0597 26.9599C68.5884 31.5226 66.084 37.6564 66.084 44.0448C66.084 50.4331 68.5884 56.5669 73.0597 61.1297C77.531 65.6924 83.6129 68.3205 89.9999 68.4498C93.2464 68.5155 96.4734 67.9328 99.4919 66.7359C102.51 65.5389 105.26 63.7518 107.579 61.479C109.898 59.2063 111.741 56.4937 112.998 53.5001C114.256 50.5064 114.904 47.2919 114.904 44.0448C114.904 40.7976 114.256 37.5831 112.998 34.5895C111.741 31.5958 109.898 28.8832 107.579 26.6105C105.26 24.3378 102.51 22.5506 99.4919 21.3537C96.4734 20.1567 93.2464 19.574 89.9999 19.6398Z" fill="#263238"/>
<path d="M105.48 36.2197C105.304 35.5293 104.948 34.8984 104.447 34.3921C103.946 33.8858 103.319 33.5225 102.63 33.3397C100.1 32.6597 89.99 32.6597 89.99 32.6597C89.99 32.6597 79.88 32.6597 77.36 33.3397C76.6726 33.5266 76.0463 33.8911 75.5443 34.3966C75.0423 34.9022 74.6822 35.5309 74.5 36.2197C73.6068 41.4015 73.6068 46.6979 74.5 51.8797C74.684 52.5675 75.0448 53.1953 75.5465 53.7005C76.0482 54.2058 76.6735 54.5709 77.36 54.7597C79.88 55.4397 89.99 55.4397 89.99 55.4397C89.99 55.4397 100.1 55.4397 102.63 54.7597C103.316 54.5712 103.94 54.206 104.44 53.7006C104.94 53.1952 105.299 52.5672 105.48 51.8797C106.387 46.699 106.387 41.4003 105.48 36.2197Z" fill="white"/>
<path d="M86.6904 48.8597V39.2397L95.1404 44.0498L86.6904 48.8597Z" fill="#263238"/>
<path d="M86.5303 369C80.2013 369 74.0144 370.877 68.752 374.393C63.4897 377.909 59.3881 382.907 56.9661 388.754C54.5441 394.601 53.9104 401.035 55.1452 407.243C56.3799 413.45 59.4276 419.152 63.9029 423.627C68.3781 428.103 74.08 431.15 80.2874 432.385C86.4948 433.62 92.9289 432.986 98.7761 430.564C104.623 428.142 109.621 424.041 113.137 418.778C116.654 413.516 118.53 407.329 118.53 401C118.53 392.513 115.159 384.374 109.158 378.373C103.157 372.371 95.0172 369 86.5303 369Z" fill="#263238"/>
<path d="M81.1401 421.52H89.4201V400.79H95.1901L95.8101 393.85H89.4201V389.85C89.4201 388.21 89.7401 387.57 91.3301 387.57H95.8101V380.36H90.0801C83.9201 380.36 81.1401 383.08 81.1401 388.27V393.8H76.8301V400.8H81.1401V421.52Z" fill="white"/>
<path d="M364.26 337.11C359.432 337.108 354.711 338.538 350.695 341.22C346.679 343.901 343.549 347.713 341.7 352.174C339.852 356.635 339.367 361.544 340.309 366.28C341.25 371.016 343.575 375.366 346.99 378.78C350.404 382.195 354.755 384.52 359.491 385.461C364.227 386.403 369.136 385.919 373.596 384.07C378.057 382.221 381.869 379.091 384.551 375.075C387.232 371.059 388.662 366.339 388.66 361.51C388.652 355.041 386.079 348.839 381.505 344.265C376.931 339.691 370.729 337.118 364.26 337.11Z" fill="#263238"/>
<path d="M364.26 349.86C368.06 349.86 368.51 349.86 370.01 349.94C370.912 349.952 371.805 350.118 372.65 350.43C373.264 350.662 373.82 351.023 374.28 351.49C374.754 351.949 375.116 352.51 375.34 353.13C375.659 353.974 375.825 354.868 375.83 355.77C375.9 357.27 375.92 357.77 375.92 361.51C375.92 365.25 375.92 365.76 375.83 367.26C375.825 368.162 375.659 369.056 375.34 369.9C375.118 370.518 374.755 371.076 374.28 371.53C373.823 372.003 373.266 372.368 372.65 372.6C371.805 372.912 370.912 373.078 370.01 373.09C368.51 373.16 368.06 373.17 364.26 373.17C360.46 373.17 360.01 373.17 358.51 373.09C357.609 373.076 356.716 372.911 355.87 372.6C355.255 372.368 354.698 372.003 354.24 371.53C353.765 371.076 353.402 370.518 353.18 369.9C352.862 369.056 352.696 368.162 352.69 367.26C352.62 365.76 352.6 365.31 352.6 361.51C352.6 357.71 352.6 357.27 352.69 355.77C352.696 354.868 352.862 353.974 353.18 353.13C353.404 352.51 353.767 351.949 354.24 351.49C354.701 351.023 355.257 350.662 355.87 350.43C356.716 350.119 357.609 349.953 358.51 349.94C360.01 349.87 360.46 349.86 364.26 349.86ZM364.26 347.3C360.4 347.3 359.91 347.3 358.4 347.38C357.24 347.396 356.091 347.606 355 348C354.055 348.365 353.197 348.923 352.48 349.64C351.764 350.356 351.205 351.215 350.84 352.16C350.429 353.265 350.206 354.431 350.18 355.61C350.11 357.13 350.09 357.61 350.09 361.47C350.09 365.33 350.09 365.82 350.18 367.34C350.206 368.519 350.429 369.685 350.84 370.79C351.199 371.744 351.755 372.613 352.472 373.338C353.189 374.063 354.05 374.63 355 375C356.105 375.413 357.271 375.636 358.45 375.66C359.96 375.73 360.45 375.74 364.31 375.74C368.17 375.74 368.66 375.74 370.17 375.66C371.349 375.636 372.516 375.413 373.62 375C374.566 374.635 375.424 374.077 376.141 373.36C376.857 372.644 377.416 371.785 377.78 370.84C378.192 369.735 378.415 368.569 378.44 367.39C378.51 365.87 378.53 365.39 378.53 361.52C378.53 357.65 378.53 357.18 378.44 355.66C378.415 354.481 378.192 353.315 377.78 352.21C377.416 351.265 376.857 350.406 376.141 349.69C375.424 348.973 374.566 348.415 373.62 348.05C372.516 347.636 371.349 347.413 370.17 347.39C368.66 347.32 368.17 347.31 364.31 347.31" fill="white"/>
<path d="M364.26 354.21C362.814 354.208 361.399 354.635 360.195 355.438C358.992 356.24 358.053 357.382 357.499 358.718C356.944 360.054 356.799 361.525 357.08 362.944C357.362 364.363 358.059 365.666 359.081 366.689C360.104 367.712 361.408 368.408 362.827 368.69C364.246 368.972 365.716 368.826 367.052 368.272C368.389 367.717 369.53 366.779 370.333 365.575C371.135 364.371 371.562 362.957 371.56 361.51C371.56 359.574 370.791 357.717 369.422 356.348C368.053 354.979 366.197 354.21 364.26 354.21ZM364.26 366.21C363.323 366.21 362.406 365.932 361.627 365.411C360.848 364.89 360.24 364.15 359.881 363.284C359.522 362.418 359.429 361.465 359.612 360.545C359.794 359.626 360.246 358.781 360.909 358.118C361.572 357.455 362.416 357.004 363.336 356.821C364.255 356.638 365.208 356.732 366.074 357.091C366.94 357.45 367.681 358.057 368.202 358.837C368.722 359.616 369 360.532 369 361.47C369 362.727 368.501 363.933 367.612 364.822C366.723 365.711 365.518 366.21 364.26 366.21Z" fill="white"/>
<path d="M373.56 353.92C373.562 354.258 373.463 354.59 373.277 354.872C373.09 355.155 372.824 355.376 372.511 355.507C372.199 355.638 371.855 355.673 371.523 355.608C371.19 355.543 370.885 355.381 370.645 355.142C370.404 354.904 370.241 354.599 370.174 354.267C370.107 353.935 370.14 353.591 370.269 353.278C370.398 352.965 370.618 352.697 370.899 352.509C371.18 352.32 371.511 352.22 371.85 352.22C372.302 352.22 372.735 352.399 373.056 352.717C373.376 353.036 373.557 353.468 373.56 353.92Z" fill="white"/>
<path d="M373.18 142.64C363.367 142.64 353.956 138.741 347.017 131.803C340.078 124.864 336.18 115.453 336.18 105.64C336.18 95.8266 340.078 86.4155 347.017 79.4767C353.956 72.5379 363.367 68.6396 373.18 68.6396C382.993 68.6396 392.404 72.5379 399.343 79.4767C406.282 86.4155 410.18 95.8266 410.18 105.64C410.18 115.453 406.282 124.864 399.343 131.803C392.404 138.741 382.993 142.64 373.18 142.64Z" fill="#263238" stroke="#263238" stroke-linecap="round" stroke-linejoin="round"/>
<path d="M353.48 118.05C357.176 120.423 361.477 121.683 365.87 121.68C380.87 121.68 389.36 109 388.87 97.6298C390.437 96.4802 391.79 95.0655 392.87 93.4498C391.396 94.103 389.831 94.5311 388.23 94.7198C389.916 93.7093 391.177 92.1208 391.78 90.2498C390.196 91.2035 388.461 91.8798 386.65 92.2498C385.432 90.9512 383.82 90.0906 382.063 89.8013C380.306 89.5121 378.503 89.8104 376.934 90.6501C375.364 91.4897 374.114 92.8238 373.38 94.4455C372.645 96.0672 372.466 97.886 372.87 99.6199C369.656 99.4613 366.512 98.6278 363.641 97.1737C360.771 95.7195 358.239 93.6773 356.21 91.1798C355.176 92.959 354.86 95.0652 355.324 97.0697C355.788 99.0743 356.999 100.827 358.71 101.97C357.428 101.931 356.174 101.588 355.05 100.97C355.035 102.848 355.673 104.672 356.855 106.132C358.038 107.591 359.69 108.594 361.53 108.97C360.343 109.295 359.097 109.339 357.89 109.1C358.404 110.708 359.408 112.115 360.762 113.123C362.116 114.131 363.752 114.689 365.44 114.72C362.049 117.364 357.75 118.561 353.48 118.05Z" fill="white"/>
<path d="M83.1499 173.73C79.3386 173.73 75.613 174.86 72.4441 176.978C69.2751 179.095 66.8052 182.105 65.3467 185.626C63.8882 189.147 63.5066 193.021 64.2502 196.759C64.9937 200.497 66.829 203.931 69.5239 206.626C72.2189 209.321 75.6525 211.156 79.3905 211.9C83.1285 212.643 87.0031 212.262 90.5242 210.803C94.0453 209.345 97.0549 206.875 99.1723 203.706C101.29 200.537 102.42 196.811 102.42 193C102.415 187.891 100.383 182.993 96.77 179.38C93.1573 175.767 88.259 173.735 83.1499 173.73Z" fill="#808080"/>
<path d="M77.53 187.95H73.29V201.64H77.53V187.95Z" fill="white"/>
<path d="M75.3899 186.16C75.8911 186.164 76.3822 186.019 76.8009 185.743C77.2196 185.468 77.547 185.074 77.7415 184.612C77.9361 184.15 77.9891 183.641 77.8937 183.149C77.7984 182.657 77.559 182.204 77.206 181.848C76.853 181.492 76.4022 181.249 75.9109 181.15C75.4196 181.051 74.9099 181.1 74.4464 181.291C73.9829 181.482 73.5866 181.806 73.3077 182.222C73.0288 182.639 72.8799 183.129 72.8799 183.63C72.8786 183.961 72.9425 184.289 73.0679 184.595C73.1933 184.901 73.3778 185.18 73.6109 185.415C73.844 185.65 74.1211 185.837 74.4263 185.964C74.7315 186.092 75.059 186.159 75.3899 186.16Z" fill="white"/>
<path d="M84.3097 194.46C84.3097 192.53 85.1897 191.39 86.8897 191.39C88.5897 191.39 89.1897 192.49 89.1897 194.46V201.64H93.4097V193C93.4097 189.34 91.3297 187.56 88.4097 187.56C87.5852 187.549 86.772 187.753 86.0497 188.151C85.3275 188.548 84.721 189.127 84.2897 189.83V188H80.2197V201.69H84.2897L84.3097 194.46Z" fill="white"/>
<path d="M397.94 310.34C395.314 310.34 392.713 309.823 390.287 308.817C387.86 307.812 385.655 306.339 383.798 304.482C381.941 302.625 380.468 300.42 379.463 297.994C378.458 295.567 377.94 292.966 377.94 290.34C377.94 285.036 380.048 279.948 383.798 276.198C387.549 272.447 392.636 270.34 397.94 270.34C403.245 270.34 408.332 272.447 412.083 276.198C415.833 279.948 417.94 285.036 417.94 290.34C417.94 292.966 417.423 295.567 416.418 297.994C415.413 300.42 413.94 302.625 412.083 304.482C410.225 306.339 408.021 307.812 405.594 308.817C403.168 309.823 400.567 310.34 397.94 310.34Z" fill="#808080"/>
<path d="M395 297.92C395.577 297.811 396.121 297.572 396.59 297.22C396.992 296.917 397.331 296.541 397.59 296.11C398.012 295.443 398.231 294.668 398.22 293.88C398.239 293.154 398.048 292.439 397.67 291.82C397.284 291.237 396.714 290.8 396.05 290.58C396.456 290.391 396.82 290.122 397.12 289.79C397.575 289.198 397.805 288.465 397.77 287.72C397.788 286.955 397.56 286.205 397.12 285.58C396.678 285.059 396.118 284.652 395.486 284.393C394.855 284.134 394.17 284.03 393.49 284.09H386.71V298.09H393C393.671 298.104 394.341 298.047 395 297.92ZM389.5 286.52H392.55C393.112 286.503 393.672 286.577 394.21 286.74C394.457 286.846 394.663 287.028 394.799 287.261C394.934 287.493 394.99 287.763 394.96 288.03C394.985 288.269 394.945 288.51 394.845 288.728C394.744 288.946 394.587 289.133 394.39 289.27C393.937 289.516 393.425 289.634 392.91 289.61H389.5V286.52ZM389.5 295.68V291.94H392.95C393.427 291.919 393.904 291.998 394.35 292.17C394.638 292.297 394.879 292.511 395.04 292.781C395.202 293.052 395.275 293.366 395.25 293.68C395.287 294.031 395.219 294.385 395.053 294.697C394.887 295.009 394.632 295.264 394.32 295.43C393.87 295.615 393.386 295.7 392.9 295.68H389.5Z" fill="white"/>
<path d="M400.53 297.19C401.56 298.029 402.852 298.479 404.18 298.46C404.902 298.506 405.626 298.395 406.301 298.134C406.976 297.874 407.587 297.47 408.09 296.95C408.618 296.452 408.97 295.796 409.09 295.08H406.32C406.186 295.351 405.999 295.592 405.77 295.79C405.34 296.124 404.805 296.294 404.26 296.27C403.733 296.284 403.213 296.149 402.76 295.88C402.407 295.638 402.122 295.31 401.933 294.926C401.744 294.543 401.657 294.117 401.68 293.69H409.23C409.258 293.002 409.231 292.313 409.15 291.63C409.035 290.861 408.752 290.127 408.32 289.48C407.88 288.811 407.259 288.281 406.53 287.95C405.76 287.618 404.929 287.451 404.09 287.46C403.406 287.433 402.724 287.547 402.086 287.795C401.448 288.043 400.867 288.419 400.38 288.9C399.892 289.459 399.518 290.109 399.281 290.812C399.045 291.516 398.949 292.259 399 293C398.914 293.769 399.007 294.548 399.272 295.275C399.538 296.002 399.968 296.658 400.53 297.19ZM402.47 290.29C402.685 290.086 402.94 289.928 403.219 289.826C403.498 289.725 403.794 289.682 404.09 289.7C404.677 289.684 405.25 289.883 405.7 290.26C405.925 290.47 406.105 290.724 406.229 291.006C406.353 291.288 406.418 291.592 406.42 291.9H401.75C401.811 291.3 402.063 290.735 402.47 290.29Z" fill="white"/>
<path d="M406.96 284.89H400.86V286.31H406.96V284.89Z" fill="white"/>
<path d="M252.33 43.6099C247.026 43.6099 241.939 41.5027 238.188 37.752C234.437 34.0013 232.33 28.9142 232.33 23.6099C232.33 18.3055 234.437 13.2185 238.188 9.46773C241.939 5.717 247.026 3.60986 252.33 3.60986C257.634 3.60986 262.722 5.717 266.472 9.46773C270.223 13.2185 272.33 18.3055 272.33 23.6099C272.33 28.9142 270.223 34.0013 266.472 37.752C262.722 41.5027 257.634 43.6099 252.33 43.6099Z" fill="#808080"/>
<path fill-rule="evenodd" clip-rule="evenodd" d="M263.941 29.4598C263.706 29.3325 263.453 29.2415 263.191 29.1898C261.957 28.7681 260.88 27.9839 260.101 26.9398C259.637 26.3785 259.266 25.7473 259 25.0698C258.94 24.9468 258.909 24.8117 258.909 24.6748C258.909 24.5379 258.94 24.4028 259 24.2798C259.28 23.9566 259.649 23.7234 260.06 23.6098C260.581 23.4586 261.067 23.2073 261.49 22.8698C261.58 22.7967 261.652 22.7044 261.701 22.5998C261.706 22.5701 261.706 22.5395 261.701 22.5098C261.751 22.3881 261.751 22.2515 261.701 22.1298C261.588 21.9214 261.413 21.7535 261.201 21.6498C261.072 21.5731 260.928 21.526 260.78 21.5122C260.631 21.4983 260.481 21.518 260.34 21.5698C260.094 21.6661 259.84 21.7397 259.58 21.7898C259.294 21.856 258.997 21.856 258.71 21.7898C258.71 21.7898 258.71 21.6798 258.71 21.5998C258.71 21.0698 258.71 20.5298 258.71 19.9698C258.765 19.103 258.745 18.2332 258.65 17.3698C258.336 15.8931 257.461 14.5957 256.21 13.7498C255.321 13.1399 254.286 12.7743 253.21 12.6898C252.85 12.6898 252.501 12.6898 252.141 12.6898C250.854 12.6347 249.582 12.9778 248.497 13.6721C247.413 14.3664 246.569 15.3783 246.08 16.5698C245.738 17.5858 245.629 18.6658 245.761 19.7298C245.821 20.4214 245.838 21.1161 245.81 21.8098C245.48 21.8671 245.141 21.8671 244.81 21.8098C244.57 21.8098 244.31 21.6698 244.02 21.5898C243.887 21.5659 243.749 21.5695 243.617 21.6005C243.485 21.6314 243.36 21.689 243.251 21.7698C243.133 21.8313 243.033 21.9211 242.96 22.0312C242.887 22.1413 242.842 22.268 242.83 22.3998V22.4598C242.862 22.6271 242.955 22.7767 243.09 22.8798L243.36 23.0798C243.87 23.3719 244.41 23.6067 244.971 23.7798C245.133 23.833 245.282 23.9215 245.407 24.0391C245.531 24.1567 245.628 24.3004 245.691 24.4598C245.732 24.8937 245.63 25.3291 245.4 25.6998C244.839 26.7999 244.014 27.7445 243.001 28.4498C242.45 28.8208 241.842 29.0979 241.201 29.2698C240.949 29.3115 240.722 29.443 240.56 29.6398V29.7098C240.534 29.7948 240.529 29.8852 240.546 29.9726C240.564 30.06 240.603 30.1416 240.661 30.2098C240.734 30.2987 240.826 30.3704 240.93 30.4198C241.451 30.688 242.006 30.8831 242.58 30.9998C242.922 31.0517 243.257 31.1388 243.58 31.2598L243.691 31.5398C243.791 31.8398 243.831 32.1798 243.941 32.5398C243.958 32.5901 243.989 32.635 244.029 32.67C244.07 32.7051 244.118 32.7291 244.171 32.7398C244.295 32.7915 244.436 32.7915 244.56 32.7398C245.415 32.5313 246.304 32.5007 247.171 32.6498C248.063 32.9806 248.904 33.4351 249.671 33.9998C250.262 34.4123 250.952 34.6607 251.671 34.7198C252.223 34.7552 252.778 34.7552 253.33 34.7198C253.795 34.6739 254.243 34.5235 254.641 34.2798C255.531 33.7698 256.31 33.1698 257.18 32.7798C257.508 32.7033 257.844 32.6664 258.18 32.6698C258.899 32.643 259.618 32.6764 260.33 32.7698C260.342 32.7745 260.353 32.7769 260.365 32.7769C260.378 32.7769 260.389 32.7745 260.4 32.7698C260.497 32.7582 260.586 32.712 260.65 32.6398C260.685 32.5956 260.708 32.5444 260.721 32.4898C260.721 32.3798 260.721 32.4098 260.721 32.4898C260.725 32.47 260.725 32.4496 260.721 32.4298C260.797 32.0733 260.94 31.7342 261.141 31.4298C261.2 31.3776 261.27 31.3382 261.346 31.3141C261.422 31.2901 261.501 31.2818 261.58 31.2898C262.164 31.1977 262.735 31.0366 263.28 30.8098C263.55 30.7216 263.79 30.5586 263.971 30.3398C264.009 30.2853 264.037 30.2235 264.05 30.1581C264.064 30.0927 264.065 30.0251 264.052 29.9596C264.039 29.894 264.012 29.8318 263.974 29.7768C263.936 29.7218 263.887 29.6752 263.83 29.6398L263.941 29.4598Z" fill="white"/>
<path d="M298.71 58.5898H138.66C130.64 58.5898 124.14 65.0907 124.14 73.1098V413.07C124.14 421.089 130.64 427.59 138.66 427.59H298.71C306.729 427.59 313.23 421.089 313.23 413.07V73.1098C313.23 65.0907 306.729 58.5898 298.71 58.5898Z" fill="#263238"/>
<mask id="mask0_663_2231" style="mask-type:luminance" maskUnits="userSpaceOnUse" x="124" y="58" width="190" height="370">
<path d="M298.71 58.5898H138.66C130.64 58.5898 124.14 65.0907 124.14 73.1098V413.07C124.14 421.089 130.64 427.59 138.66 427.59H298.71C306.729 427.59 313.23 421.089 313.23 413.07V73.1098C313.23 65.0907 306.729 58.5898 298.71 58.5898Z" fill="white"/>
</mask>
<g mask="url(#mask0_663_2231)">
<path opacity="0.2" d="M140.43 58.5898C136.109 58.5898 131.966 60.3061 128.911 63.3611C125.856 66.416 124.14 70.5595 124.14 74.8798V411.29C124.137 413.674 124.659 416.03 125.668 418.19C126.677 420.35 128.149 422.262 129.98 423.79L240.3 58.5898H140.43Z" fill="white"/>
<path d="M225.099 416.91C225.099 415.638 224.722 414.394 224.015 413.337C223.308 412.279 222.303 411.455 221.128 410.968C219.952 410.482 218.659 410.355 217.411 410.604C216.164 410.853 215.018 411.467 214.119 412.367C213.22 413.267 212.609 414.414 212.362 415.662C212.115 416.91 212.243 418.203 212.732 419.378C213.22 420.552 214.046 421.556 215.104 422.261C216.163 422.967 217.407 423.342 218.679 423.34C219.523 423.34 220.359 423.174 221.138 422.85C221.918 422.527 222.626 422.053 223.222 421.456C223.819 420.859 224.291 420.15 224.613 419.37C224.935 418.59 225.101 417.754 225.099 416.91Z" stroke="white" stroke-linecap="round" stroke-linejoin="round"/>
</g>
<path d="M298.71 58.5898H138.66C130.64 58.5898 124.14 65.0907 124.14 73.1098V413.07C124.14 421.089 130.64 427.59 138.66 427.59H298.71C306.729 427.59 313.23 421.089 313.23 413.07V73.1098C313.23 65.0907 306.729 58.5898 298.71 58.5898Z" stroke="#263238" stroke-linecap="round" stroke-linejoin="round"/>
<path d="M304.81 83.6499H132.54V405.69H304.81V83.6499Z" fill="#7D18F7" stroke="#263238" stroke-linecap="round" stroke-linejoin="round"/>
<path d="M215.969 340.51C259.594 340.51 294.959 305.145 294.959 261.52C294.959 217.895 259.594 182.53 215.969 182.53C172.345 182.53 136.979 217.895 136.979 261.52C136.979 305.145 172.345 340.51 215.969 340.51Z" fill="#263238"/>
<path d="M299.55 122.3H138.5V158.97H299.55V122.3Z" fill="white"/>
<path d="M299.55 363.07H138.5V399.74H299.55V363.07Z" fill="white"/>
<path d="M299.55 350.32H138.5V351.91H299.55V350.32Z" fill="white"/>
<path d="M299.55 357.49H138.5V359.08H299.55V357.49Z" fill="white"/>
<path d="M298.949 86.9897H284.669V94.8197H298.949V86.9897Z" stroke="#263238" stroke-width="0.821067" stroke-linecap="round" stroke-linejoin="round"/>
<path d="M295.809 86.9897H284.669V94.8197H295.809V86.9897Z" fill="#263238" stroke="#263238" stroke-width="0.725073" stroke-linecap="round" stroke-linejoin="round"/>
<path d="M300.929 89.1797H298.919V92.6297H300.929V89.1797Z" fill="#263238" stroke="#263238" stroke-width="0.725073" stroke-linecap="round" stroke-linejoin="round"/>
<path d="M139.04 89.4199H136.42V93.9099H139.04V89.4199Z" fill="#263238" stroke="#263238" stroke-width="0.883086" stroke-linecap="round" stroke-linejoin="round"/>
<path d="M143.16 87.8398H140.54V93.9099H143.16V87.8398Z" fill="#263238" stroke="#263238" stroke-width="0.883086" stroke-linecap="round" stroke-linejoin="round"/>
<path d="M147.269 85.98H144.649V93.91H147.269V85.98Z" fill="#263238" stroke="#263238" stroke-width="0.883086" stroke-linecap="round" stroke-linejoin="round"/>
<path d="M300.739 99.1699H135.319V111.61H300.739V99.1699Z" fill="#263238"/>
<mask id="mask1_663_2231" style="mask-type:luminance" maskUnits="userSpaceOnUse" x="139" y="126" width="269" height="212">
<path d="M407.67 126.27H206.31V186C193.834 187.6 181.948 192.266 171.716 199.581C161.483 206.896 153.222 216.632 147.671 227.919C142.119 239.206 139.451 251.693 139.904 264.263C140.357 276.833 143.917 289.095 150.266 299.954C156.615 310.812 165.555 319.929 176.288 326.488C187.02 333.048 199.211 336.846 211.77 337.544C224.329 338.242 236.865 335.818 248.258 330.488C259.652 325.158 269.547 317.088 277.06 307H407.67V126.27Z" fill="white"/>
</mask>
<g mask="url(#mask1_663_2231)">
<path d="M133 336C133 336 154.08 262.6 158.06 246.91C162.04 231.22 168.06 221.01 180.48 218.52C192.9 216.03 215.83 213.72 215.83 213.72C215.83 213.72 235.76 211.72 250.2 212.72C264.64 213.72 277.85 221.44 284.82 226.72C291.79 232 311.97 250.13 311.97 250.13L309.48 208.29L327.66 209.78C327.66 209.78 340.86 268.06 342.6 278.78C344.34 289.5 344.35 294.23 342.6 295.47C340.85 296.71 343.85 297.47 327.91 292.23C311.97 286.99 293.29 279.78 283.08 276.79C272.87 273.8 271.62 273.3 271.62 273.3C271.62 273.3 246.62 310.92 238.67 322.13C233.213 330.089 228.36 338.446 224.15 347.13" fill="white"/>
<mask id="mask2_663_2231" style="mask-type:luminance" maskUnits="userSpaceOnUse" x="133" y="208" width="211" height="140">
<path d="M133 336C133 336 154.08 262.6 158.06 246.91C162.04 231.22 168.06 221.01 180.48 218.52C192.9 216.03 215.83 213.72 215.83 213.72C215.83 213.72 235.76 211.72 250.2 212.72C264.64 213.72 277.85 221.44 284.82 226.72C291.79 232 311.97 250.13 311.97 250.13L309.48 208.29L327.66 209.78C327.66 209.78 340.86 268.06 342.6 278.78C344.34 289.5 344.35 294.23 342.6 295.47C340.85 296.71 343.85 297.47 327.91 292.23C311.97 286.99 293.29 279.78 283.08 276.79C272.87 273.8 271.62 273.3 271.62 273.3C271.62 273.3 246.62 310.92 238.67 322.13C233.213 330.089 228.36 338.446 224.15 347.13" fill="white"/>
</mask>
<g mask="url(#mask2_663_2231)">
<path opacity="0.2" d="M342.57 295.39C344.32 294.15 344.32 289.39 342.57 278.7C341.57 272.31 336.42 249 332.46 231.22C334.03 252.22 334.64 272.74 331.46 276.57C324.46 284.85 314.23 273.97 314.23 273.97L312.28 257.83C312.28 257.83 277.42 232.12 264.34 227.76C251.26 223.4 237.34 222.53 223.81 226.89C210.28 231.25 198.97 235.61 190.69 243.89C182.41 252.17 153.69 318.41 153.69 318.41L150.44 338.08L224.12 347C228.33 338.316 233.184 329.959 238.64 322C246.64 310.79 271.59 273.17 271.59 273.17C271.59 273.17 272.84 273.67 283.05 276.66C293.26 279.65 311.94 286.87 327.88 292.1C343.82 297.33 340.83 296.64 342.57 295.39Z" fill="black"/>
</g>
<path d="M133 336C133 336 154.08 262.6 158.06 246.91C162.04 231.22 168.06 221.01 180.48 218.52C192.9 216.03 215.83 213.72 215.83 213.72C215.83 213.72 235.76 211.72 250.2 212.72C264.64 213.72 277.85 221.44 284.82 226.72C291.79 232 311.97 250.13 311.97 250.13L309.48 208.29L327.66 209.78C327.66 209.78 340.86 268.06 342.6 278.78C344.34 289.5 344.35 294.23 342.6 295.47C340.85 296.71 343.85 297.47 327.91 292.23C311.97 286.99 293.29 279.78 283.08 276.79C272.87 273.8 271.62 273.3 271.62 273.3C271.62 273.3 246.62 310.92 238.67 322.13C233.213 330.089 228.36 338.446 224.15 347.13" stroke="#263238" stroke-linecap="round" stroke-linejoin="round"/>
<path d="M278.7 261.67L271.59 273.23L292.63 261.67" stroke="#263238" stroke-linecap="round" stroke-linejoin="round"/>
<path d="M311.94 250.06C311.94 250.06 312.94 270.73 314.18 273.97C315.42 277.21 320.91 278.7 320.91 278.7" fill="white"/>
<path d="M311.94 250.06C311.94 250.06 312.94 270.73 314.18 273.97C315.42 277.21 320.91 278.7 320.91 278.7" stroke="#263238" stroke-linecap="round" stroke-linejoin="round"/>
<path d="M202.19 249.43C202.19 249.43 199.47 255.88 200.83 255.88C202.19 255.88 211.02 252.49 215.1 252.49C219.18 252.49 223.59 259.62 223.59 259.62C223.59 259.62 235.48 250.79 239.22 251.81C241.052 252.423 242.732 253.419 244.15 254.73C244.386 254.936 244.676 255.071 244.986 255.119C245.296 255.167 245.613 255.127 245.9 255.002C246.188 254.878 246.435 254.674 246.612 254.416C246.788 254.157 246.888 253.853 246.9 253.54C246.97 251.71 247.03 249.21 247.03 246.03C247.03 238.56 240.58 218.18 228.69 217.16C216.8 216.14 214.76 224.63 209.69 234.82C204.62 245.01 202.19 249.43 202.19 249.43Z" fill="#263238"/>
<path d="M227.76 205.48C227.76 205.48 216.3 207 211.07 212C205.84 217 207.58 224.95 204.84 232.17C202.1 239.39 197.37 254.09 199.84 253.84C202.31 253.59 211.05 246.62 213.54 248.36C216.03 250.1 221.76 257.36 222.76 257.82C223.76 258.28 236.46 249.11 238.2 248.11C239.94 247.11 248.41 258.11 248.66 255.11C248.91 252.11 249.41 234.44 247.66 223.73C245.91 213.02 233.49 205.73 227.76 205.48Z" fill="white" stroke="#263238" stroke-linecap="round" stroke-linejoin="round"/>
<path d="M231.74 191.53C231.74 191.53 227.51 204.48 224 209C220.49 213.52 219 214.23 217.78 224.69C216.56 235.15 222.01 258.81 223.78 258.31C225.55 257.81 242.71 230.42 248.44 225.93C254.17 221.44 260.15 216.72 260.15 216.72C260.15 216.72 246.2 212.48 241.47 206.51C237.895 201.739 234.645 196.735 231.74 191.53Z" fill="white"/>
<mask id="mask3_663_2231" style="mask-type:luminance" maskUnits="userSpaceOnUse" x="217" y="191" width="44" height="68">
<path d="M231.74 191.53C231.74 191.53 227.51 204.48 224 209C220.49 213.52 219 214.23 217.78 224.69C216.56 235.15 222.01 258.81 223.78 258.31C225.55 257.81 242.71 230.42 248.44 225.93C254.17 221.44 260.15 216.72 260.15 216.72C260.15 216.72 246.2 212.48 241.47 206.51C237.895 201.739 234.645 196.735 231.74 191.53Z" fill="white"/>
</mask>
<g mask="url(#mask3_663_2231)">
<path opacity="0.2" d="M250.91 224C255.76 220.19 260.14 216.73 260.14 216.73C260.14 216.73 246.19 212.49 241.46 206.52C237.89 201.759 234.643 196.764 231.74 191.57C230.289 195.954 228.597 200.253 226.67 204.45C228.78 210.36 234.66 220 250.91 224Z" fill="black"/>
<path d="M241.46 206.48C237.89 201.719 234.643 196.724 231.74 191.53C231.74 191.53 230.32 195.88 228.45 200.41C230 204.9 233.11 211.58 238.68 215.52C243.184 218.525 248.18 220.718 253.44 222L260.14 216.72C260.14 216.72 246.19 212.45 241.46 206.48Z" fill="#263238"/>
</g>
<path d="M231.74 191.53C231.74 191.53 227.51 204.48 224 209C220.49 213.52 219 214.23 217.78 224.69C216.56 235.15 222.01 258.81 223.78 258.31C225.55 257.81 242.71 230.42 248.44 225.93C254.17 221.44 260.15 216.72 260.15 216.72C260.15 216.72 246.2 212.48 241.47 206.51C237.895 201.739 234.645 196.735 231.74 191.53Z" stroke="#263238" stroke-linecap="round" stroke-linejoin="round"/>
<path d="M284.79 158.41C284.79 158.41 284.05 175.1 284.54 180.57C285.03 186.04 287.03 195.57 282.54 204.48C278.05 213.39 274.32 219.18 270.09 220.67C265.86 222.16 252.16 219.18 241.2 210.96C230.24 202.74 228.25 185.81 226.5 180.33C224.75 174.85 226.75 156.17 237.96 150.19C247.036 145.518 257.567 144.536 267.35 147.45C273.34 149.44 284.79 158.41 284.79 158.41Z" fill="white"/>
<mask id="mask4_663_2231" style="mask-type:luminance" maskUnits="userSpaceOnUse" x="225" y="145" width="61" height="77">
<path d="M284.79 158.41C284.79 158.41 284.05 175.1 284.54 180.57C285.03 186.04 287.03 195.57 282.54 204.48C278.05 213.39 274.32 219.18 270.09 220.67C265.86 222.16 252.16 219.18 241.2 210.96C230.24 202.74 228.25 185.81 226.5 180.33C224.75 174.85 226.75 156.17 237.96 150.19C247.036 145.518 257.567 144.536 267.35 147.45C273.34 149.44 284.79 158.41 284.79 158.41Z" fill="white"/>
</mask>
<g mask="url(#mask4_663_2231)">
<path opacity="0.2" d="M238 150.189C236.401 151.055 234.953 152.173 233.71 153.499L239.48 157.599C239.48 157.599 246.89 150.189 263.48 160.649C272.04 166.049 279.42 166.919 284.57 166.489C284.69 162.049 284.85 158.409 284.85 158.409C284.85 158.409 273.4 149.409 267.42 147.409C257.622 144.5 247.079 145.496 238 150.189Z" fill="black"/>
</g>
<path d="M284.79 158.41C284.79 158.41 284.05 175.1 284.54 180.57C285.03 186.04 287.03 195.57 282.54 204.48C278.05 213.39 274.32 219.18 270.09 220.67C265.86 222.16 252.16 219.18 241.2 210.96C230.24 202.74 228.25 185.81 226.5 180.33C224.75 174.85 226.75 156.17 237.96 150.19C247.036 145.518 257.567 144.536 267.35 147.45C273.34 149.44 284.79 158.41 284.79 158.41Z" stroke="#263238" stroke-linecap="round" stroke-linejoin="round"/>
<path d="M261.27 180.92C261.27 182.69 260.58 184.13 259.73 184.13C258.88 184.13 258.19 182.69 258.19 180.92C258.19 179.15 258.88 177.7 259.73 177.7C260.58 177.7 261.27 179.14 261.27 180.92Z" fill="#263238"/>
<path d="M279.46 182.59C279.46 184.37 278.77 185.81 277.92 185.81C277.07 185.81 276.38 184.37 276.38 182.59C276.38 180.81 277.07 179.38 277.92 179.38C278.77 179.38 279.46 180.82 279.46 182.59Z" fill="#263238"/>
<path d="M274.58 177.84C274.58 177.84 269.85 182.57 271.09 184.56C272.33 186.55 275.23 187.67 274.33 190.56C273.43 193.45 266.86 194.56 264.62 190.56" stroke="#263238" stroke-linecap="round" stroke-linejoin="round"/>
<path d="M250.42 193.28C252.277 195.533 254.593 197.365 257.214 198.653C259.835 199.942 262.701 200.656 265.62 200.75C265.62 200.75 255.4 207.47 250.92 206.75C246.44 206.03 250.42 193.28 250.42 193.28Z" fill="#263238" stroke="#263238" stroke-linecap="round" stroke-linejoin="round"/>
<path d="M252.81 171.42C252.81 171.42 257.15 165.42 265.81 169.15" stroke="#263238" stroke-linecap="round" stroke-linejoin="round"/>
<path d="M276.32 171.61C276.32 171.61 281.8 170.35 283.79 175.61" stroke="#263238" stroke-linecap="round" stroke-linejoin="round"/>
<path d="M228.26 187.05C228.26 187.05 230.5 177.34 235.98 173.85C241.46 170.36 246.69 171.11 243.45 166.38C240.21 161.65 238.45 156.91 245.45 154.67C252.45 152.43 266.12 156.17 274.09 159.16C282.06 162.15 297.5 163.16 301.49 151.93C303.95 145.01 296.75 139.5 291.49 136.67C285.66 133.55 279.12 132 272.54 133.16C268.54 133.85 264.73 135.42 260.73 135.82C253.96 136.51 247.99 133.37 241.24 135C235.575 136.352 230.503 139.511 226.79 144C220.54 151.68 218.79 165.63 228.26 187.05Z" fill="#263238"/>
<mask id="mask5_663_2231" style="mask-type:luminance" maskUnits="userSpaceOnUse" x="221" y="132" width="81" height="56">
<path d="M228.26 187.05C228.26 187.05 230.5 177.34 235.98 173.85C241.46 170.36 246.69 171.11 243.45 166.38C240.21 161.65 238.45 156.91 245.45 154.67C252.45 152.43 266.12 156.17 274.09 159.16C282.06 162.15 297.5 163.16 301.49 151.93C303.95 145.01 296.75 139.5 291.49 136.67C285.66 133.55 279.12 132 272.54 133.16C268.54 133.85 264.73 135.42 260.73 135.82C253.96 136.51 247.99 133.37 241.24 135C235.575 136.352 230.503 139.511 226.79 144C220.54 151.68 218.79 165.63 228.26 187.05Z" fill="white"/>
</mask>
<g mask="url(#mask5_663_2231)">
<path d="M285.93 132.69C285.93 132.69 298.87 139.69 289.81 151.32C280.75 162.95 272.22 154.95 250.73 150.81C229.24 146.67 216.57 157.28 216.57 157.28" stroke="#808080" stroke-linecap="round" stroke-linejoin="round"/>
<path d="M218.38 170C218.38 170 222.52 162 235.98 159.65C249.44 157.3 250.22 159.39 250.22 159.39" stroke="#808080" stroke-linecap="round" stroke-linejoin="round"/>
</g>
<path d="M228.26 187.05C228.26 187.05 230.5 177.34 235.98 173.85C241.46 170.36 246.69 171.11 243.45 166.38C240.21 161.65 238.45 156.91 245.45 154.67C252.45 152.43 266.12 156.17 274.09 159.16C282.06 162.15 297.5 163.16 301.49 151.93C303.95 145.01 296.75 139.5 291.49 136.67C285.66 133.55 279.12 132 272.54 133.16C268.54 133.85 264.73 135.42 260.73 135.82C253.96 136.51 247.99 133.37 241.24 135C235.575 136.352 230.503 139.511 226.79 144C220.54 151.68 218.79 165.63 228.26 187.05Z" stroke="#263238" stroke-linecap="round" stroke-linejoin="round"/>
<path d="M233.89 183.51C233.89 183.51 227.43 168.72 221.74 176.42C216.05 184.12 226.36 193.86 234.1 191.97" fill="white"/>
<path d="M233.89 183.51C233.89 183.51 227.43 168.72 221.74 176.42C216.05 184.12 226.36 193.86 234.1 191.97" stroke="#263238" stroke-linecap="round" stroke-linejoin="round"/>
<path d="M304.22 181.82C304.22 181.82 299.99 181.32 299.22 184.82C298.45 188.32 297.72 193.82 299.22 193.82C300.72 193.82 303.45 193.08 304.45 190.82C305.45 188.56 306.45 181.6 306.45 181.6L304.22 181.82Z" fill="white" stroke="#263238" stroke-linecap="round" stroke-linejoin="round"/>
<path d="M310.94 180.57C310.94 180.57 304.94 179.57 304.22 181.82C303.5 184.07 302.48 191.82 303.22 192.03C303.96 192.24 308.45 190.29 308.45 190.29L310.94 180.57Z" fill="white" stroke="#263238" stroke-linecap="round" stroke-linejoin="round"/>
<path d="M318.91 181.07C318.91 181.07 311.91 176.59 310.2 178.83C308.49 181.07 308.45 190.29 308.45 190.29C309.069 190.427 309.713 190.407 310.322 190.232C310.931 190.058 311.488 189.734 311.94 189.29C313.19 187.8 314.68 185.81 314.68 185.81C314.68 185.81 319.68 187.05 320.41 186.81C321.14 186.57 322.9 186.81 322.41 184.32C321.92 181.83 318.91 181.07 318.91 181.07Z" fill="white" stroke="#263238" stroke-linecap="round" stroke-linejoin="round"/>
<path d="M328.38 185.56C325.237 183.387 322.672 180.48 320.91 177.09C318.42 171.86 317.17 172.09 315.91 174.35C314.65 176.61 316.15 178.83 317.15 180.82C318.15 182.81 322.38 187.55 322.38 187.55L328.38 185.56Z" fill="white" stroke="#263238" stroke-linecap="round" stroke-linejoin="round"/>
<path d="M283.58 220.4C283.58 220.4 279.97 251.23 280.53 252.9C281.09 254.57 287.19 256.51 288.58 255.4C289.97 254.29 289.14 252.07 288.58 250.68C288.02 249.29 293.3 223.46 293.3 223.46L283.58 220.4Z" fill="#7D18F7" stroke="#263238" stroke-linecap="round" stroke-linejoin="round"/>
<path d="M192.63 231.08L210.91 288.17C210.91 288.17 252.91 263.71 262.75 250.95C272.59 238.19 278.27 223.8 281.75 222.45C285.23 221.1 297.51 224.45 299.31 226.45C301.11 228.45 300.69 230.64 298.51 232.7C296.33 234.76 295.09 235.05 295.09 235.05C295.09 235.05 294.98 239.54 294 240.32C293.02 241.1 293.25 240.09 293 241.09C292.83 242.159 292.438 243.181 291.85 244.09C291.13 245.09 290.85 245.61 290.16 245.88C288.727 246.49 287.236 246.952 285.71 247.26C283.022 247.953 280.289 248.454 277.53 248.76C275.8 249.06 264.53 271.33 253.95 284.6C243.37 297.87 209.95 328.3 204.7 328.46C199.45 328.62 168.61 277.68 162 265.17" fill="white"/>
<mask id="mask6_663_2231" style="mask-type:luminance" maskUnits="userSpaceOnUse" x="162" y="222" width="139" height="107">
<path d="M192.63 231.08L210.91 288.17C210.91 288.17 252.91 263.71 262.75 250.95C272.59 238.19 278.27 223.8 281.75 222.45C285.23 221.1 297.51 224.45 299.31 226.45C301.11 228.45 300.69 230.64 298.51 232.7C296.33 234.76 295.09 235.05 295.09 235.05C295.09 235.05 294.98 239.54 294 240.32C293.02 241.1 293.25 240.09 293 241.09C292.83 242.159 292.438 243.181 291.85 244.09C291.13 245.09 290.85 245.61 290.16 245.88C288.727 246.49 287.236 246.952 285.71 247.26C283.022 247.953 280.289 248.454 277.53 248.76C275.8 249.06 264.53 271.33 253.95 284.6C243.37 297.87 209.95 328.3 204.7 328.46C199.45 328.62 168.61 277.68 162 265.17" fill="white"/>
</mask>
<g mask="url(#mask6_663_2231)">
<path opacity="0.2" d="M291.85 244.07C292.439 243.161 292.83 242.139 293 241.07C293.22 240.07 293 241.07 294 240.3C295 239.53 295.09 235.03 295.09 235.03C295.09 235.03 296.33 234.74 298.51 232.68C300.69 230.62 301.12 228.37 299.31 226.43C297.5 224.49 285.2 221.13 281.75 222.43C280.85 222.78 279.75 224.03 278.55 225.91C280.38 228.91 282.55 230.74 280.55 235.98C277.55 243.98 270.55 253.98 264.55 262.48C258.55 270.98 208.55 317.98 202.55 316.98C197.65 316.16 183.42 298.98 178.36 292.75C189.2 310.14 201.6 328.51 204.75 328.42C209.98 328.26 243.44 297.84 254 284.56C264.56 271.28 275.8 249 277.53 248.74C280.289 248.434 283.023 247.933 285.71 247.24C287.237 246.932 288.728 246.47 290.16 245.86C290.9 245.59 291.13 245.09 291.85 244.07Z" fill="black"/>
</g>
<path d="M192.63 231.08L210.91 288.17C210.91 288.17 252.91 263.71 262.75 250.95C272.59 238.19 278.27 223.8 281.75 222.45C285.23 221.1 297.51 224.45 299.31 226.45C301.11 228.45 300.69 230.64 298.51 232.7C296.33 234.76 295.09 235.05 295.09 235.05C295.09 235.05 294.98 239.54 294 240.32C293.02 241.1 293.25 240.09 293 241.09C292.83 242.159 292.438 243.181 291.85 244.09C291.13 245.09 290.85 245.61 290.16 245.88C288.727 246.49 287.236 246.952 285.71 247.26C283.022 247.953 280.289 248.454 277.53 248.76C275.8 249.06 264.53 271.33 253.95 284.6C243.37 297.87 209.95 328.3 204.7 328.46C199.45 328.62 168.61 277.68 162 265.17" stroke="#263238" stroke-linecap="round" stroke-linejoin="round"/>
<path d="M210.91 288.17C210.91 288.17 206.12 288.37 202.06 301.17" stroke="#263238" stroke-linecap="round" stroke-linejoin="round"/>
<path d="M285.71 247.24C287.236 246.932 288.727 246.47 290.16 245.86C290.9 245.59 291.16 245.09 291.85 244.07C292.438 243.161 292.83 242.139 293 241.07C293.22 240.07 293.87 239.73 294.84 238.95C295.81 238.17 295.06 235.03 295.06 235.03C295.06 235.03 296.3 234.74 298.48 232.68C300.66 230.62 301.09 228.37 299.28 226.43C297.47 224.49 285.17 221.13 281.72 222.43C278.27 223.73 273.05 237 264 249.33L272.42 256.23C275.06 251.83 276.94 248.85 277.56 248.74C280.309 248.433 283.032 247.932 285.71 247.24Z" fill="white"/>
<mask id="mask7_663_2231" style="mask-type:luminance" maskUnits="userSpaceOnUse" x="264" y="222" width="37" height="35">
<path d="M285.71 247.24C287.236 246.932 288.727 246.47 290.16 245.86C290.9 245.59 291.16 245.09 291.85 244.07C292.438 243.161 292.83 242.139 293 241.07C293.22 240.07 293.87 239.73 294.84 238.95C295.81 238.17 295.06 235.03 295.06 235.03C295.06 235.03 296.3 234.74 298.48 232.68C300.66 230.62 301.09 228.37 299.28 226.43C297.47 224.49 285.17 221.13 281.72 222.43C278.27 223.73 273.05 237 264 249.33L272.42 256.23C275.06 251.83 276.94 248.85 277.56 248.74C280.309 248.433 283.032 247.932 285.71 247.24Z" fill="white"/>
</mask>
<g mask="url(#mask7_663_2231)">
<path opacity="0.2" d="M291.85 244.07C292.439 243.161 292.83 242.139 293 241.07C293.22 240.07 293 241.07 294 240.3C295 239.53 295.09 235.03 295.09 235.03C295.09 235.03 296.33 234.74 298.51 232.68C300.69 230.62 301.12 228.37 299.31 226.43C297.5 224.49 285.2 221.13 281.75 222.43C280.85 222.78 279.75 224.03 278.55 225.91C280.38 228.91 282.55 230.74 280.55 235.98C277.55 243.98 270.55 253.98 264.55 262.48C258.55 270.98 208.55 317.98 202.55 316.98C197.65 316.16 183.42 298.98 178.36 292.75C189.2 310.14 201.6 328.51 204.75 328.42C209.98 328.26 243.44 297.84 254 284.56C264.56 271.28 275.8 249 277.53 248.74C280.289 248.434 283.023 247.933 285.71 247.24C287.237 246.932 288.728 246.47 290.16 245.86C290.9 245.59 291.13 245.09 291.85 244.07Z" fill="black"/>
</g>
<path d="M285.71 247.24C287.236 246.932 288.727 246.47 290.16 245.86C290.9 245.59 291.16 245.09 291.85 244.07C292.438 243.161 292.83 242.139 293 241.07C293.22 240.07 293.87 239.73 294.84 238.95C295.81 238.17 295.06 235.03 295.06 235.03C295.06 235.03 296.3 234.74 298.48 232.68C300.66 230.62 301.09 228.37 299.28 226.43C297.47 224.49 285.17 221.13 281.72 222.43C278.27 223.73 273.05 237 264 249.33L272.42 256.23C275.06 251.83 276.94 248.85 277.56 248.74C280.309 248.433 283.032 247.932 285.71 247.24Z" stroke="#263238" stroke-linecap="round" stroke-linejoin="round"/>
<path d="M274.83 200.25C272.08 200.25 269.83 204.25 269.83 209.09C269.83 213.93 272.06 217.93 274.83 217.93L335.83 236.36V181.07L274.83 200.25Z" fill="#7D18F7" stroke="#263238" stroke-linecap="round" stroke-linejoin="round"/>
<path d="M309.15 192.89L285.35 199.74" stroke="#263238" stroke-linecap="round" stroke-linejoin="round"/>
<path d="M317.11 190.6L312.13 192.04" stroke="#263238" stroke-linecap="round" stroke-linejoin="round"/>
<path d="M282.64 197.79L274.83 200.25C272.08 200.25 269.83 204.25 269.83 209.09C269.83 213.93 272.06 217.93 274.83 217.93L281.88 220.06C280.223 216.556 279.427 212.706 279.559 208.832C279.692 204.959 280.748 201.172 282.64 197.79Z" fill="#263238" stroke="#263238" stroke-linecap="round" stroke-linejoin="round"/>
<path d="M341.08 246.22C352.634 246.22 362 229.596 362 209.09C362 188.584 352.634 171.96 341.08 171.96C329.526 171.96 320.16 188.584 320.16 209.09C320.16 229.596 329.526 246.22 341.08 246.22Z" fill="#D6D6D6" stroke="#263238" stroke-linecap="round" stroke-linejoin="round"/>
<path d="M341.08 200.85L321.15 195.52L319.41 209.72L321.65 224.16L341.08 217.33L341.83 201.25" fill="#D6D6D6"/>
<path d="M341.08 200.85L321.15 195.52L319.41 209.72L321.65 224.16L341.08 217.33L341.83 201.25" stroke="#263238" stroke-linecap="round" stroke-linejoin="round"/>
<path d="M341.08 168.62C328.49 168.62 318.28 186.74 318.28 209.09C318.28 231.44 328.49 249.56 341.08 249.56C353.67 249.56 363.88 231.44 363.88 209.09C363.88 186.74 353.67 168.62 341.08 168.62ZM341.64 243.82C331.15 243.82 322.64 228.27 322.64 209.09C322.64 189.91 331.15 174.37 341.64 174.37C352.13 174.37 360.64 189.91 360.64 209.09C360.64 228.27 352.14 243.82 341.64 243.82Z" fill="#263238" stroke="#263238" stroke-linecap="round" stroke-linejoin="round"/>
<path d="M341.08 217.33C343.643 217.33 345.72 213.64 345.72 209.09C345.72 204.539 343.643 200.85 341.08 200.85C338.517 200.85 336.44 204.539 336.44 209.09C336.44 213.64 338.517 217.33 341.08 217.33Z" fill="#7D18F7" stroke="#263238" stroke-linecap="round" stroke-linejoin="round"/>
<path d="M399.88 167.11L404.51 165.67" stroke="#263238" stroke-linecap="round" stroke-linejoin="round"/>
<path d="M366.73 177.37L394.17 168.87" stroke="#263238" stroke-linecap="round" stroke-linejoin="round"/>
<path d="M370.33 207.05L395.51 207.95" stroke="#263238" stroke-linecap="round" stroke-linejoin="round"/>
<path d="M391.19 244.04L396.41 245.72" stroke="#263238" stroke-linecap="round" stroke-linejoin="round"/>
<path d="M368.53 236.73L387.05 242.71" stroke="#263238" stroke-linecap="round" stroke-linejoin="round"/>
<path d="M369.43 190.86L382.92 189.06" stroke="#263238" stroke-linecap="round" stroke-linejoin="round"/>
<path d="M363.13 246.62L373.03 254.72" stroke="#263238" stroke-linecap="round" stroke-linejoin="round"/>
</g>
</svg>
