<svg width="33" height="36" viewBox="0 0 33 36" fill="none" xmlns="http://www.w3.org/2000/svg">
<path d="M15.92 29.56C13.68 29.56 11.6133 29.2 9.72 28.48C7.82667 27.76 6.17333 26.7467 4.76 25.44C3.37333 24.1067 2.29333 22.56 1.52 20.8C0.746667 19.04 0.36 17.1067 0.36 15C0.36 12.8933 0.746667 10.96 1.52 9.2C2.29333 7.44 3.37333 5.90667 4.76 4.6C6.17333 3.26667 7.82667 2.24 9.72 1.52C11.6133 0.799998 13.68 0.439998 15.92 0.439998C18.1867 0.439998 20.2533 0.799998 22.12 1.52C24.0133 2.24 25.6533 3.25333 27.04 4.56C28.4267 5.86667 29.5067 7.41333 30.28 9.2C31.08 10.96 31.48 12.8933 31.48 15C31.48 17.1067 31.08 19.0533 30.28 20.84C29.5067 22.6 28.4267 24.1333 27.04 25.44C25.6533 26.7467 24.0133 27.76 22.12 28.48C20.2533 29.2 18.1867 29.56 15.92 29.56ZM25.08 35.76C23.88 35.76 22.76 35.6267 21.72 35.36C20.68 35.12 19.6533 34.72 18.64 34.16C17.6533 33.6 16.6133 32.84 15.52 31.88C14.4533 30.92 13.2533 29.7333 11.92 28.32L20.2 26.24C20.8667 27.2267 21.4667 28 22 28.56C22.5333 29.12 23.0533 29.52 23.56 29.76C24.0933 30 24.6533 30.12 25.24 30.12C26.7867 30.12 28.2 29.4667 29.48 28.16L32.92 32.24C30.9733 34.5867 28.36 35.76 25.08 35.76ZM15.92 23C16.9867 23 17.9733 22.8133 18.88 22.44C19.8133 22.0667 20.6133 21.5333 21.28 20.84C21.9733 20.12 22.5067 19.2667 22.88 18.28C23.28 17.2933 23.48 16.2 23.48 15C23.48 13.7733 23.28 12.68 22.88 11.72C22.5067 10.7333 21.9733 9.89333 21.28 9.2C20.6133 8.48 19.8133 7.93333 18.88 7.56C17.9733 7.18667 16.9867 7 15.92 7C14.8533 7 13.8533 7.18667 12.92 7.56C12.0133 7.93333 11.2133 8.48 10.52 9.2C9.85333 9.89333 9.32 10.7333 8.92 11.72C8.54667 12.68 8.36 13.7733 8.36 15C8.36 16.2 8.54667 17.2933 8.92 18.28C9.32 19.2667 9.85333 20.12 10.52 20.84C11.2133 21.5333 12.0133 22.0667 12.92 22.44C13.8533 22.8133 14.8533 23 15.92 23Z" fill="#7D18F7"/>
</svg>
