<svg width="191" height="36" viewBox="0 0 191 36" fill="none" xmlns="http://www.w3.org/2000/svg">
<path d="M15.92 29.56C13.68 29.56 11.6133 29.2 9.72 28.48C7.82667 27.76 6.17333 26.7467 4.76 25.44C3.37333 24.1067 2.29333 22.56 1.52 20.8C0.746667 19.04 0.36 17.1067 0.36 15C0.36 12.8933 0.746667 10.96 1.52 9.2C2.29333 7.44 3.37333 5.90667 4.76 4.6C6.17333 3.26667 7.82667 2.24 9.72 1.52C11.6133 0.799998 13.68 0.439998 15.92 0.439998C18.1867 0.439998 20.2533 0.799998 22.12 1.52C24.0133 2.24 25.6533 3.25333 27.04 4.56C28.4267 5.86667 29.5067 7.41333 30.28 9.2C31.08 10.96 31.48 12.8933 31.48 15C31.48 17.1067 31.08 19.0533 30.28 20.84C29.5067 22.6 28.4267 24.1333 27.04 25.44C25.6533 26.7467 24.0133 27.76 22.12 28.48C20.2533 29.2 18.1867 29.56 15.92 29.56ZM25.08 35.76C23.88 35.76 22.76 35.6267 21.72 35.36C20.68 35.12 19.6533 34.72 18.64 34.16C17.6533 33.6 16.6133 32.84 15.52 31.88C14.4533 30.92 13.2533 29.7333 11.92 28.32L20.2 26.24C20.8667 27.2267 21.4667 28 22 28.56C22.5333 29.12 23.0533 29.52 23.56 29.76C24.0933 30 24.6533 30.12 25.24 30.12C26.7867 30.12 28.2 29.4667 29.48 28.16L32.92 32.24C30.9733 34.5867 28.36 35.76 25.08 35.76ZM15.92 23C16.9867 23 17.9733 22.8133 18.88 22.44C19.8133 22.0667 20.6133 21.5333 21.28 20.84C21.9733 20.12 22.5067 19.2667 22.88 18.28C23.28 17.2933 23.48 16.2 23.48 15C23.48 13.7733 23.28 12.68 22.88 11.72C22.5067 10.7333 21.9733 9.89333 21.28 9.2C20.6133 8.48 19.8133 7.93333 18.88 7.56C17.9733 7.18667 16.9867 7 15.92 7C14.8533 7 13.8533 7.18667 12.92 7.56C12.0133 7.93333 11.2133 8.48 10.52 9.2C9.85333 9.89333 9.32 10.7333 8.92 11.72C8.54667 12.68 8.36 13.7733 8.36 15C8.36 16.2 8.54667 17.2933 8.92 18.28C9.32 19.2667 9.85333 20.12 10.52 20.84C11.2133 21.5333 12.0133 22.0667 12.92 22.44C13.8533 22.8133 14.8533 23 15.92 23ZM48.5481 29.56C44.4148 29.56 41.1881 28.4267 38.8681 26.16C36.5481 23.8933 35.3881 20.68 35.3881 16.52V0.999998H43.3081V16.28C43.3081 18.68 43.7748 20.4 44.7081 21.44C45.6681 22.48 46.9748 23 48.6281 23C50.2815 23 51.5748 22.48 52.5081 21.44C53.4415 20.4 53.9081 18.68 53.9081 16.28V0.999998H61.7081V16.52C61.7081 20.68 60.5481 23.8933 58.2281 26.16C55.9081 28.4267 52.6815 29.56 48.5481 29.56ZM81.1934 29.56C78.9534 29.56 76.8868 29.2 74.9934 28.48C73.1001 27.76 71.4468 26.7467 70.0334 25.44C68.6468 24.1067 67.5668 22.56 66.7934 20.8C66.0201 19.04 65.6334 17.1067 65.6334 15C65.6334 12.8933 66.0201 10.96 66.7934 9.2C67.5668 7.44 68.6468 5.90667 70.0334 4.6C71.4468 3.26667 73.1001 2.24 74.9934 1.52C76.8868 0.799998 78.9534 0.439998 81.1934 0.439998C83.4601 0.439998 85.5268 0.799998 87.3934 1.52C89.2868 2.24 90.9268 3.26667 92.3134 4.6C93.7001 5.90667 94.7801 7.44 95.5534 9.2C96.3534 10.96 96.7534 12.8933 96.7534 15C96.7534 17.1067 96.3534 19.0533 95.5534 20.84C94.7801 22.6 93.7001 24.1333 92.3134 25.44C90.9268 26.7467 89.2868 27.76 87.3934 28.48C85.5268 29.2 83.4601 29.56 81.1934 29.56ZM81.1934 23C82.2601 23 83.2468 22.8133 84.1534 22.44C85.0868 22.0667 85.8868 21.5333 86.5534 20.84C87.2468 20.12 87.7801 19.2667 88.1534 18.28C88.5534 17.2933 88.7534 16.2 88.7534 15C88.7534 13.7733 88.5534 12.68 88.1534 11.72C87.7801 10.7333 87.2468 9.89333 86.5534 9.2C85.8868 8.48 85.0868 7.93333 84.1534 7.56C83.2468 7.18667 82.2601 7 81.1934 7C80.1268 7 79.1268 7.18667 78.1934 7.56C77.2868 7.93333 76.4868 8.48 75.7934 9.2C75.1268 9.89333 74.5934 10.7333 74.1934 11.72C73.8201 12.68 73.6334 13.7733 73.6334 15C73.6334 16.2 73.8201 17.2933 74.1934 18.28C74.5934 19.2667 75.1268 20.12 75.7934 20.84C76.4868 21.5333 77.2868 22.0667 78.1934 22.44C79.1268 22.8133 80.1268 23 81.1934 23ZM106.471 29V7.28H97.8709V0.999998H122.951V7.28H114.391V29H106.471ZM125.902 29V0.999998H133.822V29H125.902ZM146.816 13.28H159.736V19.4H146.816V13.28ZM147.376 29H139.456V0.999998H161.416V7.12H147.376V29ZM172.2 29V17.16L174.04 21.92L161.52 0.999998H169.88L178.92 16.16H174.08L183.16 0.999998H190.84L178.36 21.92L180.12 17.16V29H172.2Z" fill="#7D18F7"/>
</svg>
